<svg width="98" height="98" viewBox="0 0 98 98" fill="none" xmlns="http://www.w3.org/2000/svg">
<path d="M84.312 76.5389C90.8615 68.6412 94.813 58.511 94.853 47.4584C94.9443 22.2583 74.1994 1.43497 48.9987 1.43555C23.7855 1.43612 3.32558 21.7867 3.14776 46.9583C2.97013 72.1302 23.349 92.8814 48.5204 93.1396C52.699 93.1825 56.7496 92.6645 60.6032 91.6585C62.7777 91.091 65.0836 91.3863 67.0277 92.5137C69.7603 94.0984 72.8995 95.4759 76.0534 96.3885C79.3733 97.3492 82.3968 94.1715 81.3433 90.88C80.504 88.2579 80.6933 85.6315 81.1559 83.1673C81.6145 80.7232 82.7245 78.4531 84.312 76.5389Z" fill="#F0F2FF"/>
<path d="M81.3433 90.88C80.504 88.258 80.6932 85.6315 81.1557 83.1673C81.6145 80.7232 82.7245 78.4533 84.312 76.5393C87.0141 73.2811 89.2721 69.6423 90.9976 65.7161C55.519 83.9787 12.6624 51.1221 34.7303 3.70276C16.493 9.66987 3.29036 26.7606 3.14776 46.9583C2.97013 72.1302 23.349 92.8816 48.5204 93.1396C52.699 93.1825 56.7496 92.6645 60.6032 91.6585C62.7777 91.0908 65.0836 91.3863 67.0277 92.5137C69.7603 94.0984 72.8995 95.4759 76.0534 96.3885C79.3731 97.3492 82.3966 94.1715 81.3433 90.88Z" fill="#DBE1FF"/>
<path d="M55.8136 65.696V36.6882C55.8136 34.2076 53.2785 32.5341 50.9977 33.5091C48.4713 34.5889 45.7734 35.2115 43.0292 35.3476L38.5047 35.5721C37.4468 35.6246 36.6161 36.4976 36.6161 37.5566V40.387C36.6161 41.4843 37.5057 42.374 38.6031 42.374H42.5734C43.4828 42.374 44.2201 43.1113 44.2201 44.0206V65.6961H40.1554C38.2007 65.6961 36.6161 67.2808 36.6161 69.2355V70.6766C36.6161 72.6312 38.2007 74.2159 40.1554 74.2159H59.8786C61.8332 74.2159 63.4179 72.6312 63.4179 70.6766V69.2355C63.4179 67.2808 61.8332 65.6961 59.8786 65.6961H55.8136V65.696Z" fill="#7F9AE6"/>
<path d="M50.0171 26.7543C53.219 26.7543 55.8147 24.1587 55.8147 20.9568C55.8147 17.7549 53.219 15.1593 50.0171 15.1593C46.8152 15.1593 44.2196 17.7549 44.2196 20.9568C44.2196 24.1587 46.8152 26.7543 50.0171 26.7543Z" fill="#7F9AE6"/>
</svg>
