<svg width="101" height="101" viewBox="0 0 101 101" fill="none" xmlns="http://www.w3.org/2000/svg">
<path d="M90.6623 63.0857C90.6623 63.0857 87.9224 70.8113 77.5262 72.9289C67.1299 75.0467 64.0496 57.9527 64.0496 57.9527L71.015 50.5L81.7849 51.5589L90.6623 58.2973V63.0857Z" fill="#3A484A"/>
<path d="M79.4112 27.1548L70.2101 33.4618L64.0493 57.9529H70.9781C82.7562 55.909 89.3153 61.2082 92.3486 64.8998C93.5938 66.4152 95.9872 66.1011 96.7828 64.3084C101.924 52.7228 101.688 27.1548 79.4112 27.1548Z" fill="#506366"/>
<path d="M53.6532 10.9365C56.4459 15.2811 50.985 19.3761 48.7606 20.8014L47.8774 21.3326L47.8814 25.3787L53.6938 31.3991L65.9294 33.1378L76.4557 32.545C78.0749 29.2008 79.4109 27.1543 79.4109 27.1543C76.1322 18.8627 68.9876 10.9365 53.6532 10.9365Z" fill="#7CB777"/>
<path d="M76.4557 32.5453C76.4557 32.5453 66.7449 15.9421 47.8777 21.3327L41.1039 29.5976L34.2354 61.8053L42.4246 62.4979C42.4248 62.4981 42.4248 62.4983 42.425 62.4987L39.3643 77.6542L55.8807 81.205L73.0967 77.6542L77.5261 72.9289C65.7513 59.7526 72.122 41.4996 76.4557 32.5453Z" fill="#EFEDEE"/>
<path d="M53.6533 10.9365C25.2157 10.9365 6.26757 39.5531 2.2688 75.6049L8.78823 80.4158L31.4738 53.2703L47.8776 21.3326C47.8776 21.3326 47.8796 21.3326 47.8815 21.3306C48.1183 21.2018 57.0725 16.2558 53.6533 10.9365Z" fill="#85E7FF"/>
<path d="M9.81381 79.1887C9.91284 77.9865 10.028 76.7915 10.1596 75.6049C13.7948 42.8291 29.7872 16.2017 54.0317 11.6325C53.9845 11.5275 53.9317 11.4226 53.8755 11.3172C53.8652 11.2981 53.8549 11.2788 53.8445 11.2596C53.7855 11.1521 53.7228 11.0444 53.6533 10.9365C25.2157 10.9365 6.26757 39.5531 2.2688 75.6049L8.78823 80.4158L9.81381 79.1887Z" fill="#57D0E6"/>
<path d="M76.8448 84.3483L50.4112 74.8926L43.3097 65.8677L42.4253 62.498L42.4234 62.4984V62.498H42.4253C40.2363 58.1354 40.731 52.6581 44.1812 48.7229C44.2159 48.6844 44.2487 48.646 44.2832 48.6075C55.1935 36.2861 57.7598 21.3328 47.8775 21.3328C16.6561 30.2523 21.9275 72.698 2.26895 75.6051C1.74718 80.3122 1.47949 85.1484 1.47949 90.0637H69.2501H80.9915L76.8448 84.3483Z" fill="#FADC60"/>
<path d="M80.9916 90.0636C41.3317 90.0636 42.4234 62.498 42.4234 62.498H42.4254C43.2687 64.1827 44.5122 65.7016 46.1411 66.901C52.1979 71.3638 62.2841 75.5973 77.5262 72.9289C77.5262 72.9289 80.9916 75.0467 80.9916 90.0636Z" fill="#506366"/>
<path d="M10.8165 70.6217C8.53588 73.2791 5.80592 75.0821 2.26895 75.605C1.74718 80.3122 1.47949 85.1483 1.47949 90.0636H9.37012C9.37012 85.1483 9.63781 80.3124 10.1594 75.605C10.3456 73.9267 10.5659 72.2655 10.8165 70.6217Z" fill="#F2C42C"/>
<path d="M55.835 43.5691C56.5704 43.9013 57.4605 43.5647 57.7923 42.8297C58.1549 42.027 58.8778 41.4106 59.7758 41.1388C60.6736 40.8667 61.6169 40.9786 62.3641 41.4455C63.0573 41.8785 63.9699 41.6676 64.4029 40.9748C64.8357 40.2818 64.625 39.3691 63.932 38.9361C62.4608 38.0168 60.6329 37.7876 58.9183 38.3068C57.2033 38.8262 55.81 40.0307 55.0959 41.6116C54.7595 42.3565 55.0906 43.2327 55.835 43.5691Z" fill="black"/>
</svg>
