<svg width="96" height="96" viewBox="0 0 96 96" fill="none" xmlns="http://www.w3.org/2000/svg">
<path d="M32.6301 83.8557H34.5249V74.2969C34.5249 72.7266 35.7985 71.4529 37.3689 71.4529C38.9392 71.4529 40.2121 72.7266 40.2121 74.2969V83.8557H46.4677C49.9174 83.8557 52.7233 86.6624 52.7233 90.1113C52.7233 91.6817 51.4504 92.9553 49.8801 92.9553C48.309 92.9553 47.0361 91.6817 47.0361 90.1113C47.0361 89.7979 46.7812 89.543 46.4677 89.543H32.6301C32.3166 89.543 32.061 89.7979 32.061 90.1113C32.061 91.6817 30.788 92.9553 29.2177 92.9553C27.6474 92.9553 26.3737 91.6817 26.3737 90.1113C26.3745 86.6624 29.1804 83.8557 32.6301 83.8557Z" fill="#50E0E0"/>
<path d="M4.90285 91.021L21.2 69.5984C23.083 72.2029 24.1663 75.4241 24.0886 78.9038C23.9085 87.0505 17.2566 93.6899 9.10914 93.8562C7.99953 93.8789 6.91481 93.7837 5.86891 93.5816C4.69923 93.3552 4.18141 91.9695 4.90285 91.021Z" fill="#4A5660"/>
<path d="M21.2 69.5984L4.90285 91.021C4.18141 91.9695 4.69923 93.3552 5.86891 93.5816C6.68336 93.7383 7.52052 93.8306 8.37453 93.8533L23.4229 74.0713C22.927 72.4497 22.1712 70.9417 21.2 69.5984Z" fill="#3D4851"/>
<path d="M37.3688 71.4536C35.7985 71.4536 34.5248 72.7266 34.5248 74.2969V81.8569H36.3713C37.6655 81.8569 38.9472 81.772 40.2121 81.616V74.2969C40.2121 72.7266 38.9391 71.4536 37.3688 71.4536Z" fill="#00BCB9"/>
<path d="M62.0844 14.7561C61.0188 12.4585 59.5591 10.3821 57.791 8.61548C53.9143 4.73877 48.5603 2.34082 42.6438 2.34082C30.8152 2.34082 21.2226 11.9312 21.2226 23.762V58.2642H13.7673C13.7673 69.2227 22.6501 78.1062 33.6093 78.1062H36.3713C47.592 78.1062 57.2527 71.4331 61.6047 61.8413L62.0844 14.7561Z" fill="#3D4851"/>
<path d="M26.8491 23.762C26.8491 12.8848 34.957 3.90234 45.4577 2.52466C44.5371 2.40381 43.5981 2.34082 42.6445 2.34082C30.8152 2.34082 21.2226 11.9312 21.2226 23.762V58.2642H26.8491V23.762Z" fill="#333A41"/>
<path d="M19.393 58.2642H13.7673C13.7673 69.2227 22.6501 78.1062 33.6093 78.1062H36.3713C36.8833 78.1062 37.3901 78.0872 37.8955 78.0601C27.5617 77.3709 19.393 68.773 19.393 58.2642Z" fill="#333A41"/>
<path d="M36.5888 29.0757C37.1828 35.1687 41.0273 38.7781 45.6071 42.293C52.5908 47.6499 61.1235 52.1616 61.6047 61.8413C63.186 58.3564 64.0656 54.4856 64.0656 50.4097V23.762C64.0656 20.5452 63.3567 17.4932 62.0844 14.7561C59.4133 12.7537 56.0962 11.5671 52.5014 11.5671C43.1865 11.5671 35.6909 19.8684 36.5888 29.0757Z" fill="#E8E8E8"/>
<path d="M84.772 23.6521C78.8174 18.1794 70.7234 14.7561 62.0845 14.7561C63.1824 24.6365 58.0298 27.6768 56.7729 32.4258L63.3069 37.032L75.1875 38.907L84.772 23.6521Z" fill="#FF8F71"/>
<path d="M75.1875 34.4729V38.907L83.5283 40.2224L93.739 44.7436C94.1689 44.8938 94.6164 44.562 94.6011 44.1072C94.311 36.1978 90.55 28.96 84.772 23.6521C79.3711 24.301 75.1875 28.8977 75.1875 34.4729Z" fill="#4A5660"/>
<path d="M56.4997 34.4121C56.4521 39.0432 60.4101 42.7119 65.0361 42.5164C83.1035 41.7546 91.2458 43.8831 93.739 44.7436C79.5908 29.8037 56.7729 32.4258 56.7729 32.4258C56.6059 33.0513 56.5071 33.7068 56.4997 34.4121Z" fill="#F75747"/>
<path d="M47.9391 29.4382H51.2972C52.0743 29.4382 52.7035 28.8083 52.7035 28.032C52.7035 27.2549 52.0743 26.625 51.2972 26.625H47.9391C47.1627 26.625 46.5328 27.2549 46.5328 28.032C46.5328 28.8083 47.1627 29.4382 47.9391 29.4382Z" fill="#FF8997"/>
<path d="M1.74612 68.6162L18.9763 44.039C22.3909 39.1684 28.8955 37.601 34.1543 40.3806C40.6502 43.8149 42.4834 52.3029 37.9395 58.0774C31.6883 66.0212 20.6807 74.466 3.01101 71.6008C1.61721 71.3752 0.935329 69.7727 1.74612 68.6162Z" fill="#4A5660"/>
<path d="M8.63675 71.6009C7.24295 71.3753 6.56106 69.7728 7.37185 68.6163L24.6021 44.0391C26.2991 41.6185 28.76 40.0145 31.4524 39.3538C26.8213 38.2149 21.824 39.9771 18.9763 44.0391L1.74612 68.6163C0.935329 69.7728 1.61721 71.3753 3.01101 71.6009C6.47244 72.1627 9.67678 72.2879 12.6416 72.0696C11.346 71.9781 10.0115 71.8243 8.63675 71.6009Z" fill="#3D4851"/>
<path d="M52.9123 20.8081V23.4631C52.9123 24.2402 52.2824 24.8694 51.5053 24.8694C50.7289 24.8694 50.0991 24.2402 50.0991 23.4631V20.8081C50.0991 20.031 50.7289 19.4019 51.5053 19.4019C52.2824 19.4019 52.9123 20.031 52.9123 20.8081Z" fill="black"/>
</svg>
