<svg width="96" height="96" viewBox="0 0 96 96" fill="none" xmlns="http://www.w3.org/2000/svg">
<path d="M28.3067 78.83C28.5934 82.4696 31.2592 86.2261 35.4738 88.3398C39.6885 90.4535 44.2936 90.3433 47.3818 88.3961C47.0951 84.7565 44.4292 81 40.2146 78.8863C36 76.7726 31.395 76.883 28.3067 78.83Z" fill="#2FC8B4"/>
<path d="M67.6933 78.83C67.4066 82.4696 64.7407 86.2261 60.5261 88.3398C56.3115 90.4535 51.7063 90.3433 48.6182 88.3961C48.9049 84.7565 51.5708 81 55.7854 78.8863C60 76.7726 64.605 76.883 67.6933 78.83Z" fill="#2FC8B4"/>
<path d="M50.7684 63.5475H45.2325V94.5937H50.7684V63.5475Z" fill="#00AE95"/>
<path d="M78.3662 43.4151C87.8764 38.3845 85.3607 24.118 74.7036 22.6434C78.7551 12.6768 67.6577 3.36501 58.546 9.08563C55.2432 -1.15354 40.7566 -1.15354 37.4538 9.08563C28.3421 3.36501 17.2447 12.6768 21.2962 22.6434C10.6391 24.118 8.12361 38.3845 17.6336 43.4151C10.4177 51.3949 17.661 63.9407 28.1797 61.6815C27.7813 72.4328 41.3943 77.3874 47.9999 68.8956C54.6055 77.3876 68.2184 72.4329 67.8201 61.6815C78.3388 63.9409 85.5821 51.3951 78.3662 43.4151Z" fill="#FF5E6B"/>
<path d="M47.9999 59.3774C61.6203 59.3774 72.6617 49.4944 72.6617 37.3031C72.6617 25.1118 61.6203 15.2288 47.9999 15.2288C34.3796 15.2288 23.3381 25.1118 23.3381 37.3031C23.3381 49.4944 34.3796 59.3774 47.9999 59.3774Z" fill="#FFCE1C"/>
<path d="M28.9635 37.3025C28.9635 25.9627 38.517 16.6219 50.8124 15.3722C49.8892 15.2785 48.9511 15.2284 47.9999 15.2284C34.3798 15.2284 23.3385 25.1113 23.3385 37.3025C23.3385 49.4938 34.3798 59.3767 47.9999 59.3767C48.9511 59.3767 49.8892 59.3268 50.8124 59.2329C38.517 57.9832 28.9635 48.6423 28.9635 37.3025Z" fill="#FAA330"/>
<path d="M37.4997 37.8046V35.6497C37.4997 34.873 36.8701 34.2434 36.0935 34.2434C35.3169 34.2434 34.6873 34.873 34.6873 35.6497V37.8046C34.6873 38.5812 35.3169 39.2108 36.0935 39.2108C36.8701 39.2108 37.4997 38.5814 37.4997 37.8046Z" fill="black"/>
<path d="M61.3126 37.8046V35.6497C61.3126 34.873 60.6829 34.2434 59.9063 34.2434C59.1297 34.2434 58.5001 34.873 58.5001 35.6497V37.8046C58.5001 38.5812 59.1297 39.2108 59.9063 39.2108C60.6829 39.2108 61.3126 38.5814 61.3126 37.8046Z" fill="black"/>
<path d="M47.9999 40.3612C49.5509 40.3612 51.008 39.7121 51.9974 38.5802C52.5085 37.9956 52.4489 37.1072 51.8641 36.5959C51.2793 36.0846 50.3911 36.1444 49.8798 36.7292C49.4247 37.2499 48.7394 37.5486 47.9999 37.5486C47.2604 37.5486 46.5753 37.2499 46.12 36.7292C45.6091 36.1444 44.7207 36.0847 44.1357 36.5959C43.5509 37.107 43.4913 37.9954 44.0024 38.5802C44.9919 39.7121 46.4487 40.3612 47.9999 40.3612Z" fill="black"/>
</svg>
