<svg width="95" height="95" viewBox="0 0 95 95" fill="none" xmlns="http://www.w3.org/2000/svg">
<path d="M91.6419 7.22189C91.2309 6.35939 90.4547 5.72447 89.5306 5.48239C85.9617 4.54523 76.4705 2.90068 69.9583 9.57747L88.7406 31.8873C88.7406 31.8873 97.3968 19.2977 91.6419 7.22189Z" fill="#FFB25A"/>
<path d="M82.6422 29.1273L82.6233 29.1555C82.6871 29.0606 88.4304 20.3529 85.5935 12.1657C84.6354 11.9874 83.4511 11.8337 82.1624 11.8163C79.0566 11.7728 75.8915 12.5962 73.6693 14.8749L82.6422 29.1273Z" fill="#FF8F71"/>
<path d="M3.35788 7.22189C3.76884 6.35939 4.54509 5.72447 5.4692 5.48239C9.03808 4.54523 18.5292 2.90068 25.0415 9.57747L6.25922 31.8873C6.25922 31.8873 -2.3977 19.2977 3.35788 7.22189Z" fill="#FFB25A"/>
<path d="M12.3577 29.1273L12.3766 29.1555C12.3128 29.0606 6.56952 20.3529 9.40635 12.1657C10.3645 11.9874 11.5488 11.8337 12.8375 11.8163C15.9433 11.7728 19.1084 12.5962 21.3306 14.8749L12.3577 29.1273Z" fill="#FF8F71"/>
<path d="M18.2908 80.5599C9.15987 72.4828 3.40358 60.6789 3.40358 47.529C3.40358 23.176 23.1469 3.43274 47.4999 3.43274C71.8528 3.43274 91.5961 23.176 91.5961 47.529C91.5961 60.6789 85.8391 72.4828 76.7089 80.5599H18.2908Z" fill="#F8D070"/>
<path d="M18.2908 80.5601H23.8579C14.7277 72.483 8.97144 60.6798 8.97144 47.5291C8.97144 24.1118 27.2282 4.95988 50.2839 3.52335C50.0991 3.53494 49.8997 3.50088 49.7142 3.49146C48.9793 3.45667 48.2443 3.43347 47.5087 3.43347C47.5058 3.43347 47.5029 3.43347 47.5 3.43347C23.1469 3.43347 3.40358 23.1768 3.40358 47.5298C3.40358 53.8682 4.77199 60.1891 7.42328 65.9475C10.0035 71.5516 13.7253 76.5215 18.2908 80.5601Z" fill="#FFB25A"/>
<path d="M53.3113 50.3911C66.6801 53.0859 76.7475 64.8978 76.7475 79.061C76.7475 79.5647 76.7345 80.0634 76.7091 80.5599C68.9313 87.4461 58.7031 91.6253 47.4999 91.6253C36.2968 91.6253 26.0686 87.4461 18.2908 80.5599C18.2654 80.0634 18.2524 79.5647 18.2524 79.061C18.2524 64.8978 28.3198 53.0859 41.6878 50.3911H53.3113Z" fill="#E8E8E8"/>
<path d="M49.1655 91.5912C49.5395 91.5767 49.9121 91.5593 50.2839 91.5361C40.1745 90.9056 30.987 86.8714 23.8587 80.5599C21.9264 78.8508 20.1477 76.9736 18.5401 74.9536C18.3517 76.2959 18.2524 77.6665 18.2524 79.061C18.2524 79.564 18.2654 80.0634 18.2908 80.5599C20.7218 82.7118 23.3912 84.5999 26.2556 86.1777C27.6877 86.967 29.1685 87.6788 30.692 88.3072C35.8721 90.4453 41.5487 91.6246 47.4999 91.6246C47.7935 91.6253 48.9031 91.6006 49.1655 91.5912Z" fill="#D2D1D7"/>
<path d="M53.3113 50.3911C53.0206 53.3454 50.5295 55.6531 47.4999 55.6531C44.4703 55.6531 41.9791 53.3454 41.6885 50.3911C43.5672 50.0135 45.5103 49.8142 47.4999 49.8142C49.4895 49.8135 51.4326 50.0135 53.3113 50.3911Z" fill="#333A41"/>
<path d="M32.1953 13.321L30.6544 13.8849C29.2824 14.3872 28.2481 15.5367 27.8937 16.9537L27.8263 17.2247C27.1848 19.7898 28.9309 22.3374 31.5539 22.6657L35.1344 23.1129C36.8463 23.3268 38.5257 22.5215 39.4309 21.0531C40.6863 19.0171 40.0876 16.3514 38.0828 15.0475L36.1114 13.7653C34.9488 13.0093 33.4978 12.8448 32.1953 13.321Z" fill="#DE8957"/>
<path d="M35.4539 32.3925L35.3662 32.0533C34.8357 29.9876 32.6765 28.7931 30.6449 29.4418C29.2831 29.876 28.2915 31.0538 28.0966 32.4693L28.0509 32.7976C27.761 34.9002 29.291 36.8173 31.406 37.0014L31.5386 37.013C34.0877 37.2341 36.0903 34.8705 35.4539 32.3925Z" fill="#DE8957"/>
<path d="M13.5516 34.9168C12.2977 35.8641 11.7512 37.4826 12.1737 38.9967L12.36 39.6621C12.8543 41.4335 14.5395 42.6018 16.3717 42.4438L16.4471 42.4373C18.9998 42.2177 20.6183 39.599 19.6739 37.2173L19.4122 36.5578C18.4816 34.2087 15.5679 33.3933 13.5516 34.9168Z" fill="#DE8957"/>
<path d="M15.7636 50.8479L14.1799 51.1378C12.5651 51.4343 11.3228 52.7338 11.0995 54.3602L10.9857 55.1858C10.706 57.2268 12.1034 59.1192 14.1364 59.4534L14.6177 59.5324C15.8143 59.7288 17.0327 59.3417 17.8974 58.4923L19.1128 57.2978C20.403 56.0294 20.6211 54.0283 19.634 52.512C18.7976 51.2277 17.2712 50.571 15.7636 50.8479Z" fill="#DE8957"/>
<path d="M62.8049 13.321L64.3458 13.8849C65.7178 14.3872 66.7521 15.5367 67.1065 16.9537L67.1739 17.2247C67.8154 19.7898 66.0693 22.3374 63.4463 22.6657L59.8658 23.1129C58.1539 23.3268 56.4745 22.5215 55.5685 21.0531C54.3132 19.0171 54.9119 16.3514 56.9174 15.0475L58.8888 13.7653C60.0514 13.0093 61.5024 12.8448 62.8049 13.321Z" fill="#DE8957"/>
<path d="M59.5462 32.3925L59.6339 32.0533C60.1645 29.9876 62.3229 28.7931 64.3552 29.4418C65.7171 29.876 66.7079 31.0538 66.9036 32.4693L66.9485 32.7976C67.2391 34.9002 65.7091 36.8173 63.5942 37.0014L63.4615 37.013C60.9124 37.2341 58.9098 34.8705 59.5462 32.3925Z" fill="#DE8957"/>
<path d="M81.4479 34.9168C82.7025 35.8641 83.2483 37.4826 82.8258 38.9967L82.6402 39.6621C82.1459 41.4335 80.4608 42.6018 78.6285 42.4438L78.5531 42.4373C76.0004 42.2177 74.3812 39.599 75.3263 37.2173L75.5872 36.5578C76.5186 34.2087 79.4323 33.3933 81.4479 34.9168Z" fill="#DE8957"/>
<path d="M79.2366 50.8479L80.8203 51.1378C82.4351 51.4343 83.6774 52.7338 83.9007 54.3602L84.0137 55.1858C84.2942 57.2268 82.8968 59.1192 80.8638 59.4534L80.3825 59.5324C79.1859 59.7288 77.9675 59.3417 77.1028 58.4923L75.8874 57.2978C74.5972 56.0294 74.3791 54.0283 75.3662 52.512C76.2026 51.2277 77.7291 50.571 79.2366 50.8479Z" fill="#DE8957"/>
<path d="M65.761 45.1908C64.992 45.1908 64.3694 45.8141 64.3694 46.5824V50.1332C64.3694 50.9022 64.992 51.5248 65.761 51.5248C66.5293 51.5248 67.1526 50.9022 67.1526 50.1332V46.5824C67.1526 45.8134 66.5293 45.1908 65.761 45.1908Z" fill="black"/>
<path d="M27.8471 46.5824V50.1332C27.8471 50.9022 28.4704 51.5248 29.2387 51.5248C30.0077 51.5248 30.6311 50.9022 30.6311 50.1332V46.5824C30.6311 45.8141 30.0077 45.1908 29.2387 45.1908C28.4704 45.1908 27.8471 45.8134 27.8471 46.5824Z" fill="black"/>
<path d="M40.6158 21.7837C42.2814 19.0817 41.5023 15.6106 38.8415 13.8806C37.2303 12.8332 35.722 11.6613 33.7086 11.6613C32.4612 11.6613 31.3269 12.157 30.1759 12.5781C28.3683 13.2391 27.01 14.7489 26.5433 16.6167C25.6895 20.0319 27.7812 23.5964 31.3813 24.0465L34.9617 24.4937C37.1832 24.772 39.4402 23.6899 40.6158 21.7837ZM38.2465 20.3225C37.6362 21.3119 36.4592 21.8765 35.3067 21.7315C35.3067 21.7315 31.7379 21.2858 31.727 21.2843C29.7679 21.0393 28.7974 19.0766 29.2446 17.2922C29.6649 15.6121 31.2363 15.154 32.6736 14.6286C33.5585 14.3046 34.5624 14.4184 35.3524 14.9322L37.3238 16.2144C38.7067 17.1131 39.1119 18.9179 38.2465 20.3225Z" fill="black"/>
<path d="M31.4189 38.3807C33.086 38.4967 34.8023 37.8487 35.8931 36.4419C36.8658 35.1873 37.197 33.5855 36.8012 32.046C36.1939 29.6781 34.3174 27.8727 31.7741 27.8727C29.2612 27.8727 27.0615 29.7905 26.7179 32.2794C26.2976 35.3235 28.253 38.1604 31.4189 38.3807ZM29.9222 34.7452C29.5388 34.2646 29.341 33.6362 29.4301 32.9875C29.5983 31.7699 30.397 30.6566 31.7741 30.6566C33.0446 30.6566 33.8144 31.6061 34.1057 32.7389C34.5261 34.3748 33.1294 35.7541 31.5269 35.6149C30.8739 35.5584 30.3049 35.2257 29.9222 34.7452Z" fill="black"/>
<path d="M16.0425 43.85C19.6838 43.85 22.325 40.126 20.9682 36.7042C20.0774 34.4588 18.4227 32.7505 15.8497 32.7505C12.4439 32.7505 9.92161 36.1034 10.8334 39.3707C11.527 41.8553 13.2745 43.85 16.0425 43.85ZM14.3972 36.036C14.7995 35.7243 15.3003 35.5344 15.849 35.5344C17.2529 35.5344 17.9197 36.5694 18.3799 37.7305C19.0272 39.362 17.7479 41.0668 16.041 41.0668C14.5356 41.0668 13.8688 39.8904 13.5144 38.622C13.2383 37.6327 13.6441 36.6202 14.3972 36.036Z" fill="black"/>
<path d="M9.60707 54.9958C9.22148 57.8066 11.1117 60.3673 13.9109 60.8268C15.7403 61.1269 17.5044 60.8297 18.8728 59.4852L20.089 58.29C21.8445 56.565 22.1438 53.8151 20.8 51.7524C19.6723 50.0209 17.5443 49.1062 15.512 49.4787C15.512 49.4787 13.9297 49.7686 13.929 49.7686C11.2364 50.2622 9.95134 52.4881 9.60707 54.9958ZM12.3649 55.3749C12.5425 54.0833 12.9252 52.7483 14.4306 52.5069C14.4306 52.5069 16.0128 52.217 16.0142 52.217C18.2966 51.798 19.789 54.6813 18.1371 56.3048C18.1371 56.3048 16.9231 57.4985 16.9217 57.5C16.3803 58.0327 15.5924 58.282 14.843 58.1588C13.4028 57.9225 12.1402 57.0137 12.3649 55.3749Z" fill="black"/>
<path d="M68.5239 16.887C68.0318 14.9192 66.767 13.2891 64.8239 12.5781C63.6678 12.1548 62.5444 11.6613 61.2912 11.6613C59.2857 11.6613 57.7586 12.8398 56.1583 13.8806C53.4983 15.6106 52.7184 19.0824 54.384 21.7837C55.5567 23.6856 57.8231 24.7713 60.0381 24.4944C60.0381 24.4944 63.6171 24.0465 63.6186 24.0465C67.0186 23.6211 69.3553 20.2131 68.5239 16.887ZM65.3856 19.9971C64.8913 20.719 64.1411 21.1756 63.2728 21.2843L59.6931 21.7315C58.5378 21.8765 57.3643 21.314 56.7533 20.3225C55.8872 18.9179 56.2923 17.1139 57.676 16.2144C58.7632 15.507 59.9228 14.4445 61.2905 14.4445C62.1726 14.4445 63.0518 14.8938 63.8672 15.1924C64.8072 15.536 65.5132 16.3209 65.756 17.2922C65.993 18.2402 65.956 19.165 65.3856 19.9971Z" fill="black"/>
<path d="M68.3275 32.607C67.9738 30.0427 65.9596 27.8727 63.2256 27.8727C60.707 27.8727 58.8015 29.6984 58.1978 32.046C57.3824 35.2206 59.8554 38.4191 63.13 38.4191C64.731 38.4191 66.2553 37.748 67.2606 36.4876C68.1412 35.3837 68.5203 34.0059 68.3275 32.607ZM65.0847 34.751C64.6513 35.2946 64.0193 35.5671 63.3409 35.6265C62.5472 35.6954 61.7927 35.3627 61.3064 34.7357C60.757 34.0269 60.7701 33.2231 60.981 32.3997C61.2448 31.3734 62.1682 30.6566 63.2256 30.6566C64.3672 30.6566 65.3681 31.5285 65.524 32.6599C65.6291 33.4195 65.5841 34.1247 65.0847 34.751Z" fill="black"/>
<path d="M78.4332 43.8246L78.5086 43.8311C81.431 44.0812 83.4365 41.9872 84.1663 39.3707C85.0752 36.1171 82.5334 32.7505 79.1508 32.7505C76.606 32.7505 74.9136 34.4806 74.0323 36.7042C72.761 39.9093 75.0129 43.5296 78.4332 43.8246ZM76.6198 37.7305C77.0836 36.5593 77.736 35.5344 79.15 35.5344C80.7366 35.5344 81.9093 37.1036 81.4853 38.622C81.4853 38.622 81.2998 39.2867 81.2998 39.2881C80.4075 42.4816 75.4007 40.8044 76.6198 37.7305Z" fill="black"/>
<path d="M74.9115 58.29C74.9115 58.29 76.1255 59.4838 76.1269 59.4852C79.6349 62.9331 86.0704 59.931 85.3927 54.9966C85.0455 52.467 83.7829 50.2688 81.0708 49.7694L79.4878 49.4787C77.4461 49.104 75.3326 50.0136 74.1997 51.7524C72.856 53.8152 73.1553 56.565 74.9115 58.29ZM76.5321 53.2716C77.5012 51.7843 79.1203 52.2416 80.5692 52.5069C81.5948 52.6954 82.3797 53.5158 82.5218 54.5494C82.5218 54.5494 82.6312 55.3459 82.6349 55.3742C82.953 57.6935 79.6632 59.0576 78.0781 57.4993L76.8626 56.3048C76.0479 55.5047 75.9088 54.229 76.5321 53.2716Z" fill="black"/>
<path d="M52.2632 59.7084C51.8138 60.223 51.1361 60.518 50.4056 60.518C49.675 60.518 48.998 60.223 48.5479 59.7084C48.0021 59.0843 46.9969 59.0843 46.4518 59.7084C46.0017 60.223 45.3248 60.518 44.5942 60.518C43.8636 60.518 43.1859 60.223 42.7365 59.7084C42.2306 59.1293 41.3507 59.0706 40.7723 59.5765C40.1932 60.0824 40.1345 60.9616 40.6404 61.5407C41.6189 62.6597 43.0598 63.3019 44.5942 63.3019C45.6466 63.3019 46.6548 62.9997 47.4999 62.4488C48.345 62.9997 49.3532 63.3019 50.4056 63.3019C51.9399 63.3019 53.3808 62.6597 54.3593 61.5407C54.8652 60.9616 54.8065 60.0824 54.2274 59.5765C53.649 59.0706 52.7698 59.1293 52.2632 59.7084Z" fill="black"/>
</svg>
