<svg width="102" height="102" viewBox="0 0 102 102" fill="none" xmlns="http://www.w3.org/2000/svg">
<path d="M100.506 51C100.506 78.3412 78.3412 100.506 51 100.506C23.6588 100.506 1.49414 78.3412 1.49414 51C1.49414 23.6588 23.6588 1.49414 51 1.49414C78.3412 1.49414 100.506 23.6588 100.506 51Z" fill="#FF929F"/>
<path d="M45.8164 28.9498C56.0015 21.09 61.1072 9.90646 63.4302 3.06766C59.4582 2.04044 55.2933 1.49414 51 1.49414C23.6588 1.49414 1.49414 23.6588 1.49414 51C1.49414 78.3412 23.6588 100.506 51 100.506C53.049 100.506 55.07 100.381 57.0536 100.139C35.5372 82.0789 32.317 63.5337 33.7256 50.5681C34.6539 42.0243 39.0134 34.201 45.8164 28.9498Z" fill="#FF737D"/>
<path d="M66.0792 48.3915L77.5537 36.917C80.9832 33.4875 80.9832 27.8759 77.5537 24.4471C74.1242 21.0176 68.5126 21.0176 65.0831 24.4471L53.6086 35.9217C52.1681 37.3621 49.8327 37.3621 48.3915 35.9217L36.917 24.4471C33.4882 21.0176 27.8767 21.0176 24.4471 24.4471C21.0176 27.8759 21.0176 33.4875 24.4471 36.917L35.9217 48.3915C37.3621 49.832 37.3621 52.1681 35.9217 53.6086L24.4471 65.0831C21.0176 68.5126 21.0176 74.1242 24.4471 77.5529C27.8767 80.9825 33.4882 80.9825 36.917 77.5529L48.3915 66.0784C49.8327 64.638 52.1681 64.638 53.6086 66.0784L65.0831 77.5529C68.5126 80.9825 74.1242 80.9825 77.5537 77.5529C80.9832 74.1242 80.9832 68.5126 77.5537 65.0831L66.0792 53.6086C64.638 52.1681 64.638 49.832 66.0792 48.3915Z" fill="white"/>
<path d="M43.4461 30.9754L36.917 24.4463C33.4882 21.0168 27.8767 21.0168 24.4471 24.4463C21.0176 27.8758 21.0176 33.4874 24.4471 36.9169L34.3598 46.8296C35.7629 40.7729 38.9201 35.2485 43.4461 30.9754Z" fill="#BDFAFF"/>
<path d="M36.9169 77.5529L38.0578 76.4129C34.671 69.0908 33.4765 62.1633 33.4415 56.0879L24.4463 65.0831C21.0168 68.5126 21.0168 74.1242 24.4463 77.5529C27.8758 80.9825 33.4874 80.9825 36.9169 77.5529Z" fill="#CCF8FF"/>
</svg>
