<svg width="107" height="107" viewBox="0 0 107 107" fill="none" xmlns="http://www.w3.org/2000/svg">
<path d="M54.3653 51.1587L43.7659 54.7498L33.1134 65.4023L39.5062 69.1665L50.0811 65.4023L60.7344 54.7498L54.3653 51.1587Z" fill="#E8AFE5"/>
<path d="M35.3175 71.9436L22.4609 76.0555L11.8101 86.7064L16.1824 91.0787L28.7778 86.7064L39.4295 76.0555L35.3175 71.9436Z" fill="#E8AFE5"/>
<path d="M16.1827 91.0786L1.68031 97.3588C1.3301 98.4763 1.59867 99.7457 2.48441 100.631L6.3694 104.516C7.63881 105.785 9.69764 105.787 10.9671 104.517L18.1264 97.3588L16.1827 91.0786Z" fill="#E8AFE5"/>
<path d="M54.3653 51.1587L52.1465 51.9105L54.0535 52.5032C54.2649 52.5693 54.4306 52.7351 54.4967 52.9465L56.4037 59.0805L60.7344 54.7498L54.3653 51.1587Z" fill="#E894E4"/>
<path d="M67.4129 48.0712L60.7344 54.7497H43.7659L58.9287 39.5869L67.4129 48.0712Z" fill="#6EE4FF"/>
<path d="M50.0812 65.4023L39.4295 76.0556H22.4609L33.1134 65.4023H50.0812Z" fill="#6EE4FF"/>
<path d="M28.7777 86.7063L18.1252 97.3588H1.67993C1.83014 96.8747 2.09872 96.4167 2.4824 96.033L11.81 86.7063H28.7777Z" fill="#6EE4FF"/>
<path d="M67.4129 48.0712L58.9287 39.5869L47.9194 50.5961L54.0535 52.5031C54.2649 52.5693 54.4306 52.735 54.4967 52.9464L55.0576 54.7497H60.7344L67.4129 48.0712Z" fill="#61CAFF"/>
<path d="M104.076 40.5986L97.7366 32.1053C96.3692 30.2726 95.9913 27.884 96.7252 25.7182L100.129 15.6821C101.978 10.2281 96.7717 5.02145 91.3185 6.87128L81.2815 10.2746C79.1158 11.0085 76.7272 10.6306 74.8945 9.26317L66.4012 2.92425C61.7856 -0.519906 55.2254 2.82303 55.2989 8.58153L55.4344 19.1785C55.4638 21.4651 54.3658 23.6194 52.4988 24.9395L43.8456 31.0596C39.1443 34.3846 40.2961 41.6566 45.795 43.366L55.9161 46.5122C58.099 47.1906 59.8092 48.9008 60.4876 51.0845L63.6338 61.2048C65.3432 66.7037 72.616 67.8555 75.941 63.1542L82.0603 54.5009C83.3804 52.634 85.5347 51.5368 87.8213 51.5654L98.4191 51.7009C104.177 51.7743 107.52 45.2142 104.076 40.5986Z" fill="#FFE176"/>
<path d="M67.5329 17.9734L65.7884 19.7179C65.1762 20.3301 65.1762 21.3236 65.7884 21.9359C66.0945 22.242 66.4962 22.3955 66.8978 22.3955C67.2987 22.3955 67.7003 22.242 68.0064 21.9359L69.751 20.1914C70.364 19.5791 70.364 18.5856 69.751 17.9734C69.1387 17.3611 68.1452 17.3611 67.5329 17.9734Z" fill="black"/>
<path d="M85.0665 41.214C85.3726 41.5201 85.7743 41.6728 86.1751 41.6728C86.5767 41.6728 86.9784 41.5201 87.2845 41.214L89.029 39.4694C89.6413 38.8572 89.6413 37.8637 89.029 37.2514C88.4168 36.6392 87.4233 36.6392 86.811 37.2514L85.0665 38.996C84.4534 39.6082 84.4534 40.6009 85.0665 41.214Z" fill="black"/>
<path d="M74.3836 26.4006C73.5174 26.3419 72.7721 26.9958 72.7133 27.8603C72.599 29.5656 73.2489 31.2587 74.4962 32.5061C75.7093 33.7192 77.4236 34.4033 79.1412 34.2882C80.0057 34.2302 80.6596 33.4824 80.6009 32.6187C80.5429 31.7542 79.7943 31.1003 78.9314 31.1583C78.1298 31.2122 77.3216 30.8954 76.7142 30.2881C76.1069 29.6807 75.7893 28.8725 75.8432 28.0709C75.902 27.2064 75.2481 26.4586 74.3836 26.4006Z" fill="black"/>
</svg>
