<svg width="100" height="100" viewBox="0 0 100 100" fill="none" xmlns="http://www.w3.org/2000/svg">
<path d="M9.52391 98.5341C11.586 98.5341 13.6479 97.7476 15.221 96.1742L47.2708 64.1246C50.4173 60.9781 50.4173 55.8767 47.2706 52.73C44.1241 49.5835 39.0227 49.5837 35.8762 52.73L3.82684 84.7794C0.680355 87.9259 0.680359 93.0273 3.82704 96.174C5.39989 97.7474 7.462 98.5341 9.52391 98.5341Z" fill="#5B9675"/>
<path opacity="0.15" d="M2.53835 94.4924C15.3909 90.5643 25.2268 79.1643 28.78 72.741C29.3036 71.7944 29.1651 70.6121 28.4217 69.826C26.852 68.1655 25.4104 66.3824 24.1128 64.4932L35.7635 52.8424C38.9581 49.6479 44.2475 49.5869 47.3805 52.8422C50.4165 55.9967 50.3799 61.0153 47.2706 64.1244L15.221 96.1741C13.6477 97.7473 11.5858 98.534 9.5239 98.534C7.46199 98.534 5.39988 97.7475 3.82683 96.1741C3.31277 95.6602 2.88444 95.0936 2.53835 94.4924Z" fill="#2C6245"/>
<path d="M15.2211 96.1743C13.6479 97.7475 11.5859 98.5342 9.52402 98.5342C7.46211 98.5342 5.4 97.7477 3.82695 96.1743C0.680275 93.0278 0.680273 87.9264 3.82676 84.7797L9.79492 78.8118C13.5709 82.5877 17.743 86.7596 21.1895 90.2063L15.2211 96.1743Z" fill="#F8E47C"/>
<path opacity="0.15" d="M21.1895 90.206L15.2215 96.174C13.6482 97.7472 11.5863 98.534 9.52442 98.534C7.46251 98.534 5.4004 97.7474 3.82735 96.174C3.31349 95.6601 2.88516 95.0933 2.53907 94.4924C8.08223 92.7982 13.0637 89.714 17.2225 86.2386C18.6037 87.6203 19.9443 88.9609 21.1895 90.206Z" fill="#C97B00"/>
<path d="M60.3172 77.9026C39.21 77.9026 22.0992 60.7918 22.0992 39.6846C22.0992 18.5774 39.21 1.46667 60.3172 1.46667C81.4244 1.46667 98.5352 18.5774 98.5352 39.6846C98.5352 60.7918 81.4244 77.9026 60.3172 77.9026Z" fill="#72CDA2"/>
<path opacity="0.15" d="M60.3172 77.9017C46.1147 77.9017 33.7221 70.1542 27.1338 58.6552C74.1391 79.438 90.2078 25.7146 66.0633 1.89563C84.4443 4.66731 98.5352 20.5296 98.5352 39.6837C98.5352 60.7909 81.4244 77.9017 60.3172 77.9017Z" fill="#2C6245"/>
<path d="M60.3172 67.0141C45.2236 67.0141 32.9877 54.7783 32.9877 39.6846C32.9877 24.5909 45.2236 12.3551 60.3172 12.3551C75.4109 12.3551 87.6467 24.5909 87.6467 39.6846C87.6467 54.7783 75.4109 67.0141 60.3172 67.0141Z" fill="white"/>
<path d="M60.3168 12.3538C65.5264 12.3538 70.3952 13.812 74.5383 16.3417C58.045 12.234 35.2018 21.0084 34.3079 48.0965C33.4512 45.4461 32.9866 42.6198 32.9866 39.6842C32.9868 24.5899 45.2229 12.3538 60.3168 12.3538Z" fill="#F0F2FF"/>
<path d="M64.6422 23.2217C75.7177 23.2217 85.0172 30.8221 87.6117 41.0916C86.8791 55.5312 74.939 67.0139 60.3172 67.0139C56.1535 67.0139 52.2082 66.0812 48.6761 64.4158C43.9293 60.0832 40.9506 53.8461 40.9506 46.9129C40.951 33.8285 51.5578 23.2217 64.6422 23.2217Z" fill="#F8E47C"/>
<path d="M78.5962 55.4154C75.7528 55.4154 73.4478 53.5796 73.4478 51.3152C73.4478 49.0507 75.7528 47.215 78.5962 47.215C81.4396 47.215 83.7446 49.0507 83.7446 51.3152C83.7446 53.5796 81.4396 55.4154 78.5962 55.4154Z" fill="#E38892"/>
<path d="M50.689 55.4154C47.8456 55.4154 45.5405 53.5796 45.5405 51.3152C45.5405 49.0507 47.8456 47.215 50.689 47.215C53.5324 47.215 55.8374 49.0507 55.8374 51.3152C55.8374 53.5796 53.5324 55.4154 50.689 55.4154Z" fill="#E38892"/>
<path d="M64.6422 51.8948C66.7023 51.8948 68.3724 50.2246 68.3724 48.1645V45.4526C68.3724 44.8903 67.9166 44.4342 67.3541 44.4342H61.9303C61.3679 44.4342 60.9119 44.8901 60.9119 45.4526V48.1645C60.9119 50.2246 62.582 51.8948 64.6422 51.8948Z" fill="#495059"/>
<path opacity="0.15" d="M73.6802 25.0084C80.5355 27.8403 85.7683 33.7967 87.6111 41.1022C86.8732 55.5369 74.9355 67.0139 60.3173 67.0139C56.1568 67.0139 52.2144 66.0826 48.6845 64.4195C48.4687 64.2229 48.2556 64.0233 48.0472 63.8188C87.3595 70.6041 87.9019 36.691 73.6802 25.0084Z" fill="#C97B00"/>
</svg>
