<svg width="180" height="130" viewBox="0 0 180 130" fill="none" xmlns="http://www.w3.org/2000/svg">
<g filter="url(#filter0_d)">
<rect x="43" y="43" width="80" height="30" rx="15" fill="white"/>
</g>
<path d="M72.2072 54.116C72.9632 54.212 73.2392 54.74 73.4552 55.268C73.5392 55.472 73.6352 55.712 73.9592 55.712C74.2952 55.712 74.4632 55.424 74.4632 55.244C74.4632 54.932 74.2472 54.44 73.9232 54.068C73.3592 53.42 72.6392 53.324 72.2072 53.276V52.64C72.2072 52.532 72.2072 52.196 71.9072 52.196C71.6192 52.196 71.5952 52.508 71.5952 52.652V53.276C71.2592 53.312 70.6832 53.348 70.0832 53.756C69.6392 54.056 69.1712 54.68 69.1712 55.604C69.1712 56.096 69.3152 56.972 70.1312 57.44C70.5872 57.704 71.2712 57.896 71.5952 57.98V61.316C70.5992 61.172 70.2512 60.548 69.9992 59.72C69.9512 59.564 69.8672 59.276 69.4952 59.276C69.2552 59.276 68.9912 59.48 68.9912 59.78C68.9912 60.452 69.6032 62.024 71.5952 62.144V63.536C71.5952 63.98 71.5952 64.22 71.9072 64.22C72.0992 64.22 72.2072 64.136 72.2072 63.56V62.132C74.7152 61.892 74.7512 59.876 74.7512 59.6C74.7512 58.952 74.5112 58.352 74.0432 57.944C73.5752 57.536 72.5432 57.236 72.2072 57.128V54.116ZM71.5832 56.96C70.9232 56.768 70.1552 56.516 70.1552 55.544C70.1552 54.32 71.2232 54.092 71.5952 54.092L71.5832 56.96ZM72.2072 58.148C72.9152 58.376 73.7672 58.64 73.7672 59.708C73.7672 59.864 73.7672 61.076 72.2072 61.34V58.148ZM79.7969 54.2C79.7969 53.972 79.7969 53.408 79.3289 53.408C79.1129 53.408 79.0049 53.564 78.8609 53.78C78.2369 54.764 77.1449 55.34 76.8449 55.472C76.4009 55.676 76.3289 55.808 76.3289 55.988C76.3289 56.288 76.5689 56.42 76.7129 56.42C76.9289 56.42 77.4329 56.288 78.7529 55.184V61.424C78.7529 61.592 78.7529 62.144 79.2689 62.144C79.7969 62.144 79.7969 61.628 79.7969 61.34V54.2ZM83.4986 60.824C83.1386 60.824 82.8386 61.112 82.8386 61.484C82.8386 61.844 83.1266 62.144 83.4986 62.144C83.8586 62.144 84.1586 61.844 84.1586 61.484C84.1586 61.112 83.8586 60.824 83.4986 60.824ZM89.4414 54.2C89.4414 53.972 89.4414 53.408 88.9734 53.408C88.7574 53.408 88.6494 53.564 88.5054 53.78C87.8814 54.764 86.7894 55.34 86.4894 55.472C86.0454 55.676 85.9734 55.808 85.9734 55.988C85.9734 56.288 86.2134 56.42 86.3574 56.42C86.5734 56.42 87.0774 56.288 88.3974 55.184V61.424C88.3974 61.592 88.3974 62.144 88.9134 62.144C89.4414 62.144 89.4414 61.628 89.4414 61.34V54.2ZM96.8631 57.884C96.8271 58.424 96.7671 59.396 96.5151 60.032C96.0831 61.112 95.3151 61.352 94.8111 61.352C93.8871 61.352 93.5751 60.692 93.4311 60.296C93.3711 60.128 93.2631 59.852 92.9151 59.852C92.6151 59.852 92.4471 60.104 92.4471 60.284C92.4471 60.536 92.7831 62.144 94.7991 62.144C95.2551 62.144 96.2751 62.036 96.9831 61.136C97.7631 60.14 97.9191 58.832 97.9191 57.56C97.9191 55.904 97.5951 55.22 97.3551 54.8C97.0431 54.248 96.3351 53.408 94.9551 53.408C93.1551 53.408 92.1591 54.86 92.1591 56.312C92.1591 57.764 93.1431 59.012 94.6911 59.012C95.9991 59.012 96.6471 58.16 96.8631 57.884ZM94.9071 54.224C96.0231 54.224 96.7071 55.256 96.7071 56.312C96.7071 57.752 95.5551 58.196 94.9071 58.196C94.0071 58.196 93.2391 57.512 93.2391 56.276C93.2391 55.172 93.8871 54.224 94.9071 54.224Z" fill="#212121"/>
<defs>
<filter id="filter0_d" x="0" y="0" width="180" height="130" filterUnits="userSpaceOnUse" color-interpolation-filters="sRGB">
<feFlood flood-opacity="0" result="BackgroundImageFix"/>
<feColorMatrix in="SourceAlpha" type="matrix" values="0 0 0 0 0 0 0 0 0 0 0 0 0 0 0 0 0 0 127 0"/>
<feOffset dx="7" dy="7"/>
<feGaussianBlur stdDeviation="25"/>
<feColorMatrix type="matrix" values="0 0 0 0 0 0 0 0 0 0 0 0 0 0 0 0 0 0 0.06 0"/>
<feBlend mode="normal" in2="BackgroundImageFix" result="effect1_dropShadow"/>
<feBlend mode="normal" in="SourceGraphic" in2="effect1_dropShadow" result="shape"/>
</filter>
</defs>
</svg>
