<svg width="180" height="130" viewBox="0 0 180 130" fill="none" xmlns="http://www.w3.org/2000/svg">
<g filter="url(#filter0_d)">
<rect x="43" y="43" width="80" height="30" rx="15" fill="#7024D4"/>
</g>
<path d="M80.956 60.356L79.312 54.284C79.144 53.648 79.072 53.372 78.388 53.372C77.8 53.372 77.704 53.72 77.56 54.284L75.916 60.356L74.38 54.056C74.284 53.6 74.2 53.264 73.756 53.264C73.42 53.264 73.216 53.552 73.216 53.768C73.216 53.936 73.3 54.248 73.312 54.308L75.1 61.172C75.256 61.772 75.352 62.144 75.88 62.144C76.42 62.144 76.516 61.772 76.684 61.196L78.436 54.74L80.188 61.196C80.356 61.784 80.452 62.144 80.992 62.144C81.52 62.144 81.616 61.76 81.772 61.172L83.56 54.308C83.572 54.236 83.656 53.936 83.656 53.768C83.656 53.552 83.464 53.264 83.104 53.264C82.672 53.264 82.588 53.612 82.492 54.056L80.956 60.356ZM88.3394 61.124C88.4594 61.568 88.6274 62.144 89.0354 62.144C89.3114 62.144 89.5394 61.94 89.5394 61.736C89.5394 61.544 89.4314 61.256 89.4194 61.196C89.3474 61.004 89.2514 60.74 89.2514 60.164C89.2514 59.888 89.2874 58.52 89.2874 58.208C89.2874 56.768 89.1314 55.64 86.7554 55.64C84.4994 55.64 84.0914 56.972 84.0914 57.332C84.0914 57.584 84.3074 57.776 84.5594 57.776C84.8834 57.776 84.9674 57.548 85.0754 57.272C85.3394 56.624 86.1074 56.408 86.8274 56.408C88.1954 56.408 88.2194 57.188 88.2434 58.016C87.9674 58.112 87.8354 58.148 87.6554 58.196C87.4154 58.256 86.1794 58.472 85.9034 58.532C85.1714 58.676 83.8634 58.952 83.8634 60.368C83.8634 61.244 84.4994 62.144 85.8794 62.144C87.2354 62.144 88.0154 61.436 88.3394 61.124ZM88.2554 58.76C88.2554 59.456 88.2314 60.02 87.9914 60.428C87.6314 61.052 86.7794 61.328 86.1194 61.328C85.2554 61.328 84.9314 60.728 84.9314 60.296C84.9314 60.056 85.0394 59.552 85.7354 59.36C86.2274 59.228 86.8154 59.144 87.5594 58.976C87.8834 58.904 88.0994 58.82 88.2554 58.76ZM91.4003 55.784H91.1003C90.9683 55.784 90.5363 55.784 90.5363 56.156C90.5363 56.18 90.5363 56.54 91.0043 56.54H91.4003V60.32C91.4003 61.088 91.4003 62.108 92.8643 62.108C93.5123 62.108 94.0403 62 94.0403 61.592C94.0403 61.352 93.8843 61.22 93.6803 61.22C93.5963 61.22 93.1643 61.292 93.0683 61.292C92.4803 61.292 92.4443 60.86 92.4443 60.236V56.54H93.0323C93.3563 56.54 93.6443 56.432 93.6443 56.156C93.6443 55.784 93.2483 55.784 92.9963 55.784H92.4443V54.668C92.4443 54.224 92.4443 53.744 91.9163 53.744C91.7123 53.744 91.5443 53.876 91.4843 53.984C91.4003 54.14 91.4003 54.272 91.4003 54.728V55.784ZM100.133 60.176C100.133 59.876 99.8814 59.696 99.6534 59.696C99.3174 59.696 99.1854 60.092 98.9934 60.44C98.6694 61.016 98.0574 61.328 97.3974 61.328C96.2214 61.328 95.4894 60.404 95.4894 58.856C95.4894 57.38 96.2574 56.456 97.4214 56.456C98.4774 56.456 98.8854 57.176 99.0414 57.44C99.2814 57.848 99.4134 57.86 99.5454 57.86C99.7854 57.86 100.013 57.668 100.013 57.404C100.013 56.888 99.2814 55.64 97.4094 55.64C95.0574 55.64 94.4454 57.464 94.4454 58.904C94.4454 59.828 94.6734 60.428 94.8894 60.812C95.1894 61.34 95.8254 62.144 97.4574 62.144C99.4734 62.144 100.133 60.524 100.133 60.176ZM106.563 58.004C106.563 57.68 106.563 56.9 106.131 56.396C105.711 55.916 105.171 55.64 104.415 55.64C103.419 55.64 102.891 56.132 102.459 56.672V54.128C102.459 53.708 102.459 53.264 101.919 53.264C101.415 53.264 101.415 53.72 101.415 54.128V61.28C101.415 61.676 101.415 62.144 101.919 62.144C102.411 62.144 102.459 61.82 102.459 61.292V59.216C102.459 57.92 102.579 57.656 102.747 57.344C103.023 56.816 103.635 56.492 104.223 56.492C104.655 56.492 105.099 56.696 105.327 57.08C105.495 57.368 105.519 57.908 105.519 58.256V61.28C105.519 62.012 105.687 62.144 106.023 62.144C106.395 62.144 106.563 62 106.563 61.28V58.004Z" fill="white"/>
<path d="M63.4265 57.1258C64.1123 57.5068 64.1123 58.4932 63.4265 58.8742L57.4856 62.1746C56.8191 62.5449 56 62.063 56 61.3005L56 54.6995C56 53.937 56.8191 53.4551 57.4856 53.8254L63.4265 57.1258Z" fill="white"/>
<defs>
<filter id="filter0_d" x="0" y="0" width="180" height="130" filterUnits="userSpaceOnUse" color-interpolation-filters="sRGB">
<feFlood flood-opacity="0" result="BackgroundImageFix"/>
<feColorMatrix in="SourceAlpha" type="matrix" values="0 0 0 0 0 0 0 0 0 0 0 0 0 0 0 0 0 0 127 0"/>
<feOffset dx="7" dy="7"/>
<feGaussianBlur stdDeviation="25"/>
<feColorMatrix type="matrix" values="0 0 0 0 0 0 0 0 0 0 0 0 0 0 0 0 0 0 0.05 0"/>
<feBlend mode="normal" in2="BackgroundImageFix" result="effect1_dropShadow"/>
<feBlend mode="normal" in="SourceGraphic" in2="effect1_dropShadow" result="shape"/>
</filter>
</defs>
</svg>
