<svg width="1260" height="751.9999999999999" xmlns="http://www.w3.org/2000/svg">

 <g>
  <title>background</title>
  <rect fill="none" id="canvas_background" height="402" width="582" y="-1" x="-1"/>
 </g>
 <g>
  <title>Layer 1</title>
  <path id="svg_1" fill="black" d="m-0.01001,751.77l0,-751.77l1259.87001,0l0,751.77l-1259.87001,0zm974.07001,-51.82c-0.21,-1.68 -0.29,-2.84 -0.5,-4c-3.293,-18.493 -5.102,-37.219 -5.41,-56c-0.413,-19.801 1.165,-39.594 4.71,-59.08c5.34,-29.68 15.64,-57.27 34,-81.52c0.84,-1.12 1.48,-2.4 2.31,-3.77c-17.467,-6.064 -35.712,-9.6 -54.18,-10.5c-19.21,-1.06 -38.18,1.23 -56.88,5.76c-18.47,4.47 -21,6.31 -30,23c-13.71,25.46 -17.63,53 -17.12,81.47c0.14,1.004 0.518,1.96 1.1,2.79c-0.49,2.47 -1.06,4.07 -1.07,5.68c0,7.49 0.36,15 0.17,22.48c-0.33,12.73 0.73,25.64 -4.28,38c10.74,13.63 21.42,27.25 32.23,40.76c1.115,1.41 2.69,2.383 4.45,2.75c9.71,1.22 19.46,3 29.19,2.92c11.616,-0.199 23.205,-1.174 34.69,-2.92c9.186,-1.349 18.136,-3.982 26.59,-7.82zm-430.85,-637.79c1,-12.23 8,-20.41 18.47,-25.88c24.46,-12.75 52.84,-6.44 69.37,15.19l13.87,0c-3.27,-16.15 -6.48,-32 -9.73,-48.08l-89.67,0c-13.92,7.82 -26.62,15.86 -40.1,22.28c-15.55,7.42 -31.8,13.35 -47.7,20c-6.09,2.56 -12,5.41 -18.38,8.28c8.27,59.33 17.59,117.78 30.1,176.18c26.93,-5.1 53.27,-10.72 79.74,-17.15c-3.52,-30 -1.27,-58.82 10.09,-87c-2.25,0 -3.74,0 -5.23,0c-12.995,-0.347 -25.76,-3.502 -37.42,-9.25c-5.38,-2.71 -10.33,-6.05 -13.89,-11.13c-6,-8.56 -5.34,-18.36 1.94,-25.91c5.225,-5.4162 11.692,-9.4768 18.84,-11.83c6.29,-2.12 12.75,-3.72 19.7,-5.7zm346.69,304.31l36.35,34.34c12.89,-2.65 24.17,-8 33.74,-16.61c23.846,4.338 48.31,3.927 72,-1.21c21,15.47 45,19.84 71.17,20.09c-25.85,-38.45 -47.22,-78.24 -61.07,-121.94c-37.12,5.37 -73.813,13.411 -109.78,24.06c-15.202,19.665 -29.358,40.117 -42.41,61.27zm-505.91,112.88c-32.05,-10.7 -64.54,-14.26 -97.83,-8.31c-20.845,3.563 -40.992,10.412 -59.69,20.29c1,12.53 4.84,23.39 12.31,32.76c7.47,9.37 15.22,18.94 23.18,28.11c12.47,14.38 24.38,29.07 31.22,47.16c0.09,0.24 0.51,0.36 1,0.72c33.1,-13.37 67.76,-21.12 102.89,-24.37c-4.42,-32.38 -8.76,-64.24 -13.08,-96.36zm238.66,-283.63c4.16,22 4.5,43.83 2.47,65.81c-2.196,22.108 -6.708,43.924 -13.46,65.09l96.21,5.12l36.83,-97.19c-19.05,-21.34 -35.43,-45.35 -50.5,-69.86c-11.83,5.72 -23.15,11.65 -34.83,16.71c-11.85,5.14 -24.07,9.43 -36.72,14.32zm389.39,302.54c-1.2,1.37 -1.88,2.09 -2.49,2.86c-8.86,11.46 -16.06,24.111 -21.39,37.58c-11.75,28.86 -16.58,59.17 -16.73,90.11c-0.08,17.26 1.58,34.55 2.84,51.8c0.47,6.39 2,12.7 3.06,18.73c22.34,8.87 75.94,8.14 90.65,-1c-24.73,-38.78 -20.45,-77.12 2.08,-115.15c-16.66,-30.02 -36.13,-57.9 -58.02,-84.93zm-877.64,59.91c26.13,-27.51 54.89,-51.45 88.51,-68.83c-1.22,-34.36 11.21,-64.55 26.72,-95.18c-38.46,12.51 -75.31,8.55 -111.95,-2.18c-0.256,0.522 -0.47,1.064 -0.64,1.62c-4.32,21 -9.34,41.76 -16.08,62.11c-6,18 -11.77,36.07 -22.14,52.17c-3.67,5.7 -7.73,11.14 -11.59,16.66c9.06,9.41 34.47,27.55 47.17,33.63zm530.59,-59.85c-9,22.46 -21,42.07 -34.47,61c27.53,39.92 55.41,78.9 84.06,117.34l39.82,-66.58c-0.75,-0.65 -1.45,-1.33 -2.24,-1.91c-9,-6.68 -17.6,-13.72 -24.88,-22.27c-4,-4.65 -6.9,-9.79 -7.82,-15.91c-1.1,-7.37 3.08,-11.38 10.25,-9.63c3.856,0.915 7.629,2.149 11.28,3.69c9.76,4.22 19.4,8.71 29.09,13.08c1.62,0.73 3.29,1.38 5.07,2.13l16.27,-23.51c-17.336,-16.854 -33.256,-35.106 -47.6,-54.57c-13.09,5.53 -26.38,7.5 -39.93,7.33c-13.55,-0.17 -26.82,-1.9 -38.9,-10.19zm-449.53,-271.21c-0.22,-1.45 -0.35,-2.94 -0.66,-4.38c-5.094,-24.097 -11.585,-47.877 -19.44,-71.22c-6,-17.5 -12.84,-34.63 -22.21,-50.65c-1.31,-2.23 -2.73,-4.38 -4.31,-6.89c-14.89,30 -33.52,57.23 -44.93,87.87l-6.49,1.11c-19.53,3.3 -38.25,9 -55.2,19.52c-5.4811,3.47 -10.6565,7.401 -15.47,11.75c-5.15,4.56 -5.11,9.9 -0.3,14.82c2.0199,1.976 4.2732,3.699 6.71,5.13c7.3,4.53 15.39,7.11 23.68,9c31.75,7.29 63.7,7.71 95.75,2.27c10.85,-1.84 21.53,-4.4 31.42,-9.48c4.3,-2.22 8.45,-4.66 11.45,-8.85zm348,-103.34c1.47,9.88 7.41,17.11 16.22,22.19c7.674,4.492 16.418,6.828 25.31,6.76c15.51,-0.08 29.11,-4.84 39,-17.65c11.34,2.47 22.6,4 34.61,1.4c-13.228,-26.094 -24.011,-53.357 -32.21,-81.44l-17.6,0c-4.24,-7.37 -6.37,-9.83 -11.44,-13.37c-16,-11.11 -42.21,-11.1 -58.16,0c-5.63,3.92 -10,8.87 -11.65,15.67c-0.485,2.6706 -0.799,5.3694 -0.94,8.08c-1.16,0.21 -2.28,0.45 -3.4,0.62c-8.079,1.1578 -15.939,3.5172 -23.32,7c-5.75,2.77 -11.06,6.2 -14.78,11.57c-4.21,6.09 -4.39,12.69 0.16,18.52c2.517,3.085 5.448,5.808 8.71,8.09c6.309,4.417 13.53,7.36 21.13,8.61c9.08,1.66 18.35,2.6 28.35,3.95l0.01,0zm-428.47,264.26c1.07,-7.69 1.86,-15.46 3.31,-23.1c1.78,-8.368 0.521,-17.096 -3.55,-24.62c-1.593,-3.108 -3.346,-6.132 -5.25,-9.06c-10.12,-15 -23.46,-26.7 -38.11,-37c-4.17,-2.94 -8.49,-5.66 -12.61,-8.4c-11.51,7.1 -23.63,10.91 -36.31,13.24c-12.8159,2.526 -25.9119,3.326 -38.94001,2.38l0,85c36.86001,18.67 86.80001,19.87 131.46001,1.56zm650.3,-226.18c-13.93,23.64 -25.42,47.91 -36.36,72.76c32,34.63 67.6,65.23 102.8,97.29c20.84,-30.28 39.28,-61.17 50.45,-96.3c-47.1,-12.18 -86.37,-35.65 -116.89,-73.75zm315.09,-43.46c0.21,-0.757 0.34,-1.535 0.38,-2.32c-2.67,-17.59 -9.8,-33.08 -22.19,-46c-11.61,-12.06 -25.92,-19.53 -41.88,-24.1c-1.52,-0.44 -3,-1 -4.83,-1.56c0.74,-1.25 1.2,-2.13 1.76,-2.94c0.73,-1.1064 1.53,-2.1745 2.37,-3.2c15.93,-18.8 36.67,-25.47 60.61,-23.79c5.39,0.38 10.74,1.38 16.58,2.16c-2.26,-5.6 -5.12,-10.12 -9.75,-13.53c-22.82,0 -45.64,0.13 -68.46,-0.1c-4.85,-0.20053 -9.6,1.39458 -13.35,4.48c-3.22,2.63 -6.64,5.18 -9.24,8.37c-6.5,8 -12.6,16.3 -18.82,24.52c-1.14,1.5 -2.12,3.13 -3.66,5.42c-2.91,-14.91 -4.81,-29.2 -10.23,-42.22l-60.15,0c0.432,0.74508 0.924,1.45405 1.47,2.12c7.14,7 11.3,15.54 13.2,25.22c1,5.19 1,10.63 2.39,15.7c4,14.74 10.61,28.35 20.44,40.17c8.41,10.11 18.58,17.7 32,19.65c7.29,1.06 14.83,1.54 21.54,-2c21.22,-11.15 42.6,-11.23 64.34,-1.94c9.26,3.956 17.85,9.316 25.48,15.89zm-585.61,273.48c-15.905,6.346 -32.82,9.784 -49.94,10.15c-17.31,0.46 -34.13,-2.43 -51.69,-7.67c8.41,26.75 25.47,47.51 35.8,71.65c10.51,-5.16 20.28,-10.15 30.21,-14.78c10.85,-5 21.91,-9.63 34,-10.91c9,-1 17.55,0.24 25.36,7.12c-0.34,2.58 -0.12,5.71 -1.23,8.26c-2.505,5.974 -5.471,11.745 -8.87,17.26c-10.93,17.2 -24.12,32.65 -38.09,47.44c-7.54,8 -15.16,15.87 -23.38,24.47c1.72,6.63 5,13.78 8.87,20.9c2.53,-0.91 4.73,-1.62 6.86,-2.49c13.7,-5.56 27.32,-11.31 41.08,-16.68c6.27,-2.45 12.68,-5.19 19.77,-2.34c15.17,-17.3 26.47,-36.76 35.17,-56.59l-52.2,-92.56l-11.72,-3.23zm741.81,-10.79l0,-109.13c-20.15,-2.766 -40.46,-4.103 -60.8,-4c-11.66,23.928 -24.58,47.221 -38.71,69.78c-14.32,22.597 -30,44.304 -46.95,65c17.06,-0.81 40.92,-4.29 62.1,-19.85c13.74,3.101 27.81,4.511 41.9,4.2c14.39,-0.21 28.5,-1.79 42.46,-6zm-962,222.32c7.39,27.2 3.3,53.73 -4.18,80.25c30.89,11.66 61.8,12.86 93.37,7l35.26,-45c-8.852,-21.643 -15.707,-44.049 -20.48,-66.94c-35.99,3.42 -70.49,10.79 -103.99,24.69l0.02,0zm492.3,-444.53c30.18,38.08 69.11,61.66 116.48,73.79c1.25,-7.47 2.75,-14.1 3.38,-20.82c0.751,-7.461 -0.087,-14.997 -2.46,-22.11c-2.901,-8.301 -4.935,-16.88 -6.07,-25.6c-2.4,-20.72 0.49,-40.8 9.76,-59.72c0.453,-1.114 0.843,-2.253 1.17,-3.41c-17.21,-6.5 -34.44,-8.43 -52.12,-4.55c-19,4.18 -34.55,14.15 -47.11,29c-8.74,10.29 -15.82,21.71 -23.03,33.42zm-562,482.73c10.83,-7.65 20.83,-15.43 31.52,-22.07c10.69,-6.64 22.29,-12.28 33.78,-18.52c-0.92,-2.38 -1.77,-4.89 -2.86,-7.29c-5.62,-12.41 -13.83,-23.07 -22.58,-33.37c-9,-10.53 -17.91,-21 -26.66,-31.74c-6.509,-7.836 -11.043,-17.119 -13.22,-27.07c-0.61,-2.82 -1.29,-5.63 -2,-8.55c-26,12.46 -79.27,54.88 -84.88,67.59c34.55,21.21 62.1,49.93 86.94,81.02l-0.04,0zm820.34,-360.81c14,44 35.3,83.47 61,121.29c34.51,-41.11 62.31,-85.81 85.94,-134.22c-49.25,0.031 -98.4,4.357 -146.9,12.93l-0.04,0zm-932.74,403.48c27.12,7.1 53.51,7 77.4,-1.71l32.62,-38.94c-24.8,-31.24 -52.46,-59.93 -87.55,-81.27c-18.625,20.129 -35.5248,41.789 -50.52,64.75c13.84,16.99 22.19,36.22 28.05,57.17zm1065.71,-192.64c-27.17,16.48 -52.84,34.17 -75.52,56.68c28.3,25 52.11,53.43 73.89,84.44c9.27,-15.038 21.17,-28.288 35.13,-39.12c13.77,-10.67 29.21,-18.28 45.12,-24.6l0,-12.7c-27.88,-19.454 -54.17,-41.088 -78.62,-64.7zm-163.2,2.6c32.38,12.23 59.94,30.2 85.27,51.89c22.83,-22.17 48.25,-40.17 75.73,-56.7c-25.75,-25.224 -49.15,-52.737 -69.91,-82.2c-1.25,1.4 -1.91,2.15 -2.57,2.9c-12.48,14.14 -26.38,26.81 -40.41,39.36c-14.27,12.77 -28.33,25.76 -42.44,38.7c-1.84,1.65 -3.38,3.57 -5.67,6.05zm125.44,-325.39c21.44,-19.94 42.85,-60.87 47.26,-85.31c-29.71,-14.82 -53.34,-36.88 -72.78,-62.9c-38.28,-9.85 -66.94,4.18 -77.51,22c0.27,0.1831 0.56,0.3436 0.86,0.48c1.72,0.61 3.44,1.19 5.16,1.79c32.76,11.58 53.44,33.73 59.89,68.36c0.72,3.86 0.93,8.08 2.68,11.45c8.66,16.73 21,30.7 34.43,44.13l0.01,0zm-853,140l6.45,-38.72l50.57,0c2.31,-21.94 4.56,-43.33 6.83,-64.87l-6.08,0c-3.91,3.84 -7.91,7.49 -12.58,9.82c-15.76,7.88 -32.63,8.53 -49.63,6.34c-10.65,-1.36 -20.67,-4.78 -29.18,-11.38c-0.581,0.162 -1.141,0.391 -1.67,0.68c-9.496,7.328 -20.081,13.125 -31.37,17.18c-1.102,0.341 -2.095,0.965 -2.88,1.81c-5.15,6.33 -12.21,9.58 -19.58,12.39c-1.36,0.51 -2.66,1.18 -3.75,1.67c-2.66,19 8.89,40.77 29.52,56.06l63.35,9.02zm-284.01001,120.24c23.21001,33.88 49.69001,65.5 80.91001,93.4c1.37,-1.59 2.4,-2.66 3.28,-3.85c8.18,-11 15.3,-22.57 20.31,-35.37c10,-25.54 17.56,-51.81 23.73,-78.49c0.91,-4 1.53,-8 2.45,-12.82c-21.78,7.95 -43.26,12.38 -65.6,12.47c-22.57,0.09 -43.94,-5.25 -65.08001,-14.24l0,38.9zm433.06001,-373c-19.572,11.3807 -37.159,25.8739 -52.07,42.91c-1.75,8.13 -2.62,14.78 -4.67,21c-2.05,6.22 -5.36,12.38 -7.89,18c8.26,3.22 16.84,6.29 25.18,9.92c5.891,2.439 10.962,6.508 14.62,11.73c4.85,7.09 4.83,15 -0.61,21.7c-2.37,2.92 -5.49,5.26 -8.44,7.67c-1.985,1.481 -4.044,2.859 -6.17,4.13c-1.44,16.71 -2.94,33.16 -4.44,50.35l74.37,-12.62c-12.37,-57.92 -21.69,-115.72 -29.88,-174.78l0,-0.01zm741.58,431l78.49,-39.95l0,-62.58c-28.11,7.37 -55.94,7.45 -83.9,1.74c-18.6,13.41 -40.06,18.29 -63.34,20c20.37,29.001 43.39,56.053 68.75,80.81l0,-0.02zm-467.95,189.51c-27.62,-38.59 -54.68,-76.4 -82,-114.48c-21.44,28.14 -46.73,52.29 -74.64,74.14c16.81,15.53 32,31.59 44.67,50.48c17.42,-8.67 35.76,-12.1 54.61,-13.38c19.06,-1.28 37.89,0.6 57.36,3.24zm-666.53,-464.57c20.68,-19 45.83,-27.37 73.09,-32.75c-1.34,-1.1 -2,-1.74 -2.77,-2.26c-12.188,-8.496 -22.8654,-18.975 -31.59,-31c-14.62,-19.83 -23.74,-42.2 -30.22,-65.79c-0.47,-1.72 -1,-3.41 -1.47,-4.93c-14.81,-1.7 -36.13,2.54 -46.83001,9.21l0,117.34c12.56631,5.693 26.03351,9.139 39.79001,10.18zm1169.14,11.25c-26.61,-13.61 -50.48,-29.72 -71.87,-49.59c-11.77,11.738 -24.86,22.083 -39,30.83c-13.94,8.7 -29,15.19 -44.54,21.56l20.92,46.17c38.73,-4.49 77,-7.82 115.69,-7.36l18.8,-41.61zm-830.09,252.28c0.163,-0.729 0.284,-1.467 0.36,-2.21c-0.007,-0.671 -0.071,-1.34 -0.19,-2c-2.62,-16.07 -9,-30.21 -21.38,-41.16c-13.94,-12.37 -28,-24.56 -42.17,-36.93c-21.68,6.32 -43.31,6 -64.94,-0.31c-1.8,3.26 -3.49,6.1 -5,9.05c-11.4,22.33 -20.35,45.5 -22.91,70.68c-0.47,4.67 -0.06,9.42 -0.06,14.84c50.83,-24.72 102.76,-29.35 156.29,-11.96zm628.66,-368c11.81,40 28.43,77.5 44.63,115.14c27.74,-8.33 71.24,-35.68 82.14,-51.55c-0.83,-0.93 -1.67,-1.94 -2.59,-2.87c-12.93,-13.07 -24.48,-27.18 -33.27,-43.42c-0.75,-1.29 -1.73,-2.429 -2.89,-3.36c-13.94,-11.58 -29.32,-20.12 -47.71,-22.09c-13.93,-1.52 -27.08,1.03 -40.31,8.12l0,0.03zm-86.45,297.09c-1,0.09 -2.1,0.2 -3.25,0.33c-1.15,0.13 -2,0.27 -3,0.39c-15.57,1.86 -30.93,1 -45.67,-4.59c-4.167,-1.698 -8.833,-1.698 -13,0c-2.489,0.914 -4.929,1.955 -7.31,3.12c-11.77,6 -21.28,14.79 -30,24.46c-11.48,12.72 -22.69,25.69 -34,38.57c-0.371,0.626 -0.657,1.299 -0.85,2c11.67,5.78 23,11.61 34.57,17.07c7.49,3.54 15.15,6.75 22.9,9.7c11.54,4.4 22.79,3.3 33.83,-2.92c4.737,-9.601 10.796,-18.49 18,-26.41c13.12,-14.34 28.39,-26.06 44.49,-36.8c1.6,-1.07 3.16,-2.2 4.3,-3l-21.01,-21.92zm-321.19,-78.47l0.48,-1c-13.4,-15.7 -25.4,-32.35 -34.85,-50.7c-9.458,-18.212 -16.046,-37.776 -19.53,-58l-79.61,17c6.86,29.18 13.39,58.24 24.47,86.2l109.04,6.5zm364.41,-204.59c-30.9,12.23 -51.13,33.11 -58,65.73c-0.52,2.917 -0.752,5.878 -0.69,8.84c-0.06,6.63 0.46,13.29 0,19.87c-0.42,5.7 -1.9,11.32 -2.91,16.94c22.31,7.52 88.34,8.44 103.5,1.39c-1.31,-6.57 -2.57,-13.23 -4,-19.85c-5,-23.31 -11.68,-46.06 -22.1,-67.57c-4.218,-9.06 -9.524,-17.572 -15.8,-25.35zm-767.75,-118l-154.32,0c-0.2821,22.1497 2.0677,44.2546 7,65.85c15.69,-8.91 32,-12.48 49.28,-12.78c15.3,-0.23 30.13,1.94 44.29,8c9.6,4.11 17.52,10 22.3,20.57c11.8,-26.99 21.87,-53.92 31.45,-81.64zm990.89,81.59c-9.6,32.45 -25,61.38 -47.94,85.92c15.55,16.74 55.74,43.49 70.78,48.52c16.75,-40.656 31.04,-82.285 42.79,-124.66c-23.32,3.29 -44.6,-0.78 -65.63,-9.78zm-117.31,498.42c20.81,38.39 35.86,78.62 41.68,122.31c13.56,-0.11 26.4,-1.75 38.87,-6.12c2.44,-22.515 9.33,-44.322 20.27,-64.15c-21.71,-31.33 -45.77,-60 -74.09,-84.93c-8.12,7.13 -20.16,21.97 -26.73,32.89zm-952.6,-405.9c0.78,-1.54 1.31,-2.55 1.82,-3.57c6.32,-12.82 12.42,-25.76 19,-38.44c7.13,-13.73 14.62,-27.26 22.15,-40.73c1.045,-1.7075 1.585,-3.6764 1.556,-5.6782c-0.028,-2.0017 -0.623,-3.9545 -1.716,-5.6318c-1.68,-2.82 -3.57,-5.83 -6.12,-7.74c-4.48,-3.4134 -9.303,-6.3525 -14.39,-8.77c-9.14,-4.28 -19,-6 -29,-6.76c-17,-1.36 -33.6,0.25 -49.47,6.82c-3.9,1.62 -7.5,4 -11.2,6c11.07,42.64 29.07,79.91 67.37,104.5zm1135.39,570.36l0,-174.86c-25.61,5.12 -69.42,40.65 -77.71,63l4.85,7.38c14.41,21.951 27.36,44.82 38.79,68.46c2.84,5.825 6.19,11.389 10,16.63c6,8.631 14.36,15.36 24.07,19.39zm-539.3,-70.26c41.759,8.015 82.455,20.82 121.28,38.16c13,-2.37 25.67,-4.36 38.4,-8.39c-2.3,-2.94 -4.23,-5.43 -6.18,-7.9c-7.09,-9 -14.55,-17.81 -21.17,-27.17c-5.46,-7.71 -12.47,-12.95 -20.58,-17.57c-21.1,-12 -41.86,-24.58 -62.73,-37c-3,-1.78 -5.81,-3.83 -9.42,-6.23l-39.6,66.1zm-165.66,-44.07c27.77,-21.81 53.43,-46 74.68,-74.49c-15.24,-23.14 -30.11,-45.7 -45.42,-68.93c-9.159,20.783 -21.333,40.101 -36.13,57.33c1.31,7.48 -1.56,13.71 -6,19.39c-1.844,2.574 -3.93,4.965 -6.23,7.14c-7.67,6.64 -15.52,13.07 -23.34,19.54c-1.86,1.54 -3.84,2.92 -5.47,4.15l47.91,35.87zm-231.28,-243.93c4.23,-3.38 8.34,-1 12.64,0.07c6.594,1.657 13.27,2.972 20,3.94c13.054,1.618 26.276,1.281 39.23,-1c5.62,-0.95 11.14,-2.55 16.68,-3.85c-0.421,-2.911 -0.695,-5.841 -0.82,-8.78c0.16,-15.19 5.44,-28.65 14.68,-40.46c6.14,-7.84 13,-15.12 20.06,-23.3c0.91,-10.9 1.89,-22.77 2.91,-35.06l-57.69,-4.36l-8.86,13.84c7.3,11.31 4.4,24.63 -11.85,28.54c-14.86,23.78 -33.49,42.64 -62.43,48.58c3.873,8.104 9.098,15.489 15.45,21.84zm710.66,-3.34c-27.26,11.03 -53.551,24.316 -78.6,39.72l59.74,66.11c0.57,-0.408 1.11,-0.856 1.62,-1.34c12,-13.51 25.74,-25.11 39.3,-36.93c15.83,-13.8 31.54,-27.72 45.66,-43.31c1.06,-1.17 2,-2.44 3.68,-4.47c-26.01,-0.13 -49.74,-5.14 -71.4,-19.78zm-673,-344.13c-22.79,-19.8 -48.23,-26.32 -76.66,-16.37c-24.74,8.62 -39.8,26.79 -47.65,52c4,0.36 7.29,0.74 10.59,0.94c12.448,0.6497 24.777,2.7642 36.73,6.3c13.56,4.13 26.69,9.24 37.34,19.17c5.29,4.92 8.94,10.75 10.09,17.9c0.43,2.68 0.07,5.48 0.07,9.16c1.9,-1.63 3.24,-2.39 4.05,-3.53c3.94,-5.52 8.49,-10.78 11.46,-16.8c10.57,-21.54 13.45,-44.68 13.94,-68.77l0.04,0zm39.38,146.5c3.14,-2.37 5.79,-4 8,-6.13c8.7,-8.09 8.65,-16.77 -0.07,-24.92c-5.32,-5 -11.67,-8.25 -18.42,-10.74c-17.69,-6.54 -36.08,-8.86 -54.84,-9.19c-4.967,-0.142 -9.844,1.351 -13.88,4.25c-16.37,11.17 -30.26,25 -43,40c-6.76,8 -13,16.33 -19.68,24.69c3.933,3.663 8.654,6.376 13.8,7.93c16.879,5.551 35.028,5.959 52.14,1.17c8.5,-2.28 16.28,-5.92 21.36,-13.49l8.59,-1.06c0.9,-7.75 1.75,-15.1 2.65,-22.85l43.31,4.47l0.04,5.87zm-164.34,-107.48c-3.55,16.6 -3.07,32.37 -0.83,48.1c3.64,25.44 11.17,49.78 21.44,74.07l2.59,-3.26c4.62,-5.9 9.07,-11.94 13.89,-17.68c14.82,-17.7 30.94,-34 50.64,-46.42c1.845,-1.338 3.192,-3.252 3.83,-5.44c2.42,-8.16 -0.56,-15.06 -5.89,-21.13c-6.28,-7.17 -14.33,-11.86 -22.92,-15.64c-13.37,-5.88 -27.48,-9.08 -41.9,-10.9c-6.73,-0.85 -13.54,-1.09 -20.85,-1.7zm615.85,252.32c-17.6,-16 -34.81,-31.21 -51.58,-46.92c-16.77,-15.71 -33.18,-31.94 -50.08,-48.27c-13.24,30.77 -25,61.6 -35.32,93.5l126,6.83l10.98,-5.14zm-357,-10.88l-46.9,-2.78c-12,10.55 -23,24 -28.49,36.17c-4.92,10.89 -6.79,22.09 -4,34.5c34,11.55 67.9,11.28 102.18,-2l11,2.75l-33.79,-68.64zm-288.33,-319.36c-2.19,6.3 -4,12.17 -6.25,17.9c-7.53,19.51 -15.2,39 -22.79,58.45c-0.73,1.86 -1.26,3.8 -2.06,6.27c19.49,-6.16 38.68,-7.59 57.91,-8.21l1.52,-4.63c4.766,-14.836 13.748,-27.9635 25.85,-37.78c13.445,-10.854 30.151,-16.8701 47.429,-17.0805c17.278,-0.2104 34.125,5.3971 47.831,15.9205c1.34,1 2.78,2 4.92,3.5c-0.42,-12.42 -1.09,-23.6 -4.62,-34.34l-149.74,0zm48.24,386.53c0.456,-1.718 0.79,-3.465 1,-5.23c0.52,-13 0.29,-25.89 -2.94,-38.6c-4,-15.52 -11.13,-29.12 -23.26,-39.85c-2.255,-2.224 -5.145,-3.691 -8.27,-4.2c-16.12,-2.17 -32.23,-4.49 -48.34,-6.72c-4.23,-0.59 -8.49,-1 -13.71,-1.66c12.69,37.45 29.85,71.73 49.11,105.14c15.97,-0.82 31.33,-2.96 46.41,-8.88zm501.84,-279c-13.51,4.06 -27,3.92 -40.78,2.66c0.49,7.72 -2.82,13.13 -8.58,16.9c-3.964,2.432 -8.106,4.561 -12.39,6.37c-2.56,1.014 -5.178,1.875 -7.84,2.58c12.84,28.09 53.65,86.49 62.44,91.14l35.86,-71.81c-4.91,-7.4 -10.33,-15 -15.12,-23c-4.79,-8 -8.95,-16.26 -13.59,-24.84zm-252.94,489.55l-77.9,45.45c4.74,13.76 21.17,43.28 27.47,49.34c34.777,-16.096 67.684,-35.958 98.13,-59.23c-14.943,-13.085 -30.892,-24.975 -47.7,-35.56zm212.19,79.76c-21.47,-3.15 -42.5,-5.49 -63.88,-3.48c-12.577,1.045 -24.992,3.535 -37,7.42c-4,1.34 -7.89,3.16 -12.17,4.9c11.65,18.85 20.27,38.09 23.05,59.58l65.62,0c1.63,-25.16 13.91,-46.29 24.38,-68.42zm-709.58001,-97.06c30.73001,-14.33 57.32001,-32.77 78.84001,-58c-7.53,-7.32 -14.72,-14 -21.57,-21c-6.85,-7 -13.51,-14.25 -19.95,-21.65c-6.44,-7.4 -12.86,-15.28 -19,-23.12c-6,-7.56 -11.61,-15.36 -17.40001,-23l-0.88,0.5l-0.04,146.27zm449.36001,114.56c27.64,14 55.45,20.52 85.17,16c21.29,-3.26 40.64,-11.34 57.61,-25.38c-12.767,-18.463 -27.767,-35.277 -44.66,-50.06c-30.564,23.151 -63.447,43.071 -98.12,59.44zm-449.42001,-399.81c1.93147,0.363 3.88089,0.624 5.84,0.78c17.74001,0.38 35.12001,-1.71 51.89001,-7.85c18.63,-6.82 33.49,-18.22 43.25,-35.76c0.577,-1.188 1.081,-2.411 1.51,-3.66c-3.89,-0.53 -7.33,-1 -10.77,-1.46c-13.41,-1.73 -26.53,-4.7 -38.79,-10.45c-4.5783,-2.33 -8.8285,-5.256 -12.64,-8.7c-3.85,-3.27 -4.56,-7.93 -3.5,-12.82c0.19,-0.87 0.44,-1.72 0.51,-2l-37.30001,-9.4l0,91.32zm663.15001,197.26c6.214,4.624 13.465,7.655 21.12,8.83c12.192,1.781 24.583,1.7 36.75,-0.24c5.92,-1 11.79,-2.42 17.29,-5.53c-1,-1.5 -1.72,-2.58 -2.38,-3.72c-3.66,-6.33 -7.57,-12.54 -10.83,-19.06c-1.64,-3.28 -2.09,-7.14 -3,-10.53c4.354,-4.802 10.436,-7.679 16.91,-8c8.57,-0.73 16.84,0.81 24.92,3.64c2.75,1 5.58,1.73 8.38,2.59l0.53,-1c-25.51,-24.26 -54.14,-44.41 -83.89,-63.74c-10.16,32.36 -13.99,65.56 -25.8,96.76zm-58,-171.2c13.49,-41.55 19,-83.57 11.28,-127.19l-66.84,19c7.1,41.81 27.05,77.04 55.51,108.19l0.05,0zm-161.29,146.66c-1.76,0.83 -3.05,1.53 -4.42,2.06c-9.27,3.61 -18.44,7.53 -27.88,10.65c-7.74,2.56 -15.69,2.56 -23.27,-1.28c-1.327,-0.522 -2.686,-0.956 -4.07,-1.3c4.48,31.78 6.77,63.33 13.46,94c4.92,0 9.09,0.24 13.22,-0.09c2.608,-0.123 5.159,-0.805 7.48,-2c5.661,-3.163 11.133,-6.653 16.39,-10.45c8.43,-6.19 16.55,-12.79 24.74,-19.17c-4.62,-15.16 -6.79,-30 -8.21,-45.11c-0.977,-9.448 -3.49,-18.672 -7.44,-27.31zm366.72,-356l0.75,0.75c29.41,-25.9 62.37,-30.03 98.31,-16.47c13.38,-2.72 27,-4.87 39.11,-12.91c-8.428,-12.1834 -14.893,-25.6132 -19.16,-39.8c-14.452,-3.9751 -29.504,-5.3098 -44.43,-3.94c-12.504,0.982 -24.574,5.0314 -35.14,11.79c-17.57,11.34 -28.38,27.71 -35.38,46.94c-1.57,4.46 -2.71,9.08 -4.06,13.63l0,0.01zm-206.71,214.81l-111.63,-6.53l34.29,69.62c13.56,2.699 27.406,3.673 41.21,2.9c16.58,-19.14 25.8,-42.31 36.13,-65.99zm-24.59,157c14.76,23.61 29.94,46.67 45.92,69.85c13.728,-18.377 25.084,-38.412 33.8,-59.63c-15.92,-11.7 -27.36,-26.92 -37.36,-43.36c-10,-16.44 -17.66,-33.93 -25.32,-51.67c-0.123,29.108 -5.911,57.913 -17.04,84.81zm14.58,205.18c-44.89,32.51 -92.19,33.77 -141.56,11.71c11.54,16.608 24.963,31.826 40,45.35l124,0c-1.51,-17.15 -11.66,-43.27 -22.44,-57.06zm-247.58,-439.29c-0.85,7 -1.7,14 -2.58,21.26l-50.55,0c-1.87,11.27 -3.48,22.24 -5.61,33.11c-0.763,4.035 -0.242,8.207 1.49,11.93c1.685,4.494 2.921,9.143 3.69,13.88c1.22,6.36 1.76,12.85 3.08,19.19c0.93,4.47 2.66,8.78 4.11,13.39c28.14,-5.68 46.09,-23.34 60.5,-45.93c-12.35,-6.13 -16.39,-14.19 -12.16,-23.64c4.15,-9.26 13.25,-11.82 25.25,-6.91c2.68,-4.12 5.46,-8.25 8.06,-12.48c0.621,-1.159 0.986,-2.438 1.07,-3.75c0.67,-6.12 1.29,-12.25 1.8,-18.38c0.19,-2.26 0,-4.55 0,-7l-38.15,5.33zm37.46,224.58c11.31,4.58 13.94,5.34 19.22,4.79c14.35,-1.49 26.85,-8 39.68,-14.36c-1,-2.16 -1.65,-4 -2.59,-5.75c-6,-11 -11.82,-22 -18,-32.78c-6.26,-11 -12.1,-22.16 -15.37,-34.48c-0.301,-0.768 -0.676,-1.505 -1.12,-2.2c-1.68,0.43 -3.09,0.92 -4.55,1.14c-10,1.53 -20,3.67 -30,4.32c-15.37,1 -30.51,-1.24 -45.3,-5.64c-1.78,-0.52 -3.76,-2 -5.66,0.69c2.13,1.94 4.27,4 6.49,5.93c11.65,10.18 23.51,20.12 34.93,30.56c10.281,9.16 17.149,21.539 19.48,35.11c0.75,4.28 1.84,8.45 2.79,12.67zm261.07,-426.12c9.77,2.55 18.5,4.44 27,7.13c8.802,2.7269 16.599,7.9984 22.41,15.15c13.062,-4.3452 26.886,-5.9187 40.59,-4.62c-6.13,-21.2065 -10.301,-42.931 -12.46,-64.9l-87.38,0c3.43,16.45 6.73,32.29 9.84,47.24zm-568.17,575.72c-20.19,-22.73 -45.53,-35.88 -76.46001,-39.49l0,77.73c16.17001,5.12 28.25001,16 38.37001,29l38.09,-67.24zm91.13,-536.05c25.6,41.22 37,87.55 47.93,134.45c11.82,-4.5 22.66,-9.92 32.13,-18c-0.54,-1.42 -0.91,-2.5 -1.36,-3.55c-6.777,-15.922 -12.232,-32.374 -16.31,-49.19c-4.93,-20.48 -7.91,-41.19 -5.62,-62.34c0.36,-3.28 0.83,-6.54 1.25,-9.8c-12.31,-1.91 -46.53,2.82 -58.02,8.43zm1085.45,1.23l0,-88.14l-56.39,0c1.66,26.73 -1.62,52.64 -8,78.41c20.65,9.41 41.72,13.13 64.39,9.73zm-1124.58,469.08c-17.29,-9.84 -32.42,-21.14 -47.18,-33.68c-21.12,24.47 -46.66,42.55 -75.00001,57.11c28.71001,5.34 52.86001,18.18 72.47001,40.28c14.9845,-22.427 31.599,-43.722 49.71,-63.71zm670.69,-519.86l34.17,22c4.08,-3.27 8,-6.84 12.38,-9.85c19.51,-13.5 41.43,-16.14 64.35,-13.67c6.31,0.68 12.57,1.93 19.22,3c-1.22,-16.26 -6.31,-29.91 -19.55,-39l-103.37,0c3.19,13.78 -0.06,26.16 -7.2,37.52zm-608.33,644c-6.74,8.42 -18.61,54.11 -16.9,63.64l100.94,0c-3.76,-20.91 -13.41,-38.83 -23.26,-56.73c-21.04,1.33 -41.29,-0.4 -60.78,-6.91zm590.74,-218.64c2.36,-2.57 4.43,-4.71 6.38,-6.94c8.86,-10.16 17.52,-20.42 26.52,-30.5c12.06,-13.47 25,-25.85 42.7,-31.79c0.22,-0.08 0.33,-0.51 0.65,-1.05l-11.86,-8.19c-4.23,1.19 -8.49,2.5 -12.81,3.6c-10.25,2.59 -20.67,4.28 -31.05,1.48c-5.79,-1.56 -11.21,-4.51 -17.17,-7c-8.93,10.3 -21.29,16 -34.9,19.42c-13.45,3.4 -27.07,3.65 -41,2c25.23,18.26 50.11,36.54 72.54,58.97zm145.39,-164.75c9.65,-10.64 19.33,-21.63 29.37,-32.29c10.04,-10.66 21.4,-19.68 33.69,-27.95c-29.532,2.929 -59.34,1.283 -88.37,-4.88c-10.63,33.66 -28.1,63.2 -47.54,92.63l72.85,-27.51zm-212.35,102.67c35.18,-24.62 73.32,-42.89 111.16,-61.69l-0.33,-1.17l-118.35,-6.27l-17.9,59.78c7.69,4.933 16.366,8.125 25.42,9.35zm-360.36,-400.81c1.37,12.71 2.71,25.19 4.16,38.67c13.36,13.67 20.72,31.22 22.27,51.62c15.329,-15.9998 32.75,-29.8551 51.79,-41.19c-2.16,-16.39 -4.3,-32.62 -6.48,-49.1l-71.74,0zm90.71,696c-22.09,5.82 -43.43,7.31 -63.47,-4.73c-8.33,9 -20.67,41 -20.95,54l126.93,0c-15.856,-14.883 -30.104,-31.39 -42.51,-49.25l0,-0.02zm402.12,-315.14c5.56,4.59 11.19,8.9 18.16,11.53l17,-28.88l-34,-30.91c-39,16.7 -118.13,57.94 -127.27,68.79c10.78,1.15 21,-0.37 31,-3.2c13,-3.67 24.85,-9.38 32.91,-20.85c14.1,10.67 23.49,12.18 41.6,9c6.85,-1.21 13.48,-3.55 20.6,-5.48zm-383.46,-150.26l-75.58,12.6c-0.82,9 -1.64,18 -2.48,27.29l60.11,4.56c-1.06,13 -2.08,25.52 -3.13,38.42l44.82,2.58c-10.19,-28.23 -17.42,-56.52 -23.74,-85.45zm222.23,163.12c-14.85,4.49 -28.91,7 -43.4,7c-14.49,0 -28.78,-2.46 -43.2,-6.68c0.117,0.995 0.304,1.981 0.56,2.95c8.52,23 19.18,44.9 33.3,65c6.343,9.192 13.86,17.516 22.36,24.76c1.32,1.1 2.77,2 4.66,3.41c11.98,-31.42 15.58,-64.13 25.72,-96.44zm323.8,-162.68c13.94,-2.52 27.12,-5.51 39.78,-10.59c-16.18,-38 -32.78,-75.38 -44.5,-115c-9.76,1.8 -19.28,1.7 -28.77,-1.59c-3.07,4.33 -6,8.47 -8.8,12.4c25.03,34.46 34.3,74.05 42.29,114.78zm-548.11,305.49c1.357,-0.876 2.665,-1.824 3.92,-2.84c16.4,-15.142 31.493,-31.641 45.12,-49.32c7.26,-9.54 14.31,-19.22 19.27,-30.22c1.32,-2.92 2.45,-5.83 1.16,-10c-3,-1.1 -6.5,-2.59 -10.1,-3.63c-7.35,-2.12 -14.51,-0.26 -21.57,1.65c-18.45,5 -34.9,14.53 -51.81,23c-0.25,0.12 -0.33,0.55 -0.38,0.63c1.84,6.55 4.11,12.84 5.3,19.33c2,11.08 3.24,22.31 5.09,33.42c0.93,5.84 2.54,11.54 4,17.98zm369.35,-473.75c-6.85,-6.45 -26.6,-19 -34.3,-21.91c-10.26,13.1 -24.2,21.67 -39.4,29.58c3,1.93 5.49,3.29 7.72,4.93c10,7.34 10,17.8 -0.08,25.13c-1.63,1.15 -3.334,2.192 -5.1,3.12c-1.87,1 -3.81,1.89 -6.09,3c7.64,16.31 16.44,31.58 27.41,45.65l25.32,-36.48c3.57,-18.65 10.94,-37.12 24.52,-53.02zm-152,70c2.72,-0.76 5.12,-1.37 7.47,-2.11c5.61,-1.77 10.9,-4.17 15.17,-8.36c4.52,-4.43 5.3,-8.52 2.88,-14.49c-0.22,-0.55 -0.34,-1.14 -0.65,-2.21c15.26,2.88 30,3.15 44.69,-1.18c-4.56,-12.17 -9,-23.94 -13.37,-35.7c-14.68,-1.36 -28.8,-0.27 -42.21,5.07c-10.55,-12.76 -33.23,-23 -46,-20.72c8.17,27.5078 18.904,54.188 32.06,79.69l-0.04,0.01zm427.5,-132.74c7.48,17.65 19.66,31.57 33.17,44.44c13.51,12.87 28.35,24.33 46,32.66c6.85,-25.0917 9.49,-51.1445 7.82,-77.1l-86.99,0zm-354.26,68.69c12.359,-4.8655 23.753,-11.8918 33.65,-20.75c5.741,-5.0812 10.488,-11.1848 14,-18c4.69,-9.53 6.15,-19.45 3.13,-29.94l-77.44,0c1.808,22.1567 6.03,44.0497 12.59,65.29l14.07,3.4zm356.11,633.8c1.14,-22.45 -28.09,-107.57 -40.27,-118c-0.28,0.176 -0.53,0.395 -0.74,0.65c-0.78,1.27 -1.56,2.55 -2.26,3.88c-7.47,14.26 -12.76,29.14 -13.83,45.41c-1.51,20.418 4.02,40.738 15.66,57.58c0.85,1.423 2.09,2.572 3.57,3.31c12.1,4.64 24.66,6.44 37.87,7.17zm-238.7,-206.78c-6.233,2.563 -13.1,3.156 -19.68,1.7c-5.044,-0.96 -9.981,-2.414 -14.74,-4.34c-11.4,-5 -22.57,-10.52 -33.83,-15.81c-2.79,-1.31 -5.6,-2.57 -8.4,-3.86c1.561,3.183 3.473,6.182 5.7,8.94c6.86,9.27 12.89,19 15.45,30.45c3.25,14.6 -1.18,26.64 -13.3,35.39c-2.27,1.64 -4.7,3 -7.49,4.85c15.6,14.71 31.71,28.3 51.06,39.26c-0.42,-35.18 5.42,-67.61 25.23,-96.58zm308.11,-9.09c23.47,22.667 48.68,43.457 75.4,62.18l0,-100.83c-25.92,11.7 -50.8,24 -75.4,38.65zm-950.62,-186.13c23.43,24.27 27.47,53.87 25,86c19.861,6.136 41.071,6.403 61.08,0.77c-1.46,-1.79 -2.37,-2.94 -3.32,-4.05c-5.517,-6.463 -9.978,-13.756 -13.22,-21.61c-4.19,-10.26 -5.89,-21 -7.13,-31.95c-0.85,-7.51 -3.47,-14.44 -7.23,-21.32l-55.18,-7.84zm649,406.44c-42.49,10.82 -85.12,15.77 -129.47,13.92l18.41,24.33l133.16,0c-3.4,-15.3 -13.02,-26.34 -22.12,-38.22l0.02,-0.03zm-477.26,-132.38c0.3,11.61 14.1,56.28 19.66,64.55c25,-14.54 50.74,-27.88 75.19,-44.32c-9.89,-8.16 -16.77,-18.09 -22.95,-28.26c-5.31,1.53 -10.06,3 -14.86,4.26c-12.74,3.34 -25.5,5.81 -38.85,3.91c-5.85,-0.83 -11.9,-0.14 -18.19,-0.14zm-292.91,-326.24c-6,13.35 -15.3,23.58 -27.36,32.26c23.57,15.49 44.82,32.27 57.38,58.36c0.4,-1.26 0.57,-1.66 0.65,-2.08c2.3,-12.37 3.95,-24.91 7,-37.08c5.17,-20.45 14.13,-39 30.41,-53.26c0.604,-0.73 1.131,-1.521 1.57,-2.36c-23.36,5.09 -46.25,5.11 -69.65,4.16zm961.46,449.69c-30.54,9.6 -61,10 -92.44,1.89l11.59,45.32c0.771,0.135 1.549,0.229 2.33,0.28c21,0 42,0 63,0c0.99,0.101 1.99,-0.001 2.94,-0.3c8.12,-3.7 15.1,-8.66 17.73,-17.76c3,-10.28 0,-19.64 -5.15,-29.43zm-780.63,-14.7c-0.655,7.351 -0.053,14.761 1.78,21.91c3.19,13.16 9,24.82 20.4,32.69c4.69,3.24 10.19,6.65 15.62,7.24c10.51,1.14 21.24,0.33 32.06,0.33c4.25,-19 10,-37.06 20.29,-54.22c-30.99,4.41 -60.78,3.53 -90.15,-7.95zm468.9,-77.59c27.44,19.6 57,34.45 86.16,51.73c4.61,-20.24 2.29,-40.25 2.77,-60.42c-26.29,2.42 -48.84,-7.86 -71.9,-17l-17.03,25.69zm-472.47,74.61c9,-27.23 12.15,-60.36 4.36,-78.56c-17.28,5.52 -55.09,29.39 -62.95,39.74l29.74,44.13l28.85,-5.31zm-113.06,64.93c2.271,-21.59 7.744,-42.722 16.24,-62.7c-12.441,3.904 -25.373,6.025 -38.41,6.3c-12.857,0.172 -25.678,-1.406 -38.11,-4.69c4.74,20.54 6,40.67 6.58,61.09l53.7,0zm424,-356.64c32.23,13.71 74.23,9.31 88,2c-27.51,-18.16 -53.07,-38.41 -75.83,-62.76c-9.35,22.59 -18.91,44 -33.18,63l0.7,0.92l20.31,-3.16zm286.18,99.53c20.37,-6.14 40.21,-9.66 60.61,-9.83c20.4,-0.17 40.39,3.21 60.28,8.26c-17.238,-21.548 -35.705,-42.082 -55.31,-61.5c-27.3,16.15 -57.45,42.91 -65.59,63.07l0.01,0zm-322.23,-360.73c-9.79,18.27 -13.52,57.72 -8.74,81.25c22.17,-5.83 44.42,-11.23 66,-19.1c-3.43,-13.27 -7.5,-25.62 -14,-36.76c-18.74,-1.31 -34.16,-7.45 -43.26,-25.39zm-497.25,617.85c0.0421,-0.409 0.0421,-0.821 0,-1.23c-0.45,-1.6 -0.89,-3.21 -1.42,-4.78c-6.86,-19.94 -15.58,-38.88 -30,-54.66c-6.99,-7.66 -14.87,-14.26 -24.71001,-18.1c-1.43,-0.56 -3,-0.86 -4.72,-1.36l0,80.18l60.85001,-0.05zm910.78,-45.35c-2,0.65 -3.22,1 -4.44,1.46c-16.611,5.968 -34.13,9.013 -51.78,9c-9.1,0.07 -18.22,-1.08 -27.33,-1.63c-1.93,-0.12 -3.87,0 -6.23,0c4.31,6.37 8.28,11.9 11.91,17.66c3.63,5.76 6.6,11.85 7.25,18.79l82.43,0c-3.96,-15.21 -7.8,-29.91 -11.81,-45.28zm-865.49,-16.71c-21.1,8 -42.47,10.87 -65.59,10.45c11.7,16.49 18.31,34 24.09,51.58l48.31,0c-0.03,-20.89 -1.24,-41.37 -6.81,-62.03zm675.56,-216c-11.62,11.8 -23.79,21.96 -38.14,29.29c9.73,14.49 37.87,46.45 47.41,53.82c2.732,-1.355 5.383,-2.868 7.94,-4.53c7.47,-5.39 12.31,-12.32 13,-21.91c0.51,-7 -1.14,-13.45 -3.83,-19.73c-5.98,-14.04 -15.74,-25.35 -26.38,-36.91l0,-0.03zm-583.24,-71.58c-19.39,-34 -36.13,-67.9 -48.58,-104.46c-0.445,0.637 -0.843,1.305 -1.19,2c-5.003,15 -8.006,30.595 -8.93,46.38c-0.777,15.261 -2.514,30.457 -5.2,45.5c20.34,7.12 41.27,9.82 63.9,10.58zm329.66,-3.08c15.06,30.19 31.17,58.48 49,86.91c11.32,-28.62 16.78,-57.08 15.16,-87.46c-21.39,4.15 -42.19,4.75 -64.16,0.55zm-488.67,-392.39l-39.35001,0l0,76.82c14.64521,-6.5554 30.63541,-9.5471 46.66001,-8.73c-4.88,-22.68 -7.68,-45.03 -7.31,-68.09zm664.52,331.34l-93.06,-5.09c-0.12,0.42 -0.25,0.84 -0.37,1.26c22.67,23.84 48.22,44.13 76,61.91c5.91,-19.63 11.56,-38.51 17.43,-58.08zm199,-149.18c4.31,-15.46 10.82,-29.62 21.77,-41.49c10.855,-11.845 24.564,-20.711 39.82,-25.75l8.62,-12.58c-9.34,-4 -16.19,-10.19 -21.81,-16.87c-7.39,3 -14,6.08 -20.91,8.26c-6.91,2.18 -14.12,3.45 -21.31,5.14c-14.21,26.84 -15.3,54.62 -6.17,83.27l-0.01,0.02zm313.49,528.18c-21.7,0 -42.46,-2.63 -62.57,-9.64c-2,12.57 -1.75,35.14 0.49,44.27l92.3,0c-14.26,-8.63 -23.42,-20.49 -30.22,-34.63zm-781.09,-663.33c2.16,-0.86 3.37,-1.33 4.58,-1.83c7.95,-3.3 15.79,-6.89 23.86,-9.88c23.072,-8.5133 45.235,-19.3102 66.16,-32.23c1.334,-0.96769 2.613,-2.00932 3.83,-3.12l-104.49,0c2.02,15.73 3.99,30.98 6.06,47.06zm241.68,89.39c-11.676,1.754 -23.574,1.365 -35.11,-1.15c-9.75,11.07 -22.09,16.07 -36,17.21c4.4,12 8.71,23.7 13.22,35.95c23.82,-8.08 47.5,-17.27 69.69,-30.74c-3.99,-7.19 -7.75,-13.98 -11.8,-21.27zm84.08,608.8l-49.3,-65.7c-1.87,3.63 -3.32,6.4 -4.73,9.19c-7,13.8 -13.29,27.86 -17,42.92c-1.09,4.38 -2.51,8.92 -1,13.59l72.03,0zm492.24,-638.3l-1.11,-0.2c-11.08,37.751 -24.1,74.907 -39,111.32c12.94,6.55 26.33,12.184 40.06,16.86l0.05,-127.98zm-868.22,133.25c1.83,-19.56 3.6,-38.49 5.41,-57.86l-37.08,-3.71c-2.35,22.4 -4.67,44.42 -7,66.84l38.67,-5.27zm829.82,467.19c-12.04,-25.057 -25.93,-49.174 -41.58,-72.15c-11.22,19.62 -16.63,40.16 -19.62,62.16c19.58,6.9 39.57,9.99 61.2,9.99zm-199.12,-429.46l55.71,-8.74l-20.51,-45.36l-40.56,10.93c1.78,14.33 3.53,28.42 5.36,43.17zm-81.84,18.28l78.64,-18.32c-1.73,-14 -3.47,-28.27 -5.22,-42.51c-19.96,2.3 -56.74,37.13 -73.42,60.83zm-107.09,416.62c-35.79,-15.72 -72.4,-28 -110.66,-34.85l-0.79,1c9.473,12.74 18.933,25.46 28.38,38.16c28.03,2.12 55.6,0.17 83.07,-4.31zm-721.36,-32.74c-5.45,-20.07 -13.6,-37.84 -26.39,-53.89c-13.5128,20.59 -25.6814,42.031 -36.43,64.19c21.91,0.4 42.5,-2.67 62.82,-10.3zm258.65,-546.31c22.49,-31.3 12.31,-74.22 -6.49,-89.93c-0.81,17.18 -3,34.1 -8.21,50.53c-3.52,11.19 -8.6,21.59 -16.36,30.51c-1.67,1.92 -3.56,3.66 -5.48,5.63l36.54,3.26zm650,361.93c19.66,25.61 38.08,51.95 54,80.27l25.9,-31.55c-23.95,-20.5 -49.89,-37.76 -79.87,-48.72l-0.03,0zm180.22,-235.1l58.74,3.92l0,-25.53l-41.29,-17.5c-5.78,13.01 -11.62,26.1 -17.42,39.11l-0.03,0zm-697.87,331.92c11.63,-7.79 22.57,-15.89 32,-25.88c4,-4.25 7.58,-8.85 9.29,-14.62c0.9,-3 1.06,-5.86 -1.13,-8.82c-1.12,-0.09 -2.51,-0.53 -3.7,-0.22c-4.868,1.075 -9.664,2.454 -14.36,4.13c-14.54,5.74 -29,11.78 -43.41,17.73c-0.24,0.1 -0.35,0.52 -0.64,1c5.523,10.229 12.978,19.289 21.95,26.68zm-54.3,100.86l-25.7,-47.32l-33.22,42.32c19.29,11.69 38.99,10.05 58.92,5zm667.7,13.25l-37.64,-6.43c7.21,17 7.38,32.65 -10.22,44.9l49.83,0c-0.68,-13.34 -1.37,-26.24 -1.97,-38.52l0,0.05zm-226.28,-346.25l38.88,-56.7c-24.84,7.33 -47.76,17 -71.14,27.34l32.26,29.36zm-671.74,-65.31l0.49,-1.16c-7.164,-6.659 -13.28,-14.362 -18.14,-22.85c-4.807,-8.75 -7.198,-18.621 -6.93,-28.6c-12.45,3.09 -31.55,26.65 -35.69,44l60.27,8.61zm903.12,450l35,0l0,-44.83c-6.25,1.35 -12.28,3 -18.41,3.89c-6.13,0.89 -12.48,1.15 -18.64,1.67c0.68,13.11 1.35,26 2.05,39.29l0,-0.02zm-859.22,-56.59c4.44,9.24 9.21,18.15 13.06,27.44c3.85,9.29 6.89,19.24 10.37,29.14l35.18,0c-8,-4.62 -14.23,-9.66 -19,-16.48c-8.26,-11.86 -11.51,-25.2 -12.05,-39.4c-0.07,-1.89 -0.16,-3.78 -0.24,-5.85l-27.32,5.15zm690.72,-268.86l64.1,-33.77c-18.14,1.3 -35.8,1.29 -53.15,-1.82c-9.28,7.88 -19.83,12.48 -30.26,15.65l19.31,19.94zm-754.06,259c18.73,6.15 37.49,7.76 56.78,6.58c-3.73,-8.65 -22.3,-36 -27.88,-41.24c-8.63,6.78 -23.78,24.84 -28.94,34.7l0.04,-0.04zm549.06,-185.11c14.22,-6.61 25.51,-16.41 36.78,-27.57c-5.08,-2 -9.3,-3.89 -13.66,-5.35c-7.74,-2.58 -15.61,-4.74 -23.91,-4.19c-5.55,0.36 -10.76,1.73 -15.39,6c2.44,11.87 9.49,21.26 16.18,31.11zm-20.54,65.72c-2.87,5.6 -2.62,9.12 1,15c7.73,12.39 19.23,20.81 31,29.59l16.89,-25.7c-13.92,-6 -27.23,-11.85 -40.66,-17.42c-2.52,-1.07 -5.59,-1.03 -8.21,-1.47l-0.02,0zm118.34,34.26c-17.58,-11.2 -33.53,-24.36 -49.06,-39.08l-15.49,22.43c21.19,10.97 50.54,18.71 64.55,16.65zm79.78,-195.44l-34.46,-32.53l-16.53,27.94c16.68,6.25 33.05,7.32 50.99,4.59zm69.26,-364.74c8.74,-12.34 17.06,-23.85 28.68,-32.49l-0.5,-0.87l-36.45,0c2.74,11.04 5.43,21.69 8.27,33.36zm-565.79,538.07c8.47,2.3 36.75,-2.95 46.16,-8.6c-2.74,-6.5 -5.49,-13 -8.26,-19.6l-37.9,28.2zm329.78,-467.26c5.1,-3.32 9.49,-5.48 13,-8.62c5.46,-4.89 5.32,-10.51 0,-15.57c-7,-6.7 -16,-8.91 -26.25,-10.86l13.25,35.05zm-389.38,207.65c1.745,0.028 3.479,-0.29 5.1,-0.936c1.622,-0.646 3.1,-1.606 4.349,-2.826c1.248,-1.22 2.243,-2.675 2.926,-4.281c0.683,-1.606 1.042,-3.332 1.055,-5.077c-0.122,-3.424 -1.525,-6.678 -3.933,-9.115c-2.408,-2.438 -5.645,-3.882 -9.067,-4.045c-1.744,-0.017 -3.473,0.312 -5.089,0.97c-1.615,0.657 -3.083,1.63 -4.319,2.86c-1.235,1.23 -2.214,2.694 -2.879,4.306c-0.665,1.612 -1.002,3.34 -0.993,5.084c-0.02,1.703 0.297,3.393 0.934,4.973c0.636,1.579 1.578,3.018 2.773,4.232c1.194,1.214 2.617,2.179 4.186,2.841c1.569,0.662 3.254,1.006 4.957,1.014z"/>
  <path id="svg_2" fill="black" d="m905.11,564.86c6.67,0 10.46,2 11.72,5.56c1.35,3.75 -0.23,8.29 -4,11.55c-4.62,4 -10,5.09 -15.86,3.89c-1.282,-0.209 -2.495,-0.722 -3.538,-1.495c-1.044,-0.774 -1.887,-1.785 -2.46,-2.95c-0.574,-1.166 -0.86,-2.451 -0.836,-3.749c0.024,-1.299 0.358,-2.573 0.974,-3.716c1.271,-2.657 3.25,-4.911 5.721,-6.515c2.47,-1.604 5.335,-2.495 8.279,-2.575zm8.22,5.44c-4.8,-3.6 -8.05,-2.55 -10.25,3.06c0.87,2.86 3.1,3.18 5.53,2.61c2.75,-0.65 4.83,-2.11 4.72,-5.67z"/>
  <path id="svg_3" fill="black" d="m363.13,569.89c-4,-0.44 -8.25,-1.6 -11.67,-4.84c-3.15,-3 -5.54,-6.31 -4,-11c1.24,-3.61 5.75,-6.24 10.58,-5.94c4.532,0.149 8.859,1.924 12.19,5c3.53,3.33 4.79,7.74 3.28,11.2c-1.38,3.31 -5.36,5.54 -10.38,5.58zm-12,-15.42c1.58,3.92 4.12,5.73 7.21,5.13c2.69,-0.53 3.77,-2.92 2.36,-5.22c-2.17,-3.55 -7,-3.51 -9.56,0.09l-0.01,0z"/>
  <path id="svg_4" fill="black" d="m129.82,586.71c-2.47,15 -12.64,23.61 -25.32,24.63l25.32,-24.63z"/>
  <path id="svg_5" fill="black" d="m1134.16,602.8l25.15,24.42c-11.11,1.05 -23.32,-10.49 -25.15,-24.42z"/>
  <path id="svg_6" fill="black" d="m413.06,322c-9.27,0 -16.23,-7.13 -16.2,-16.52c0.03,-9.39 7.33,-16.72 16.42,-16.45c9.61,0.29 16.17,7.39 16.42,16.67c0.29,9.07 -7.51,16.33 -16.64,16.3zm13.2,-16.5c-0.032,-3.48 -1.445,-6.804 -3.928,-9.242c-2.483,-2.438 -5.832,-3.79 -9.312,-3.758c-3.48,0.032 -6.804,1.445 -9.242,3.928c-2.438,2.483 -3.79,5.832 -3.758,9.312c0.016,1.723 0.371,3.426 1.045,5.012c0.674,1.585 1.653,3.023 2.883,4.23c1.229,1.207 2.684,2.16 4.282,2.805c1.598,0.645 3.307,0.969 5.03,0.953c1.723,-0.016 3.426,-0.371 5.012,-1.045c1.585,-0.674 3.023,-1.653 4.23,-2.883c1.207,-1.229 2.16,-2.684 2.805,-4.282c0.645,-1.598 0.969,-3.307 0.953,-5.03z"/>
  <path id="svg_7" fill="black" d="m338.11,298.76c0.082,2.163 -0.279,4.321 -1.061,6.34c-0.782,2.018 -1.968,3.856 -3.486,5.399c-1.518,1.544 -3.336,2.761 -5.342,3.576c-2.005,0.815 -4.157,1.212 -6.321,1.165c-2.165,0.05 -4.32,-0.327 -6.339,-1.11c-2.02,-0.783 -3.865,-1.957 -5.43,-3.455c-1.565,-1.497 -2.82,-3.288 -3.692,-5.271c-0.871,-1.983 -1.344,-4.118 -1.389,-6.284c-0.12,-8.79 7.62,-16.61 16.5,-16.68c2.164,-0.036 4.314,0.36 6.324,1.164c2.009,0.805 3.839,2.002 5.38,3.521c1.542,1.52 2.766,3.331 3.599,5.329c0.834,1.998 1.261,4.141 1.257,6.306zm-3.16,0.31c-0.024,-3.52 -1.437,-6.888 -3.931,-9.371c-2.495,-2.484 -5.869,-3.881 -9.389,-3.889c-3.485,-0.032 -6.84,1.322 -9.327,3.764c-2.486,2.441 -3.901,5.771 -3.933,9.256c-0.032,3.485 1.322,6.84 3.764,9.327c2.441,2.486 5.771,3.901 9.256,3.933c3.526,0.064 6.935,-1.268 9.483,-3.707c2.548,-2.439 4.028,-5.787 4.117,-9.313l-0.04,0z"/>
  <text xml:space="preserve" text-anchor="start" font-family="Helvetica, Arial, sans-serif" font-size="24" id="svg_8" y="34.785732" x="115.55706" stroke-width="0" stroke="#000" fill="#000000">2</text>
  <text xml:space="preserve" text-anchor="start" font-family="Helvetica, Arial, sans-serif" font-size="24" id="svg_9" y="41.452378" x="215.556765" stroke-width="0" stroke="#000" fill="#000000">2</text>
  <text xml:space="preserve" text-anchor="start" font-family="Helvetica, Arial, sans-serif" font-size="24" id="svg_10" y="32.563516" x="388.889585" stroke-width="0" stroke="#000" fill="#000000">2</text>
  <text xml:space="preserve" text-anchor="start" font-family="Helvetica, Arial, sans-serif" font-size="24" id="svg_11" y="25.896869" x="451.111623" stroke-width="0" stroke="#000" fill="#000000">2</text>
  <text xml:space="preserve" text-anchor="start" font-family="Helvetica, Arial, sans-serif" font-size="24" id="svg_12" y="114.785495" x="473.33378" stroke-width="0" stroke="#000" fill="#000000">2</text>
  <text xml:space="preserve" text-anchor="start" font-family="Helvetica, Arial, sans-serif" font-size="24" id="svg_13" y="130.341004" x="415.556173" stroke-width="0" stroke="#000" fill="#000000">2</text>
  <text xml:space="preserve" text-anchor="start" font-family="Helvetica, Arial, sans-serif" font-size="24" id="svg_14" y="263.673943" x="257.778862" stroke-width="0" stroke="#000" fill="#000000">2</text>
  <text xml:space="preserve" text-anchor="start" font-family="Helvetica, Arial, sans-serif" font-size="24" id="svg_15" y="259.229512" x="20.001787" stroke-width="0" stroke="#000" fill="#000000">2</text>
  <text xml:space="preserve" text-anchor="start" font-family="Helvetica, Arial, sans-serif" font-size="24" id="svg_16" y="290.340531" x="120.001492" stroke-width="0" stroke="#000" fill="#000000">2</text>
  <text xml:space="preserve" text-anchor="start" font-family="Helvetica, Arial, sans-serif" font-size="24" id="svg_17" y="352.562569" x="73.334963" stroke-width="0" stroke="#000" fill="#000000">2</text>
  <text xml:space="preserve" text-anchor="start" font-family="Helvetica, Arial, sans-serif" font-size="24" id="svg_18" y="365.895863" x="157.779158" stroke-width="0" stroke="#000" fill="#000000">2</text>
  <text xml:space="preserve" text-anchor="start" font-family="Helvetica, Arial, sans-serif" font-size="24" id="svg_19" y="274.785022" x="177.779098" stroke-width="0" stroke="#000" fill="#000000">2</text>
  <text xml:space="preserve" text-anchor="start" font-family="Helvetica, Arial, sans-serif" font-size="24" id="svg_20" y="268.118375" x="453.333839" stroke-width="0" stroke="#000" fill="#000000">2</text>
  <text xml:space="preserve" text-anchor="start" font-family="Helvetica, Arial, sans-serif" font-size="24" id="svg_21" y="281.451669" x="515.555877" stroke-width="0" stroke="#000" fill="#000000">2</text>
  <text xml:space="preserve" text-anchor="start" font-family="Helvetica, Arial, sans-serif" font-size="24" id="svg_22" y="252.562865" x="584.444562" stroke-width="0" stroke="#000" fill="#000000">2</text>
  <text xml:space="preserve" text-anchor="start" font-family="Helvetica, Arial, sans-serif" font-size="24" id="svg_23" y="259.229512" x="664.444326" stroke-width="0" stroke="#000" fill="#000000">2</text>
  <text xml:space="preserve" text-anchor="start" font-family="Helvetica, Arial, sans-serif" font-size="24" id="svg_24" y="301.451609" x="744.444089" stroke-width="0" stroke="#000" fill="#000000">2</text>
  <text xml:space="preserve" text-anchor="start" font-family="Helvetica, Arial, sans-serif" font-size="24" id="svg_25" y="181.451964" x="573.333484" stroke-width="0" stroke="#000" fill="#000000">2</text>
  <text xml:space="preserve" text-anchor="start" font-family="Helvetica, Arial, sans-serif" font-size="24" id="svg_26" y="161.452024" x="648.888816" stroke-width="0" stroke="#000" fill="#000000">2</text>
  <text xml:space="preserve" text-anchor="start" font-family="Helvetica, Arial, sans-serif" font-size="24" id="svg_27" y="168.11867" x="728.888579" stroke-width="0" stroke="#000" fill="#000000">2</text>
  <text xml:space="preserve" text-anchor="start" font-family="Helvetica, Arial, sans-serif" font-size="24" id="svg_28" y="37.007947" x="691.110913" stroke-width="0" stroke="#000" fill="#000000">2</text>
  <text xml:space="preserve" text-anchor="start" font-family="Helvetica, Arial, sans-serif" font-size="24" id="svg_29" y="37.007947" x="764.44403" stroke-width="0" stroke="#000" fill="#000000">2</text>
  <text xml:space="preserve" text-anchor="start" font-family="Helvetica, Arial, sans-serif" font-size="24" id="svg_30" y="94.785554" x="791.110618" stroke-width="0" stroke="#000" fill="#000000">2</text>
  <text xml:space="preserve" text-anchor="start" font-family="Helvetica, Arial, sans-serif" font-size="24" id="svg_31" y="174.785317" x="837.777146" stroke-width="0" stroke="#000" fill="#000000">2</text>
  <text xml:space="preserve" text-anchor="start" font-family="Helvetica, Arial, sans-serif" font-size="24" id="svg_32" y="265.896159" x="817.777205" stroke-width="0" stroke="#000" fill="#000000">2</text>
  <text xml:space="preserve" text-anchor="start" font-family="Helvetica, Arial, sans-serif" font-size="24" id="svg_33" y="272.562806" x="911.110263" stroke-width="0" stroke="#000" fill="#000000">2</text>
  <text xml:space="preserve" text-anchor="start" font-family="Helvetica, Arial, sans-serif" font-size="24" id="svg_34" y="192.563043" x="946.665713" stroke-width="0" stroke="#000" fill="#000000">2</text>
  <text xml:space="preserve" text-anchor="start" font-family="Helvetica, Arial, sans-serif" font-size="24" id="svg_35" y="28.119085" x="837.777146" stroke-width="0" stroke="#000" fill="#000000">2</text>
  <text xml:space="preserve" text-anchor="start" font-family="Helvetica, Arial, sans-serif" font-size="24" id="svg_36" y="23.674653" x="993.332242" stroke-width="0" stroke="#000" fill="#000000">2</text>
  <text xml:space="preserve" text-anchor="start" font-family="Helvetica, Arial, sans-serif" font-size="24" id="svg_37" y="108.118848" x="1135.554043" stroke-width="0" stroke="#000" fill="#000000">2</text>
  <text xml:space="preserve" text-anchor="start" font-family="Helvetica, Arial, sans-serif" font-size="24" id="svg_38" y="30.3413" x="1166.665062" stroke-width="0" stroke="#000" fill="#000000">2</text>
  <text xml:space="preserve" text-anchor="start" font-family="Helvetica, Arial, sans-serif" font-size="24" id="svg_39" y="161.452024" x="1073.332005" stroke-width="0" stroke="#000" fill="#000000">2</text>
  <text xml:space="preserve" text-anchor="start" font-family="Helvetica, Arial, sans-serif" font-size="24" id="svg_40" y="245.896218" x="1102.220808" stroke-width="0" stroke="#000" fill="#000000">2</text>
  <text xml:space="preserve" text-anchor="start" font-family="Helvetica, Arial, sans-serif" font-size="24" id="svg_41" y="268.118375" x="986.665595" stroke-width="0" stroke="#000" fill="#000000">2</text>
  <text xml:space="preserve" text-anchor="start" font-family="Helvetica, Arial, sans-serif" font-size="24" id="svg_42" y="157.007592" x="1197.776081" stroke-width="0" stroke="#000" fill="#000000">2</text>
  <text xml:space="preserve" text-anchor="start" font-family="Helvetica, Arial, sans-serif" font-size="24" id="svg_43" y="39.230163" x="1215.553807" stroke-width="0" stroke="#000" fill="#000000">2</text>
  <text xml:space="preserve" text-anchor="start" font-family="Helvetica, Arial, sans-serif" font-size="24" id="svg_44" y="208.118552" x="1239.998179" stroke-width="0" stroke="#000" fill="#000000">2</text>
  <text xml:space="preserve" text-anchor="start" font-family="Helvetica, Arial, sans-serif" font-size="24" id="svg_45" y="252.562865" x="1217.776022" stroke-width="0" stroke="#000" fill="#000000">2</text>
  <text xml:space="preserve" text-anchor="start" font-family="Helvetica, Arial, sans-serif" font-size="24" id="svg_46" y="519.228743" x="295.556528" stroke-width="0" stroke="#000" fill="#000000">1</text>
  <text xml:space="preserve" text-anchor="start" font-family="Helvetica, Arial, sans-serif" font-size="24" id="svg_47" y="559.228625" x="202.223471" stroke-width="0" stroke="#000" fill="#000000">1</text>
  <text xml:space="preserve" text-anchor="start" font-family="Helvetica, Arial, sans-serif" font-size="24" id="svg_48" y="657.006113" x="262.223293" stroke-width="0" stroke="#000" fill="#000000">1</text>
  <text xml:space="preserve" text-anchor="start" font-family="Helvetica, Arial, sans-serif" font-size="24" id="svg_49" y="648.117251" x="340.000841" stroke-width="0" stroke="#000" fill="#000000">1</text>
  <text xml:space="preserve" text-anchor="start" font-family="Helvetica, Arial, sans-serif" font-size="24" id="svg_50" y="605.895153" x="431.111682" stroke-width="0" stroke="#000" fill="#000000">1</text>
  <text xml:space="preserve" text-anchor="start" font-family="Helvetica, Arial, sans-serif" font-size="24" id="svg_51" y="514.784312" x="420.000604" stroke-width="0" stroke="#000" fill="#000000">1</text>
  <text xml:space="preserve" text-anchor="start" font-family="Helvetica, Arial, sans-serif" font-size="24" id="svg_52" y="490.33994" x="480.000427" stroke-width="0" stroke="#000" fill="#000000">1</text>
  <text xml:space="preserve" text-anchor="start" font-family="Helvetica, Arial, sans-serif" font-size="24" id="svg_53" y="583.672997" x="497.778152" stroke-width="0" stroke="#000" fill="#000000">1</text>
  <text xml:space="preserve" text-anchor="start" font-family="Helvetica, Arial, sans-serif" font-size="24" id="svg_54" y="645.895035" x="160.001373" stroke-width="0" stroke="#000" fill="#000000">1</text>
  <text xml:space="preserve" text-anchor="start" font-family="Helvetica, Arial, sans-serif" font-size="24" id="svg_55" y="677.006054" x="217.77898" stroke-width="0" stroke="#000" fill="#000000">1</text>
  <text xml:space="preserve" text-anchor="start" font-family="Helvetica, Arial, sans-serif" font-size="24" id="svg_56" y="677.006054" x="73.334963" stroke-width="0" stroke="#000" fill="#000000">1</text>
  <text xml:space="preserve" text-anchor="start" font-family="Helvetica, Arial, sans-serif" font-size="24" id="svg_57" y="657.006113" x="895.554753" stroke-width="0" stroke="#000" fill="#000000">1</text>
  <text xml:space="preserve" text-anchor="start" font-family="Helvetica, Arial, sans-serif" font-size="24" id="svg_58" y="625.895094" x="808.888343" stroke-width="0" stroke="#000" fill="#000000">1</text>
  <text xml:space="preserve" text-anchor="start" font-family="Helvetica, Arial, sans-serif" font-size="24" id="svg_59" y="590.339644" x="739.999658" stroke-width="0" stroke="#000" fill="#000000">1</text>
  <text xml:space="preserve" text-anchor="start" font-family="Helvetica, Arial, sans-serif" font-size="24" id="svg_60" y="523.673174" x="826.666068" stroke-width="0" stroke="#000" fill="#000000">1</text>
  <text xml:space="preserve" text-anchor="start" font-family="Helvetica, Arial, sans-serif" font-size="24" id="svg_61" y="523.673174" x="773.332892" stroke-width="0" stroke="#000" fill="#000000">1</text>
  <text xml:space="preserve" text-anchor="start" font-family="Helvetica, Arial, sans-serif" font-size="24" id="svg_62" y="483.673293" x="739.999658" stroke-width="0" stroke="#000" fill="#000000">1</text>
  <text xml:space="preserve" text-anchor="start" font-family="Helvetica, Arial, sans-serif" font-size="24" id="svg_63" y="625.895094" x="1017.776614" stroke-width="0" stroke="#000" fill="#000000">1</text>
  <text xml:space="preserve" text-anchor="start" font-family="Helvetica, Arial, sans-serif" font-size="24" id="svg_64" y="559.228625" x="1066.665358" stroke-width="0" stroke="#000" fill="#000000">1</text>
  <text xml:space="preserve" text-anchor="start" font-family="Helvetica, Arial, sans-serif" font-size="24" id="svg_65" y="665.894976" x="1068.887574" stroke-width="0" stroke="#000" fill="#000000">1</text>
  <text xml:space="preserve" text-anchor="start" font-family="Helvetica, Arial, sans-serif" font-size="24" id="svg_66" y="603.672938" x="1117.776318" stroke-width="0" stroke="#000" fill="#000000">1</text>
  <text xml:space="preserve" text-anchor="start" font-family="Helvetica, Arial, sans-serif" font-size="24" id="svg_67" y="690.339348" x="1182.220572" stroke-width="0" stroke="#000" fill="#000000">1</text>
  <text xml:space="preserve" text-anchor="start" font-family="Helvetica, Arial, sans-serif" font-size="24" id="svg_68" y="79.230045" x="984.443379" stroke-width="0" stroke="#000" fill="#000000">3</text>
  <text xml:space="preserve" text-anchor="start" font-family="Helvetica, Arial, sans-serif" font-size="24" id="svg_69" y="197.007474" x="1013.332182" stroke-width="0" stroke="#000" fill="#000000">3</text>
  <text xml:space="preserve" text-anchor="start" font-family="Helvetica, Arial, sans-serif" font-size="24" id="svg_70" y="257.007296" x="1037.776555" stroke-width="0" stroke="#000" fill="#000000">3</text>
  <text xml:space="preserve" text-anchor="start" font-family="Helvetica, Arial, sans-serif" font-size="24" id="svg_71" y="72.563398" x="904.443616" stroke-width="0" stroke="#000" fill="#000000">3</text>
  <text xml:space="preserve" text-anchor="start" font-family="Helvetica, Arial, sans-serif" font-size="24" id="svg_72" y="121.452142" x="931.110203" stroke-width="0" stroke="#000" fill="#000000">3</text>
  <text xml:space="preserve" text-anchor="start" font-family="Helvetica, Arial, sans-serif" font-size="24" id="svg_73" y="59.230104" x="295.556528" stroke-width="0" stroke="#000" fill="#000000">4</text>
  <text xml:space="preserve" text-anchor="start" font-family="Helvetica, Arial, sans-serif" font-size="24" id="svg_74" y="117.007711" x="353.334135" stroke-width="0" stroke="#000" fill="#000000">4</text>
  <text xml:space="preserve" text-anchor="start" font-family="Helvetica, Arial, sans-serif" font-size="24" id="svg_75" y="459.22892" x="73.334963" stroke-width="0" stroke="#000" fill="#000000">5</text>
  <text xml:space="preserve" text-anchor="start" font-family="Helvetica, Arial, sans-serif" font-size="24" id="svg_76" y="463.673352" x="164.445805" stroke-width="0" stroke="#000" fill="#000000">5</text>
  <text xml:space="preserve" text-anchor="start" font-family="Helvetica, Arial, sans-serif" font-size="24" id="svg_77" y="523.673174" x="24.446219" stroke-width="0" stroke="#000" fill="#000000">5</text>
  <text xml:space="preserve" text-anchor="start" font-family="Helvetica, Arial, sans-serif" font-size="24" id="svg_78" y="583.672997" x="75.557179" stroke-width="0" stroke="#000" fill="#000000">5</text>
  <text xml:space="preserve" text-anchor="start" font-family="Helvetica, Arial, sans-serif" font-size="24" id="svg_79" y="641.450604" x="20.001787" stroke-width="0" stroke="#000" fill="#000000">5</text>
  <text xml:space="preserve" text-anchor="start" font-family="Helvetica, Arial, sans-serif" font-size="24" id="svg_80" y="728.117014" x="15.557356" stroke-width="0" stroke="#000" fill="#000000">5</text>
  <text xml:space="preserve" text-anchor="start" font-family="Helvetica, Arial, sans-serif" font-size="24" id="svg_82" y="721.450367" x="77.779394" stroke-width="0" stroke="#000" fill="#000000">5</text>
  <text xml:space="preserve" text-anchor="start" font-family="Helvetica, Arial, sans-serif" font-size="24" id="svg_83" y="721.450367" x="146.668079" stroke-width="0" stroke="#000" fill="#000000">5</text>
  <text xml:space="preserve" text-anchor="start" font-family="Helvetica, Arial, sans-serif" font-size="24" id="svg_84" y="725.894798" x="213.334549" stroke-width="0" stroke="#000" fill="#000000">5</text>
  <text xml:space="preserve" text-anchor="start" font-family="Helvetica, Arial, sans-serif" font-size="24" id="svg_85" y="723.672583" x="331.111978" stroke-width="0" stroke="#000" fill="#000000">5</text>
  <text xml:space="preserve" text-anchor="start" font-family="Helvetica, Arial, sans-serif" font-size="24" id="svg_86" y="728.117014" x="397.778448" stroke-width="0" stroke="#000" fill="#000000">5</text>
  <text xml:space="preserve" text-anchor="start" font-family="Helvetica, Arial, sans-serif" font-size="24" id="svg_87" y="719.228151" x="275.556587" stroke-width="0" stroke="#000" fill="#000000">5</text>
  <text xml:space="preserve" text-anchor="start" font-family="Helvetica, Arial, sans-serif" font-size="24" id="svg_88" y="681.450485" x="406.66731" stroke-width="0" stroke="#000" fill="#000000">5</text>
  <text xml:space="preserve" text-anchor="start" font-family="Helvetica, Arial, sans-serif" font-size="24" id="svg_89" y="661.450545" x="464.444917" stroke-width="0" stroke="#000" fill="#000000">5</text>
  <text xml:space="preserve" text-anchor="start" font-family="Helvetica, Arial, sans-serif" font-size="24" id="svg_90" y="683.672701" x="526.666955" stroke-width="0" stroke="#000" fill="#000000">5</text>
  <text xml:space="preserve" text-anchor="start" font-family="Helvetica, Arial, sans-serif" font-size="24" id="svg_91" y="730.33923" x="580.000131" stroke-width="0" stroke="#000" fill="#000000">5</text>
  <text xml:space="preserve" text-anchor="start" font-family="Helvetica, Arial, sans-serif" font-size="24" id="svg_92" y="728.117014" x="639.999953" stroke-width="0" stroke="#000" fill="#000000">5</text>
  <text xml:space="preserve" text-anchor="start" font-family="Helvetica, Arial, sans-serif" font-size="24" id="svg_93" y="632.561741" x="611.11115" stroke-width="0" stroke="#000" fill="#000000">5</text>
  <text xml:space="preserve" text-anchor="start" font-family="Helvetica, Arial, sans-serif" font-size="24" id="svg_94" y="568.117487" x="571.111268" stroke-width="0" stroke="#000" fill="#000000">5</text>
  <text xml:space="preserve" text-anchor="start" font-family="Helvetica, Arial, sans-serif" font-size="24" id="svg_95" y="512.562096" x="531.111387" stroke-width="0" stroke="#000" fill="#000000">5</text>
  <text xml:space="preserve" text-anchor="start" font-family="Helvetica, Arial, sans-serif" font-size="24" id="svg_96" y="568.117487" x="453.333839" stroke-width="0" stroke="#000" fill="#000000">5</text>
  <text xml:space="preserve" text-anchor="start" font-family="Helvetica, Arial, sans-serif" font-size="24" id="svg_97" y="443.673411" x="282.223234" stroke-width="0" stroke="#000" fill="#000000">5</text>
  <text xml:space="preserve" text-anchor="start" font-family="Helvetica, Arial, sans-serif" font-size="24" id="svg_98" y="443.673411" x="395.556232" stroke-width="0" stroke="#000" fill="#000000">5</text>
  <text xml:space="preserve" text-anchor="start" font-family="Helvetica, Arial, sans-serif" font-size="24" id="svg_99" y="434.784548" x="457.77827" stroke-width="0" stroke="#000" fill="#000000">5</text>
  <text xml:space="preserve" text-anchor="start" font-family="Helvetica, Arial, sans-serif" font-size="24" id="svg_100" y="425.895686" x="564.444621" stroke-width="0" stroke="#000" fill="#000000">5</text>
  <text xml:space="preserve" text-anchor="start" font-family="Helvetica, Arial, sans-serif" font-size="24" id="svg_101" y="497.006587" x="615.555581" stroke-width="0" stroke="#000" fill="#000000">5</text>
  <text xml:space="preserve" text-anchor="start" font-family="Helvetica, Arial, sans-serif" font-size="24" id="svg_102" y="437.006764" x="655.555463" stroke-width="0" stroke="#000" fill="#000000">5</text>
  <text xml:space="preserve" text-anchor="start" font-family="Helvetica, Arial, sans-serif" font-size="24" id="svg_103" y="581.450781" x="679.999835" stroke-width="0" stroke="#000" fill="#000000">5</text>
  <text xml:space="preserve" text-anchor="start" font-family="Helvetica, Arial, sans-serif" font-size="24" id="svg_104" y="665.894976" x="791.110618" stroke-width="0" stroke="#000" fill="#000000">5</text>
  <text xml:space="preserve" text-anchor="start" font-family="Helvetica, Arial, sans-serif" font-size="24" id="svg_105" y="708.117073" x="748.88852" stroke-width="0" stroke="#000" fill="#000000">5</text>
  <text xml:space="preserve" text-anchor="start" font-family="Helvetica, Arial, sans-serif" font-size="24" id="svg_106" y="732.561445" x="715.555286" stroke-width="0" stroke="#000" fill="#000000">5</text>
  <text xml:space="preserve" text-anchor="start" font-family="Helvetica, Arial, sans-serif" font-size="24" id="svg_107" y="732.561445" x="857.777087" stroke-width="0" stroke="#000" fill="#000000">5</text>
  <text xml:space="preserve" text-anchor="start" font-family="Helvetica, Arial, sans-serif" font-size="24" id="svg_108" y="732.561445" x="933.332419" stroke-width="0" stroke="#000" fill="#000000">5</text>
  <text xml:space="preserve" text-anchor="start" font-family="Helvetica, Arial, sans-serif" font-size="24" id="svg_109" y="734.783661" x="1026.665476" stroke-width="0" stroke="#000" fill="#000000">5</text>
  <text xml:space="preserve" text-anchor="start" font-family="Helvetica, Arial, sans-serif" font-size="24" id="svg_110" y="737.005877" x="1088.887515" stroke-width="0" stroke="#000" fill="#000000">5</text>
  <text xml:space="preserve" text-anchor="start" font-family="Helvetica, Arial, sans-serif" font-size="24" id="svg_111" y="737.005877" x="1131.109612" stroke-width="0" stroke="#000" fill="#000000">5</text>
  <text xml:space="preserve" text-anchor="start" font-family="Helvetica, Arial, sans-serif" font-size="24" id="svg_112" y="737.005877" x="1186.665003" stroke-width="0" stroke="#000" fill="#000000">5</text>
  <text xml:space="preserve" text-anchor="start" font-family="Helvetica, Arial, sans-serif" font-size="24" id="svg_113" y="645.895035" x="1231.109316" stroke-width="0" stroke="#000" fill="#000000">5</text>
  <text xml:space="preserve" text-anchor="start" font-family="Helvetica, Arial, sans-serif" font-size="24" id="svg_114" y="565.895272" x="1171.109494" stroke-width="0" stroke="#000" fill="#000000">5</text>
  <text xml:space="preserve" text-anchor="start" font-family="Helvetica, Arial, sans-serif" font-size="24" id="svg_115" y="499.228802" x="1233.331532" stroke-width="0" stroke="#000" fill="#000000">5</text>
  <text xml:space="preserve" text-anchor="start" font-family="Helvetica, Arial, sans-serif" font-size="24" id="svg_116" y="439.22898" x="1177.776141" stroke-width="0" stroke="#000" fill="#000000">5</text>
  <text xml:space="preserve" text-anchor="start" font-family="Helvetica, Arial, sans-serif" font-size="24" id="svg_117" y="492.562155" x="1097.776377" stroke-width="0" stroke="#000" fill="#000000">5</text>
  <text xml:space="preserve" text-anchor="start" font-family="Helvetica, Arial, sans-serif" font-size="24" id="svg_118" y="441.451195" x="1004.44332" stroke-width="0" stroke="#000" fill="#000000">5</text>
  <text xml:space="preserve" text-anchor="start" font-family="Helvetica, Arial, sans-serif" font-size="24" id="svg_119" y="465.895567" x="942.221282" stroke-width="0" stroke="#000" fill="#000000">5</text>
  <text xml:space="preserve" text-anchor="start" font-family="Helvetica, Arial, sans-serif" font-size="24" id="svg_120" y="441.451195" x="862.221518" stroke-width="0" stroke="#000" fill="#000000">5</text>
  <text xml:space="preserve" text-anchor="start" font-family="Helvetica, Arial, sans-serif" font-size="24" id="svg_121" y="410.340176" x="955.554576" stroke-width="0" stroke="#000" fill="#000000">5</text>
  <text xml:space="preserve" text-anchor="start" font-family="Helvetica, Arial, sans-serif" font-size="24" id="svg_122" y="425.895686" x="782.221755" stroke-width="0" stroke="#000" fill="#000000">5</text>
  <text xml:space="preserve" text-anchor="start" font-family="Helvetica, Arial, sans-serif" font-size="24" id="svg_123" y="465.895567" x="702.221992" stroke-width="0" stroke="#000" fill="#000000">5</text>
  <text xml:space="preserve" text-anchor="start" font-family="Helvetica, Arial, sans-serif" font-size="24" id="svg_124" y="585.895212" x="793.332833" stroke-width="0" stroke="#000" fill="#000000">5</text>
  <text xml:space="preserve" text-anchor="start" font-family="Helvetica, Arial, sans-serif" font-size="24" id="svg_125" y="350.340354" x="213.334549" stroke-width="0" stroke="#000" fill="#000000">6</text>
  <text xml:space="preserve" text-anchor="start" font-family="Helvetica, Arial, sans-serif" font-size="24" id="svg_126" y="359.229216" x="273.334371" stroke-width="0" stroke="#000" fill="#000000">6</text>
  <text xml:space="preserve" text-anchor="start" font-family="Helvetica, Arial, sans-serif" font-size="24" id="svg_127" y="370.340295" x="368.889644" stroke-width="0" stroke="#000" fill="#000000">6</text>
  <text xml:space="preserve" text-anchor="start" font-family="Helvetica, Arial, sans-serif" font-size="24" id="svg_128" y="370.340295" x="446.667192" stroke-width="0" stroke="#000" fill="#000000">6</text>
  <text xml:space="preserve" text-anchor="start" font-family="Helvetica, Arial, sans-serif" font-size="24" id="svg_129" y="361.451432" x="535.555818" stroke-width="0" stroke="#000" fill="#000000">6</text>
  <text xml:space="preserve" text-anchor="start" font-family="Helvetica, Arial, sans-serif" font-size="24" id="svg_130" y="345.895922" x="320.0009" stroke-width="0" stroke="#000" fill="#000000">6</text>
  <text xml:space="preserve" text-anchor="start" font-family="Helvetica, Arial, sans-serif" font-size="24" id="svg_131" y="225.896277" x="368.889644" stroke-width="0" stroke="#000" fill="#000000">6</text>
  <text xml:space="preserve" text-anchor="start" font-family="Helvetica, Arial, sans-serif" font-size="24" id="svg_132" y="368.118079" x="606.666719" stroke-width="0" stroke="#000" fill="#000000">2</text>
  <text xml:space="preserve" text-anchor="start" font-family="Helvetica, Arial, sans-serif" font-size="24" id="svg_133" y="361.451432" x="666.666541" stroke-width="0" stroke="#000" fill="#000000">2</text>
  <text xml:space="preserve" text-anchor="start" font-family="Helvetica, Arial, sans-serif" font-size="24" id="svg_134" y="365.895863" x="728.888579" stroke-width="0" stroke="#000" fill="#000000">2</text>
  <text xml:space="preserve" text-anchor="start" font-family="Helvetica, Arial, sans-serif" font-size="24" id="svg_135" y="345.895922" x="968.88787" stroke-width="0" stroke="#000" fill="#000000">7</text>
  <text xml:space="preserve" text-anchor="start" font-family="Helvetica, Arial, sans-serif" font-size="24" id="svg_136" y="325.895982" x="1113.331887" stroke-width="0" stroke="#000" fill="#000000">7</text>
  <text xml:space="preserve" text-anchor="start" font-family="Helvetica, Arial, sans-serif" font-size="24" id="svg_137" y="339.229275" x="1213.331591" stroke-width="0" stroke="#000" fill="#000000">7</text>
  <text xml:space="preserve" text-anchor="start" font-family="Helvetica, Arial, sans-serif" font-size="24" id="svg_138" y="345.895922" x="882.221459" stroke-width="0" stroke="#000" fill="#000000">7</text>
  <text xml:space="preserve" text-anchor="start" font-family="Helvetica, Arial, sans-serif" font-size="24" id="svg_139" y="397.006882" x="888.888106" stroke-width="0" stroke="#000" fill="#000000">7</text>
  <text xml:space="preserve" text-anchor="start" font-family="Helvetica, Arial, sans-serif" font-size="24" id="svg_140" y="374.784726" x="826.666068" stroke-width="0" stroke="#000" fill="#000000">7</text>
  <text xml:space="preserve" text-anchor="start" font-family="Helvetica, Arial, sans-serif" font-size="24" id="svg_141" y="48.119025" x="20.001787" stroke-width="0" stroke="#000" fill="#000000">2</text>
 </g>
</svg>