<svg width="103" height="103" viewBox="0 0 103 103" fill="none" xmlns="http://www.w3.org/2000/svg">
<path d="M60.0622 4.09606C59.1472 2.49654 57.4479 1.50879 55.605 1.50879H47.3952C45.5522 1.50879 43.8529 2.49654 42.938 4.09606C41.7491 6.17477 40.2596 9.28489 39.6981 12.5946H63.302C62.7406 9.28509 61.2511 6.17477 60.0622 4.09606Z" fill="#858384"/>
<path d="M91.0742 24.0349C91.5584 22.2567 91.0551 20.3568 89.7521 19.0536L83.9469 13.2484C82.6437 11.9452 80.7438 11.4421 78.9657 11.9263C76.655 12.5554 73.4027 13.7015 70.6655 15.6448L87.356 32.3352C89.2991 29.5979 90.445 26.3453 91.0742 24.0349Z" fill="#858384"/>
<path d="M98.904 60.0622C100.504 59.1472 101.491 57.4479 101.491 55.605V47.3952C101.491 45.5522 100.504 43.8529 98.904 42.938C96.8253 41.7491 93.7152 40.2596 90.4055 39.6981V63.302C93.7152 62.7406 96.8253 61.2511 98.904 60.0622Z" fill="#858384"/>
<path d="M78.9655 91.0739C80.7437 91.5581 82.6435 91.0547 83.9467 89.7517L89.752 83.9465C91.0551 82.6433 91.5583 80.7435 91.0741 78.9653C90.445 76.6547 89.2989 73.4023 87.3556 70.6652L70.6652 87.3556C73.4025 89.2987 76.6551 90.4446 78.9655 91.0739Z" fill="#858384"/>
<path d="M42.938 98.9039C43.8529 100.504 45.5522 101.491 47.3952 101.491H55.605C57.4479 101.491 59.1472 100.503 60.0622 98.9039C61.2511 96.8252 62.7406 93.7151 63.302 90.4054H39.6981C40.2596 93.7149 41.7491 96.8252 42.938 98.9039Z" fill="#858384"/>
<path d="M11.9259 78.9651C11.4417 80.7433 11.945 82.6432 13.248 83.9464L19.0533 89.7516C20.3564 91.0548 22.2563 91.5579 24.0345 91.0737C26.3451 90.4446 29.5975 89.2985 32.3346 87.3552L15.6442 70.6648C13.7011 73.4021 12.5552 76.6547 11.9259 78.9651Z" fill="#858384"/>
<path d="M4.09606 42.938C2.49634 43.8529 1.50879 45.5522 1.50879 47.3952V55.605C1.50879 57.4479 2.49654 59.1472 4.09606 60.0622C6.17477 61.2511 9.28489 62.7406 12.5946 63.302V39.6981C9.28509 40.2596 6.17477 41.7491 4.09606 42.938Z" fill="#858384"/>
<path d="M24.0344 11.9261C22.2562 11.4418 20.3563 11.9452 19.0532 13.2482L13.2479 19.0534C11.9448 20.3566 11.4416 22.2564 11.9258 24.0346C12.5549 26.3453 13.701 29.5976 15.6443 32.3347L32.3347 15.6443C29.5976 13.7012 26.345 12.5553 24.0344 11.9261Z" fill="#858384"/>
<path d="M51.4998 10.8528C29.0511 10.8528 10.8527 29.0512 10.8527 51.5C10.8527 73.9487 29.0511 92.1471 51.4998 92.1471C73.9486 92.1471 92.147 73.9487 92.147 51.5C92.147 29.0512 73.9486 10.8528 51.4998 10.8528ZM51.4998 68.7062C41.9971 68.7062 34.2936 61.0027 34.2936 51.5C34.2936 41.9972 41.9971 34.2937 51.4998 34.2937C61.0026 34.2937 68.7061 41.9972 68.7061 51.5C68.7061 61.0027 61.0026 68.7062 51.4998 68.7062Z" fill="#BAB8B9"/>
<path d="M18.8995 51.5C18.8995 30.4091 34.9633 13.0713 55.5233 11.051C54.1996 10.921 52.8577 10.853 51.4998 10.853C29.0511 10.8528 10.8527 29.0512 10.8527 51.5C10.8527 73.9488 29.0511 92.1472 51.4998 92.1472C52.8577 92.1472 54.1996 92.0792 55.5233 91.9492C34.9633 89.9287 18.8995 72.5909 18.8995 51.5Z" fill="#9E9C9D"/>
<path d="M40.5149 25.8C41.3481 25.8 42.0237 25.1244 42.0237 24.2912V22.303C42.0237 21.4697 41.3481 20.7942 40.5149 20.7942C39.6816 20.7942 39.0061 21.4697 39.0061 22.303V24.2912C39.0061 25.1244 39.6816 25.8 40.5149 25.8Z" fill="black"/>
<path d="M62.4849 25.8C63.3181 25.8 63.9937 25.1244 63.9937 24.2912V22.303C63.9937 21.4697 63.3181 20.7942 62.4849 20.7942C61.6516 20.7942 60.9761 21.4697 60.9761 22.303V24.2912C60.9761 25.1244 61.6516 25.8 62.4849 25.8Z" fill="black"/>
<path d="M51.4999 26.861C52.992 26.861 54.3943 26.2358 55.3473 25.1456C55.8957 24.5182 55.8317 23.5652 55.2042 23.0166C54.577 22.4682 53.6238 22.5322 53.0752 23.1597C52.6954 23.5942 52.1213 23.8435 51.4999 23.8435C50.8784 23.8435 50.3043 23.5942 49.9245 23.1597C49.3759 22.5322 48.4227 22.4682 47.7955 23.0166C47.168 23.565 47.1039 24.5182 47.6525 25.1456C48.6054 26.2358 50.0076 26.861 51.4999 26.861Z" fill="black"/>
</svg>
