<svg width="101" height="101" viewBox="0 0 101 101" fill="none" xmlns="http://www.w3.org/2000/svg">
<path d="M42.4752 26.7271C42.4752 22.5237 37.69 20.1103 34.3095 22.6092L4.42378 44.7045C0.497736 47.6065 0.497736 53.4782 4.42378 56.3802L34.3095 78.4747C37.69 80.9736 42.4752 78.561 42.4752 74.3568C42.4752 74.3568 41.6831 68.3741 46.5523 67.4263C57.9552 65.2078 78.6211 64.0627 92.5769 78.2219C95.3031 80.9875 99.9658 78.7613 99.4873 74.9077C97.5724 59.5056 87.9642 35.2997 47.0424 31.6757C41.9944 31.228 42.4752 26.7271 42.4752 26.7271Z" fill="#ABEBF4"/>
<path d="M42.4752 58.0754V72.4781C42.6586 70.638 43.4723 68.0257 46.5523 67.4262C57.9552 65.2078 78.6211 64.0627 92.5768 78.2219C95.3031 80.9875 99.9658 78.7613 99.4873 74.9077C85.97 52.4502 60.5266 50.8698 48.75 51.4654C45.2323 51.6427 42.4752 54.5539 42.4752 58.0754Z" fill="#8ED7E8"/>
<path d="M100.955 74.7251C100.048 67.4263 97.2342 56.8425 88.9814 47.8731C79.6961 37.7817 65.6293 31.8368 47.1727 30.2016C45.6786 30.0691 44.1097 29.4442 43.9548 26.7279C43.813 24.2251 42.5647 21.9627 40.327 20.8338C38.0884 19.705 35.4462 19.9292 33.4304 21.4202L26.9599 26.2039C26.3026 26.6894 26.1639 27.6156 26.6494 28.2729C27.1356 28.9294 28.061 29.0689 28.7191 28.5835L35.1896 23.799C36.3192 22.9645 37.7409 22.8435 38.9946 23.4754C40.2306 24.0995 40.9758 25.29 40.9958 26.6701C40.958 27.188 40.9095 29.2431 42.3227 30.9622C43.3699 32.236 44.9134 32.9726 46.9115 33.1491C64.6114 34.7164 78.0332 40.3446 86.8038 49.8766C94.5265 58.2689 97.1649 68.22 98.0194 75.0904C98.1859 76.4342 97.3984 77.3235 96.6062 77.7072C95.801 78.0971 94.5966 78.1634 93.6311 77.1832C87.2423 70.702 78.8939 66.6765 68.8195 65.2186C59.9726 63.9379 51.6736 64.9235 46.2696 65.9745C45.3595 66.1518 44.5951 66.4685 43.9556 66.8838V59.9456C43.9556 59.128 43.2929 58.4661 42.4761 58.4661C41.6585 58.4661 40.9966 59.128 40.9966 59.9456C40.9966 59.9456 40.9226 73.8236 40.995 74.4415C40.9658 75.8093 40.2229 76.989 38.9946 77.6086C37.7409 78.2405 36.3185 78.1202 35.1896 77.2849L5.30305 55.1904C3.81355 54.0893 2.95898 52.3948 2.95898 50.5424C2.95898 48.6891 3.81355 46.9954 5.30305 45.8943L23.3821 32.528C24.0387 32.0425 24.1781 31.1163 23.6919 30.459C23.2065 29.8025 22.2802 29.663 21.6229 30.1485L3.54462 43.5148C1.29224 45.18 0 47.7413 0 50.5424C0 53.3426 1.29224 55.9047 3.54385 57.5699L33.4304 79.6645C34.5939 80.5244 37.2724 81.8182 40.327 80.2501C42.557 79.1058 43.9548 76.8634 43.9548 74.3568C43.9548 74.2951 43.5248 69.5723 46.8352 68.8788C51.9988 67.7977 59.9587 66.9262 68.3957 68.1468C77.8167 69.5099 85.5979 73.2495 91.5235 79.2607C93.2242 80.986 95.7247 81.4221 97.8961 80.3703C100.051 79.327 101.252 77.1108 100.955 74.7251V74.7251Z" fill="black"/>
</svg>
