<svg width="101" height="101" viewBox="0 0 101 101" fill="none" xmlns="http://www.w3.org/2000/svg">
<path d="M42.4752 26.7271C42.4752 22.5237 37.69 20.1103 34.3095 22.6092L4.42378 44.7045C0.497736 47.6065 0.497736 53.4782 4.42378 56.3802L34.3095 78.4747C37.69 80.9736 42.4752 78.561 42.4752 74.3568C42.4752 74.3568 41.6831 68.3741 46.5523 67.4263C57.9552 65.2078 78.6211 64.0627 92.5769 78.2219C95.3031 80.9875 99.9658 78.7613 99.4873 74.9077C97.5724 59.5056 87.9642 35.2997 47.0424 31.6757C41.9944 31.228 42.4752 26.7271 42.4752 26.7271Z" fill="#ABEBF4"/>
<path d="M42.4752 58.0754V72.4781C42.6586 70.638 43.4723 68.0257 46.5523 67.4262C57.9552 65.2078 78.6211 64.0627 92.5768 78.2219C95.3031 80.9875 99.9658 78.7613 99.4873 74.9077C85.97 52.4502 60.5266 50.8698 48.75 51.4654C45.2323 51.6427 42.4752 54.5539 42.4752 58.0754Z" fill="#8ED7E8"/>
</svg>
