<svg width="100" height="100" viewBox="0 0 100 100" fill="none" xmlns="http://www.w3.org/2000/svg">
<path d="M62.4164 97.4783C60.8822 97.4783 59.5058 96.4056 59.1793 94.8439C57.6687 87.6165 59.5379 75.4965 59.9445 73.567C60.3222 71.7779 62.0785 70.6327 63.8676 71.0096C65.6566 71.3873 66.8011 73.1436 66.4242 74.9327C65.9496 77.1826 64.5031 87.9469 65.6612 93.4896C66.0351 95.2795 64.8868 97.0343 63.097 97.4081C62.8689 97.4554 62.6407 97.4783 62.4164 97.4783Z" fill="#EFD176"/>
<path d="M80.3155 97.4782C78.7812 97.4782 77.4041 96.4055 77.0783 94.8437C75.5677 87.6157 77.4369 75.4956 77.8436 73.5661C78.2205 71.777 79.9767 70.6319 81.7666 71.0095C83.5557 71.3864 84.7001 73.1427 84.3232 74.9318C83.8487 77.1825 82.4014 87.946 83.5595 93.4895C83.9334 95.2794 82.7859 97.0334 80.996 97.4072C80.7679 97.4553 80.5398 97.4782 80.3155 97.4782Z" fill="#EFD176"/>
<path d="M37.6311 82.7896C37.6006 82.7896 37.5701 82.7896 37.5396 82.7888C35.7108 82.7827 34.2338 81.295 34.2406 79.4662C34.2475 77.642 35.7284 76.1673 37.551 76.1673C37.5815 76.1665 37.6121 76.1673 37.6426 76.1673C44.6303 76.1673 45.7198 72.8271 47.2587 62.5656C47.4402 61.3571 47.6279 60.1074 47.8438 58.8318C48.1498 57.0289 49.8603 55.8151 51.6616 56.121C53.4644 56.427 54.6783 58.136 54.3723 59.9388C54.1671 61.1519 53.984 62.3695 53.8077 63.5475C53.0913 68.3243 52.4146 72.8355 50.3242 76.3679C47.7675 80.6885 43.6149 82.7896 37.6311 82.7896Z" fill="#EFD176"/>
<path d="M53.0842 16.22C58.4804 19.9989 60.5259 27.0027 61.2507 30.6541C61.5139 31.9808 60.6167 33.2618 59.28 33.4686C55.6003 34.0362 48.3196 34.5092 42.9233 30.7311C37.5271 26.9523 35.4816 19.9485 34.7568 16.2971C34.4936 14.9703 35.3908 13.6886 36.7275 13.4826C40.4064 12.915 47.6871 12.4412 53.0842 16.22Z" fill="#8EE2CF"/>
<path d="M51.2383 27.2065C50.9483 27.2065 50.6554 27.1203 50.399 26.9417L43.927 22.4099C43.2648 21.946 43.103 21.032 43.5677 20.3698C44.0315 19.7068 44.9448 19.5458 45.6078 20.0097L52.0798 24.5415C52.742 25.0054 52.9038 25.9194 52.4391 26.5816C52.1546 26.989 51.6998 27.2065 51.2383 27.2065Z" fill="#6FCE91"/>
<path d="M71.0112 13.0592C67.2323 18.4555 67.7061 25.7362 68.2737 29.4159C68.4805 30.7526 69.7607 31.6498 71.0882 31.3858C74.7397 30.6618 81.7434 28.6163 85.5215 23.2193C89.3004 17.823 88.8273 10.5423 88.259 6.86339C88.053 5.52596 86.772 4.6295 85.4452 4.89272C81.793 5.61751 74.79 7.66295 71.0112 13.0592Z" fill="#8EE2CF"/>
<path d="M75.9995 22.8401C75.7096 22.8401 75.4166 22.7547 75.161 22.5754C74.498 22.1115 74.3371 21.1983 74.8009 20.5353L79.3328 14.0633C79.7967 13.4003 80.7099 13.2393 81.3729 13.7032C82.0351 14.167 82.1969 15.0803 81.7322 15.7433L77.2004 22.2153C76.9158 22.6227 76.4611 22.8401 75.9995 22.8401Z" fill="#6FCE91"/>
<path d="M71.1798 15.4274C72.3234 21.9154 68.8177 28.3135 66.7479 31.4079C65.9964 32.5325 64.456 32.8041 63.365 32.0046C60.3613 29.805 54.8789 24.9916 53.7344 18.5036C52.5908 12.0155 56.0965 5.61677 58.1664 2.52229C58.9186 1.39848 60.4582 1.12687 61.55 1.92567C64.5529 4.12599 70.0362 8.93937 71.1798 15.4274Z" fill="#8EE2CF"/>
<path d="M63.1418 22.3206C62.4445 22.3206 61.8265 21.8209 61.7006 21.1098L60.3288 13.3294C60.1885 12.5321 60.721 11.773 61.5175 11.6326C62.3148 11.4922 63.0739 12.024 63.2143 12.8205L64.586 20.6017C64.7264 21.3982 64.1947 22.1581 63.3981 22.2985C63.3119 22.3137 63.2265 22.3206 63.1418 22.3206Z" fill="#6FCE91"/>
<path d="M64.122 26.4038C77.5802 24.031 89.0693 32.9338 93.1892 48.7579C97.4746 65.2175 93.3906 78.7796 73.9609 82.2052C54.5318 85.6307 46.0556 74.2843 44.4526 57.3509C42.9123 41.0728 50.6637 28.7773 64.122 26.4038Z" fill="#F7EF87"/>
<path d="M56.3235 29.2213C47.7801 34.2064 43.2406 44.5457 44.4529 57.3509C46.0512 74.237 54.4863 85.5659 73.8009 82.2319C47.8449 72.0283 49.5669 45.0584 56.3235 29.2213Z" fill="#EFD176"/>
<path d="M65.1228 47.3892C64.8322 47.3892 64.5392 47.303 64.2836 47.1237C63.6214 46.6599 63.4604 45.7466 63.9243 45.0836L65.8728 42.3012C66.0956 41.9823 66.4359 41.7656 66.8181 41.6985C67.2011 41.6306 67.5948 41.7183 67.9129 41.9411L70.6961 43.8904C71.3591 44.3543 71.5201 45.2675 71.0555 45.9297C70.5916 46.5927 69.6784 46.7537 69.0161 46.2898L67.4323 45.1813L66.3237 46.7644C66.0391 47.171 65.5844 47.3892 65.1228 47.3892Z" fill="#EFD176"/>
<path d="M78.6499 45.0035C78.36 45.0035 78.067 44.918 77.8114 44.7387C77.1484 44.2749 76.9875 43.3616 77.4513 42.6986L79.4006 39.9154C79.8645 39.2524 80.7777 39.0915 81.4407 39.5553L84.2239 41.5046C84.8862 41.9685 85.0471 42.8817 84.5833 43.544C84.1194 44.207 83.2062 44.3679 82.5432 43.9041L80.9601 42.7955L79.8515 44.3786C79.5662 44.786 79.1122 45.0035 78.6499 45.0035Z" fill="#EFD176"/>
<path d="M51.5953 49.7741C51.3054 49.7741 51.0125 49.6887 50.7569 49.5094C50.0939 49.0455 49.9329 48.1323 50.3968 47.4693L52.3461 44.6861C52.5688 44.3679 52.9091 44.1513 53.2913 44.0833C53.6736 44.0154 54.068 44.1032 54.3862 44.326L57.1694 46.2753C57.8316 46.7391 57.9933 47.6524 57.5287 48.3154C57.0648 48.9776 56.1516 49.1386 55.4886 48.6747L53.9055 47.5662L52.797 49.15C52.5116 49.5567 52.0577 49.7741 51.5953 49.7741Z" fill="#EFD176"/>
<path d="M76.7765 73.9278C76.4866 73.9278 76.1936 73.8416 75.938 73.6623C75.275 73.1984 75.114 72.2852 75.5779 71.623L77.5272 68.8398C77.9911 68.1768 78.9043 68.0158 79.5673 68.4796L82.3505 70.4282C83.0128 70.8928 83.1737 71.8061 82.7099 72.4683C82.246 73.1313 81.332 73.2923 80.6698 72.8284L79.0867 71.7198L77.9781 73.3029C77.6928 73.7096 77.2388 73.9278 76.7765 73.9278Z" fill="#EFD176"/>
<path d="M63.249 76.3128C62.9584 76.3128 62.6654 76.2273 62.4098 76.048C61.7476 75.5842 61.5858 74.6709 62.0505 74.0079L63.999 71.2247C64.4636 70.5625 65.3761 70.4008 66.0391 70.8654L68.8223 72.8139C69.4853 73.2778 69.6463 74.191 69.1824 74.854C68.7185 75.5163 67.8045 75.6773 67.1423 75.2134L65.5585 74.1048L64.4499 75.6887C64.1653 76.0953 63.7106 76.3128 63.249 76.3128Z" fill="#EFD176"/>
<path d="M59.2291 65.4433C58.7805 62.8981 55.8264 61.2921 52.6304 61.8551C49.4352 62.4182 47.2082 64.9382 47.6568 67.4834C48.1054 70.0278 51.0595 71.6345 54.2547 71.0715C57.4507 70.5076 59.6777 67.9884 59.2291 65.4433Z" fill="#EDA1AB"/>
<path d="M79.0273 61.9476C79.4759 64.492 82.43 66.0987 85.626 65.5357C88.8219 64.9719 91.0482 62.4527 90.5996 59.9075C90.151 57.3623 87.1969 55.7563 84.0017 56.3194C80.8057 56.8832 78.5787 59.4024 79.0273 61.9476Z" fill="#EDA1AB"/>
<path d="M37.238 83.0808C36.5338 83.0808 35.8311 82.8123 35.294 82.2752L26.8833 73.8645C25.8099 72.7911 25.8099 71.0508 26.8833 69.9766C27.9568 68.9031 29.6978 68.9031 30.7713 69.9766L39.1819 78.388C40.2554 79.4615 40.2554 81.2017 39.1819 82.2752C38.6448 82.8123 37.9414 83.0808 37.238 83.0808Z" fill="#E1B89A"/>
<path d="M33.5149 68.9573C33.5149 73.1832 30.0893 76.6088 25.8633 76.6088C21.6374 76.6088 18.2111 73.1832 18.2111 68.9573C18.2111 64.7314 21.6374 61.3058 25.8633 61.3058C30.0893 61.3058 33.5149 64.7314 33.5149 68.9573Z" fill="#7ACEFA"/>
<path d="M23.3907 61.7147C22.112 62.1496 20.9325 62.9286 20.0017 64.0386C19.8445 64.2256 19.6996 64.4186 19.563 64.6154L30.2052 75.2569C30.7584 74.8754 31.2711 74.4154 31.7242 73.876C32.3506 73.1298 32.8076 72.2982 33.1044 71.4285L23.3907 61.7147Z" fill="#A3DEFE"/>
<path d="M84.2487 70.2727C81.2045 70.2727 78.0124 69.4297 75.0095 67.7817C73.4065 66.9021 72.8198 64.8894 73.6995 63.2865C74.5792 61.6828 76.5926 61.0969 78.1955 61.9765C81.2732 63.6657 84.5111 64.1066 87.0792 63.1858C89.3131 62.3847 91.019 60.5452 92.1481 57.7193C92.8272 56.0218 94.7543 55.1955 96.4519 55.8745C98.1494 56.5528 98.9757 58.48 98.2974 60.1775C95.975 65.9858 92.1306 68.4089 89.3138 69.419C87.7193 69.9904 86.0088 70.2727 84.2487 70.2727Z" fill="#EFD176"/>
<path d="M42.7731 94.8979C42.7731 92.8899 38.7982 91.261 33.8948 91.261C28.9914 91.261 25.0165 92.8899 25.0165 94.8979C25.0165 96.9067 28.9914 98.5349 33.8948 98.5349C38.7982 98.5349 42.7731 96.9067 42.7731 94.8979Z" fill="#E1B89A"/>
<path d="M19.2215 86.453C19.2215 84.4442 15.2466 82.816 10.3432 82.816C5.43976 82.816 1.46484 84.4442 1.46484 86.453C1.46484 88.461 5.43976 90.0899 10.3432 90.0899C15.2466 90.0899 19.2215 88.461 19.2215 86.453Z" fill="#E1B89A"/>
<path d="M81.7098 54.6312C81.5694 53.8347 80.8095 53.3029 80.013 53.4433C79.2157 53.5837 78.684 54.3435 78.8244 55.14L79.1845 57.1832C79.3103 57.8942 79.9283 58.394 80.6257 58.394C80.7096 58.394 80.7958 58.3871 80.8812 58.3718C81.6785 58.2315 82.2103 57.4716 82.0699 56.6751L81.7098 54.6312ZM33.8942 89.7972C28.7543 89.7972 23.5511 91.5489 23.5511 94.899C23.5511 98.2483 28.7543 100 33.8942 100C39.0341 100 44.2374 98.2475 44.2374 94.899C44.2374 91.5497 39.0341 89.7972 33.8942 89.7972ZM33.8942 97.0703C28.7795 97.0703 26.4808 95.3438 26.4808 94.8982C26.4808 94.4527 28.7795 92.7261 33.8942 92.7261C39.009 92.7261 41.3077 94.4527 41.3077 94.8982C41.3077 95.3438 39.009 97.0703 33.8942 97.0703ZM96.9945 54.5137C96.5977 54.355 96.1919 54.255 95.786 54.207C95.5205 52.3355 95.1268 50.3854 94.6065 48.3888C92.5 40.2979 88.5045 33.7992 83.051 29.5969C82.652 29.2895 82.2469 28.9972 81.8364 28.7173C83.8452 27.389 85.4833 25.8288 86.7215 24.0603C88.2619 21.8607 89.2903 19.1866 89.7786 16.1135C89.906 15.3147 89.3605 14.564 88.5617 14.4374C87.7645 14.3115 87.0122 14.8554 86.8855 15.6542C86.4675 18.2841 85.6046 20.547 84.3221 22.3795C83.0564 24.1877 81.2574 25.7494 78.9724 27.0327C76.666 25.8799 74.2238 25.1246 71.6856 24.7782C72.8315 21.3831 73.1489 18.159 72.6224 15.1728C72.5385 14.6952 72.4309 14.2268 72.3066 13.7667C73.8515 11.6244 77.5953 7.944 85.7305 6.32963C85.9761 6.2808 86.2256 6.33344 86.4324 6.47764C86.6384 6.6226 86.7734 6.83851 86.8115 7.08646C86.9145 7.75403 86.9977 8.43533 87.058 9.11206C87.1297 9.91772 87.8407 10.5128 88.6464 10.4419C89.4521 10.3701 90.0479 9.65832 89.9754 8.85266C89.9098 8.11337 89.8198 7.36875 89.7069 6.64014C89.5459 5.59492 88.9798 4.68474 88.1124 4.0782C87.2457 3.4709 86.1966 3.24965 85.1598 3.45564C81.561 4.16975 75.2767 6.0214 71.108 10.6028C68.8543 5.99317 64.9305 2.58666 62.4159 0.744167C61.5629 0.119321 60.5192 -0.124056 59.477 0.0605751C58.4349 0.24368 57.5369 0.829616 56.9494 1.70852C55.216 4.29945 52.6938 8.84274 52.1528 13.9453C46.6681 11.0659 40.1297 11.4756 36.5035 12.0356C35.4583 12.1966 34.5488 12.7627 33.9415 13.6302C33.335 14.4969 33.1138 15.5451 33.3197 16.5827C34.1124 20.5782 36.3051 27.8856 42.0828 31.9307C43.8513 33.1698 45.9242 34.0754 48.2664 34.6369C47.9765 35.0397 47.6958 35.4532 47.4257 35.8789C43.7384 41.6925 42.2064 49.1655 42.9945 57.4891C43.3424 61.1695 43.994 64.4868 44.9416 67.4355C43.7254 73.3292 42.3056 74.7025 37.6471 74.7025H37.6273C37.6067 74.7025 37.5876 74.7025 37.5678 74.7025L34.558 71.6935C35.6261 68.2839 34.6259 64.4097 31.7229 61.9737C27.8724 58.7426 22.1107 59.2469 18.8796 63.0975C17.3141 64.9629 16.5687 67.3257 16.7816 69.7518C16.9937 72.1772 18.1381 74.3752 20.0034 75.9408C21.6605 77.3308 23.7098 78.0739 25.8475 78.0739C26.1161 78.0739 26.3869 78.0625 26.6578 78.0388C27.3253 77.9808 27.9754 77.8489 28.6002 77.6535L34.2574 83.3107C35.0539 84.1065 36.1121 84.5452 37.2374 84.5452C37.8043 84.5452 38.3536 84.433 38.8617 84.2209C44.2831 83.9562 48.3687 81.8634 51.0229 77.9923C51.7096 78.6889 52.4359 79.332 53.2049 79.9187C54.4844 80.893 55.8737 81.7009 57.3645 82.3487C57.0677 86.2473 56.941 91.2972 57.7444 95.1431C58.2045 97.345 60.169 98.9425 62.4159 98.9425C62.7432 98.9425 63.0728 98.9082 63.3962 98.8411C65.9742 98.3024 67.6328 95.7672 67.0942 93.1892C66.6723 91.169 66.5762 88.1027 66.8104 84.269C67.0118 84.2728 67.2117 84.2789 67.4154 84.2789C69.557 84.2789 71.8252 84.0683 74.2147 83.6472C74.5428 83.5892 74.8655 83.5274 75.1859 83.4641C74.954 87.1498 74.9128 91.6451 75.6437 95.1431C76.1037 97.345 78.0683 98.9425 80.3151 98.9425C80.6424 98.9425 80.972 98.9082 81.2955 98.8411C82.5437 98.5801 83.6164 97.8485 84.3152 96.7811C85.0133 95.7138 85.2544 94.4382 84.9935 93.1892C84.2069 89.4241 84.7295 83.1536 85.0797 79.9714C86.276 79.2992 87.3815 78.5569 88.3862 77.7398C91.6493 75.0863 93.916 71.6538 95.1344 67.537C96.8259 65.9577 98.4395 63.7666 99.6564 60.7202C100.634 58.2757 99.4397 55.4918 96.9945 54.5137ZM21.8864 73.697C20.6207 72.635 19.844 71.1434 19.6998 69.497C19.5556 67.8506 20.0614 66.2469 21.1234 64.9812C22.3457 63.5247 24.1012 62.7732 25.8681 62.7732C27.2719 62.7732 28.6834 63.2478 29.84 64.2182C32.453 66.4109 32.7948 70.321 30.6022 72.9348C28.4095 75.5478 24.4994 75.8896 21.8864 73.697V73.697ZM38.1453 81.2401C37.9027 81.4827 37.5807 81.6162 37.2374 81.6162C36.8949 81.6162 36.5721 81.4827 36.3295 81.2401L31.3376 76.2482C31.8869 75.8339 32.3943 75.3571 32.8467 74.8177C32.9535 74.6911 33.055 74.5621 33.1534 74.4309L35.9694 77.2477C35.9717 77.25 35.974 77.2515 35.9763 77.2538L38.1453 79.4236C38.6458 79.924 38.6458 80.7389 38.1453 81.2401ZM59.384 3.33663C59.5236 3.12834 59.7372 2.98873 59.9852 2.94524C60.2331 2.90099 60.4818 2.95897 60.684 3.10775C63.616 5.25541 68.6903 9.74453 69.737 15.6817C70.2131 18.3817 69.8469 21.3641 68.6552 24.5592C67.085 24.544 65.4859 24.676 63.8677 24.9613C62.248 25.2474 60.7008 25.6693 59.2306 26.2209C57.0173 23.6262 55.6532 20.949 55.1771 18.249C54.1304 12.3118 57.3637 6.35786 59.384 3.33663ZM43.7628 29.5313C41.6434 28.0466 37.8409 24.3166 36.1937 16.0121C36.1449 15.7656 36.1968 15.5162 36.3417 15.3102C36.4859 15.1034 36.7026 14.9691 36.9506 14.931C45.1476 13.6653 49.9243 15.8435 52.1086 17.3281C52.149 17.8027 52.2085 18.2795 52.2925 18.7579C52.8189 21.744 54.2204 24.6645 56.4581 27.463C54.1914 28.657 52.1544 30.2019 50.3813 32.0742C47.7949 31.65 45.571 30.797 43.7628 29.5313ZM41.397 80.9662C41.5854 79.7203 41.2169 78.4081 40.2892 77.4323C43.772 76.8525 45.584 75.0039 46.7467 71.9079C47.4257 73.2682 48.1894 74.5209 49.0362 75.6646C47.3334 78.518 44.8164 80.2658 41.397 80.9662V80.9662ZM62.7981 95.974C62.6715 95.9999 62.5425 96.0136 62.4159 96.0136C61.5492 96.0136 60.7908 95.3956 60.6123 94.5442C59.9287 91.2704 59.9905 86.9278 60.2293 83.3596C61.3958 83.6823 62.6158 83.9196 63.8876 84.0714C63.6976 87.2048 63.6503 91.0309 64.2271 93.7897C64.4346 94.7861 63.793 95.7657 62.7981 95.974ZM81.8631 95.1774C81.5931 95.5902 81.1788 95.8732 80.6966 95.974C80.57 95.9999 80.4418 96.0136 80.3151 96.0136C79.4477 96.0136 78.6893 95.3956 78.5116 94.545C77.786 91.0721 77.9012 86.3938 78.1705 82.7568C79.5141 82.3845 80.7866 81.9527 81.9867 81.4606C81.664 85.0311 81.3939 90.287 82.1256 93.7897C82.2263 94.2718 82.1332 94.7647 81.8631 95.1774ZM76.4806 80.1758C76.4768 80.1766 76.473 80.1773 76.4692 80.1781C75.5826 80.3994 74.6618 80.5939 73.7066 80.7625C65.8621 82.1457 59.5617 81.0776 54.9803 77.5879C53.8855 76.754 52.886 75.7828 51.9812 74.6781C51.9461 74.6285 51.9072 74.582 51.8667 74.537C50.215 72.4824 48.8867 69.9715 47.8873 67.0182C47.8651 66.9198 47.8331 66.8244 47.7919 66.7329C46.8764 63.9443 46.2469 60.7682 45.9113 57.2129C45.1849 49.5424 46.5643 42.708 49.8999 37.4475C50.5339 36.4473 51.2327 35.5173 51.9903 34.6582C52.0094 34.6392 52.0262 34.6186 52.0445 34.5987C55.213 31.0343 59.416 28.7211 64.3759 27.8467C66.1146 27.54 67.8266 27.4317 69.4975 27.5172C69.5043 27.5179 69.5112 27.5179 69.5181 27.5187C73.7768 27.7407 77.77 29.2254 81.2627 31.9178C86.1966 35.7195 89.8297 41.6704 91.7714 49.1273C92.278 51.0728 92.6579 52.9657 92.9074 54.7746C91.9774 55.2888 91.2122 56.1143 90.7872 57.1763C89.8206 59.5956 88.4061 61.1535 86.5842 61.8073C84.4106 62.5863 81.6098 62.1797 78.8991 60.6927C77.7807 60.0793 76.4905 59.9374 75.266 60.2944C74.0407 60.6507 73.0283 61.4633 72.4149 62.5817C71.8008 63.7002 71.6596 64.9903 72.0167 66.2148C72.373 67.4401 73.1855 68.4525 74.304 69.0659C77.4892 70.8138 80.9278 71.7377 84.2481 71.7377C86.1974 71.7377 88.0681 71.4219 89.8076 70.7978C90.1235 70.6849 90.4508 70.5552 90.7872 70.4072C88.1307 75.1923 83.3402 78.4653 76.4806 80.1758V80.1758ZM96.9365 59.6337C94.817 64.9362 91.3525 67.1319 88.8188 68.0398C87.3975 68.5494 85.8602 68.8081 84.2481 68.8081C81.4191 68.8081 78.4681 68.0093 75.7139 66.4971C75.2813 66.2598 74.9677 65.8685 74.8296 65.3954C74.6915 64.9217 74.7465 64.4235 74.9837 63.9909C75.221 63.5583 75.6124 63.2447 76.0854 63.1066C76.2563 63.057 76.431 63.0326 76.6042 63.0326C76.9109 63.0326 77.2138 63.1097 77.49 63.2607C80.9354 65.1513 84.6105 65.6266 87.573 64.5646C90.2196 63.6155 92.2162 61.4961 93.5078 58.2635C93.8863 57.3182 94.9628 56.8574 95.9073 57.2343C96.8526 57.612 97.3141 58.6885 96.9365 59.6337V59.6337ZM10.3431 81.3515C5.20323 81.3515 0 83.104 0 86.4533C0 89.8026 5.20323 91.555 10.3431 91.555C10.6033 91.555 10.8604 91.5504 11.1145 91.5421C11.9232 91.5154 12.5572 90.8379 12.5305 90.0291C12.5038 89.2204 11.8225 88.5864 11.0176 88.6139C10.7956 88.6215 10.5705 88.6253 10.3431 88.6253C5.22841 88.6253 2.92968 86.8988 2.92968 86.4533C2.92968 86.0077 5.22841 84.2812 10.3431 84.2812C15.4579 84.2812 17.7566 86.0077 17.7566 86.4533C17.7566 86.5105 17.6292 86.805 17.0074 87.1956C16.323 87.6259 16.117 88.5307 16.5473 89.2151C16.9784 89.9002 17.8825 90.1062 18.5668 89.6759C20.3185 88.5742 20.6863 87.3154 20.6863 86.4533C20.6863 83.104 15.483 81.3515 10.3431 81.3515V81.3515ZM57.0906 58.9723C56.9502 58.1758 56.1911 57.644 55.3938 57.7844C54.5973 57.9248 54.0648 58.6846 54.2051 59.4812L54.566 61.5243C54.6911 62.2354 55.3091 62.7351 56.0064 62.7351C56.0911 62.7351 56.1766 62.7275 56.2628 62.713C57.0593 62.5726 57.5911 61.8127 57.4507 61.0154L57.0906 58.9723ZM77.6029 52.2256C77.7692 52.2256 77.9386 52.1966 78.1034 52.1371L81.7441 50.8119C82.504 50.535 82.8962 49.6942 82.62 48.9343C82.343 48.1737 81.5023 47.7823 80.7424 48.0585L77.1016 49.3837C76.341 49.6606 75.9496 50.5014 76.2258 51.2613C76.4425 51.8556 77.004 52.2256 77.6029 52.2256ZM70.7845 57.9095C69.9148 57.6448 68.9794 57.5891 68.0792 57.7478C67.1797 57.9065 66.3198 58.2788 65.5927 58.8243C64.9458 59.3103 64.8153 60.2288 65.3013 60.8758C65.5889 61.2588 66.0284 61.461 66.4732 61.461C66.7791 61.461 67.0881 61.3648 67.3521 61.1672C67.7175 60.8926 68.1333 60.7125 68.588 60.6324C69.0435 60.5531 69.4952 60.5798 69.9323 60.7125C70.7059 60.9475 71.5246 60.5111 71.7603 59.7367C71.9953 58.9631 71.5589 58.1445 70.7845 57.9095V57.9095ZM56.951 54.1688H53.0775C52.268 54.1688 51.6127 54.8249 51.6127 55.6337C51.6127 56.4424 52.268 57.0985 53.0775 57.0985H56.951C57.7604 57.0985 58.4158 56.4424 58.4158 55.6337C58.4158 54.8249 57.7604 54.1688 56.951 54.1688Z" fill="black"/>
</svg>
