<svg width="1260" height="752" viewBox="0 0 1260 752" fill="none" xmlns="http://www.w3.org/2000/svg">
<path d="M-0.0100098 751.77V0H1259.86V751.77H-0.0100098ZM974.06 699.95C973.85 698.27 973.77 697.11 973.56 695.95C970.267 677.457 968.458 658.731 968.15 639.95C967.737 620.149 969.315 600.356 972.86 580.87C978.2 551.19 988.5 523.6 1006.86 499.35C1007.7 498.23 1008.34 496.95 1009.17 495.58C991.703 489.516 973.458 485.98 954.99 485.08C935.78 484.02 916.81 486.31 898.11 490.84C879.64 495.31 877.11 497.15 868.11 513.84C854.4 539.3 850.48 566.84 850.99 595.31C851.13 596.314 851.508 597.27 852.09 598.1C851.6 600.57 851.03 602.17 851.02 603.78C851.02 611.27 851.38 618.78 851.19 626.26C850.86 638.99 851.92 651.9 846.91 664.26C857.65 677.89 868.33 691.51 879.14 705.02C880.255 706.43 881.83 707.403 883.59 707.77C893.3 708.99 903.05 710.77 912.78 710.69C924.396 710.491 935.985 709.516 947.47 707.77C956.656 706.421 965.606 703.788 974.06 699.95ZM543.21 62.16C544.21 49.93 551.21 41.75 561.68 36.28C586.14 23.53 614.52 29.84 631.05 51.47H644.92C641.65 35.32 638.44 19.47 635.19 3.39H545.52C531.6 11.21 518.9 19.25 505.42 25.67C489.87 33.09 473.62 39.02 457.72 45.67C451.63 48.23 445.72 51.08 439.34 53.95C447.61 113.28 456.93 171.73 469.44 230.13C496.37 225.03 522.71 219.41 549.18 212.98C545.66 182.98 547.91 154.16 559.27 125.98C557.02 125.98 555.53 125.98 554.04 125.98C541.045 125.633 528.28 122.478 516.62 116.73C511.24 114.02 506.29 110.68 502.73 105.6C496.73 97.04 497.39 87.24 504.67 79.69C509.895 74.2738 516.362 70.2132 523.51 67.86C529.8 65.74 536.26 64.14 543.21 62.16ZM889.9 366.47L926.25 400.81C939.14 398.16 950.42 392.81 959.99 384.2C983.836 388.538 1008.3 388.127 1031.99 382.99C1052.99 398.46 1076.99 402.83 1103.16 403.08C1077.31 364.63 1055.94 324.84 1042.09 281.14C1004.97 286.51 968.277 294.551 932.31 305.2C917.108 324.865 902.952 345.317 889.9 366.47ZM383.99 479.35C351.94 468.65 319.45 465.09 286.16 471.04C265.315 474.603 245.168 481.452 226.47 491.33C227.47 503.86 231.31 514.72 238.78 524.09C246.25 533.46 254 543.03 261.96 552.2C274.43 566.58 286.34 581.27 293.18 599.36C293.27 599.6 293.69 599.72 294.18 600.08C327.28 586.71 361.94 578.96 397.07 575.71C392.65 543.33 388.31 511.47 383.99 479.35ZM622.65 195.72C626.81 217.72 627.15 239.55 625.12 261.53C622.924 283.638 618.412 305.454 611.66 326.62L707.87 331.74L744.7 234.55C725.65 213.21 709.27 189.2 694.2 164.69C682.37 170.41 671.05 176.34 659.37 181.4C647.52 186.54 635.3 190.83 622.65 195.72ZM1012.04 498.26C1010.84 499.63 1010.16 500.35 1009.55 501.12C1000.69 512.58 993.49 525.231 988.16 538.7C976.41 567.56 971.58 597.87 971.43 628.81C971.35 646.07 973.01 663.36 974.27 680.61C974.74 687 976.27 693.31 977.33 699.34C999.67 708.21 1053.27 707.48 1067.98 698.34C1043.25 659.56 1047.53 621.22 1070.06 583.19C1053.4 553.17 1033.93 525.29 1012.04 498.26ZM134.4 558.17C160.53 530.66 189.29 506.72 222.91 489.34C221.69 454.98 234.12 424.79 249.63 394.16C211.17 406.67 174.32 402.71 137.68 391.98C137.424 392.502 137.21 393.044 137.04 393.6C132.72 414.6 127.7 435.36 120.96 455.71C114.96 473.71 109.19 491.78 98.82 507.88C95.15 513.58 91.09 519.02 87.23 524.54C96.29 533.95 121.7 552.09 134.4 558.17ZM664.99 498.32C655.99 520.78 643.99 540.39 630.52 559.32C658.05 599.24 685.93 638.22 714.58 676.66L754.4 610.08C753.65 609.43 752.95 608.75 752.16 608.17C743.16 601.49 734.56 594.45 727.28 585.9C723.28 581.25 720.38 576.11 719.46 569.99C718.36 562.62 722.54 558.61 729.71 560.36C733.566 561.275 737.339 562.509 740.99 564.05C750.75 568.27 760.39 572.76 770.08 577.13C771.7 577.86 773.37 578.51 775.15 579.26L791.42 555.75C774.084 538.896 758.164 520.644 743.82 501.18C730.73 506.71 717.44 508.68 703.89 508.51C690.34 508.34 677.07 506.61 664.99 498.32ZM215.46 227.11C215.24 225.66 215.11 224.17 214.8 222.73C209.706 198.633 203.215 174.853 195.36 151.51C189.36 134.01 182.52 116.88 173.15 100.86C171.84 98.63 170.42 96.48 168.84 93.97C153.95 123.97 135.32 151.2 123.91 181.84L117.42 182.95C97.89 186.25 79.17 191.95 62.22 202.47C56.7389 205.94 51.5635 209.871 46.75 214.22C41.6 218.78 41.64 224.12 46.45 229.04C48.4699 231.016 50.7232 232.739 53.16 234.17C60.46 238.7 68.55 241.28 76.84 243.17C108.59 250.46 140.54 250.88 172.59 245.44C183.44 243.6 194.12 241.04 204.01 235.96C208.31 233.74 212.46 231.3 215.46 227.11ZM563.46 123.77C564.93 133.65 570.87 140.88 579.68 145.96C587.354 150.452 596.098 152.788 604.99 152.72C620.5 152.64 634.1 147.88 643.99 135.07C655.33 137.54 666.59 139.07 678.6 136.47C665.372 110.376 654.589 83.113 646.39 55.03H628.79C624.55 47.66 622.42 45.2 617.35 41.66C601.35 30.55 575.14 30.56 559.19 41.66C553.56 45.58 549.19 50.53 547.54 57.33C547.055 60.0006 546.741 62.6994 546.6 65.41C545.44 65.62 544.32 65.86 543.2 66.03C535.121 67.1878 527.261 69.5472 519.88 73.03C514.13 75.8 508.82 79.23 505.1 84.6C500.89 90.69 500.71 97.29 505.26 103.12C507.777 106.205 510.708 108.928 513.97 111.21C520.279 115.627 527.5 118.57 535.1 119.82C544.18 121.48 553.45 122.42 563.45 123.77H563.46ZM134.99 388.03C136.06 380.34 136.85 372.57 138.3 364.93C140.08 356.562 138.821 347.834 134.75 340.31C133.157 337.202 131.404 334.178 129.5 331.25C119.38 316.25 106.04 304.55 91.39 294.25C87.22 291.31 82.9 288.59 78.78 285.85C67.27 292.95 55.15 296.76 42.47 299.09C29.6541 301.616 16.5581 302.416 3.52999 301.47V386.47C40.39 405.14 90.33 406.34 134.99 388.03ZM785.29 161.85C771.36 185.49 759.87 209.76 748.93 234.61C780.93 269.24 816.53 299.84 851.73 331.9C872.57 301.62 891.01 270.73 902.18 235.6C855.08 223.42 815.81 199.95 785.29 161.85ZM1100.38 118.39C1100.59 117.633 1100.72 116.855 1100.76 116.07C1098.09 98.48 1090.96 82.99 1078.57 70.07C1066.96 58.01 1052.65 50.54 1036.69 45.97C1035.17 45.53 1033.69 44.97 1031.86 44.41C1032.6 43.16 1033.06 42.28 1033.62 41.47C1034.35 40.3636 1035.15 39.2955 1035.99 38.27C1051.92 19.47 1072.66 12.8 1096.6 14.48C1101.99 14.86 1107.34 15.86 1113.18 16.64C1110.92 11.04 1108.06 6.52 1103.43 3.11C1080.61 3.11 1057.79 3.24 1034.97 3.01C1030.12 2.80947 1025.37 4.40458 1021.62 7.49C1018.4 10.12 1014.98 12.67 1012.38 15.86C1005.88 23.86 999.78 32.16 993.56 40.38C992.42 41.88 991.44 43.51 989.9 45.8C986.99 30.89 985.09 16.6 979.67 3.58H919.52C919.952 4.32508 920.444 5.03405 920.99 5.7C928.13 12.7 932.29 21.24 934.19 30.92C935.19 36.11 935.19 41.55 936.58 46.62C940.58 61.36 947.19 74.97 957.02 86.79C965.43 96.9 975.6 104.49 989.02 106.44C996.31 107.5 1003.85 107.98 1010.56 104.44C1031.78 93.29 1053.16 93.21 1074.9 102.5C1084.16 106.456 1092.75 111.816 1100.38 118.39ZM514.77 391.87C498.865 398.216 481.95 401.654 464.83 402.02C447.52 402.48 430.7 399.59 413.14 394.35C421.55 421.1 438.61 441.86 448.94 466C459.45 460.84 469.22 455.85 479.15 451.22C490 446.22 501.06 441.59 513.15 440.31C522.15 439.31 530.7 440.55 538.51 447.43C538.17 450.01 538.39 453.14 537.28 455.69C534.775 461.664 531.809 467.435 528.41 472.95C517.48 490.15 504.29 505.6 490.32 520.39C482.78 528.39 475.16 536.26 466.94 544.86C468.66 551.49 471.94 558.64 475.81 565.76C478.34 564.85 480.54 564.14 482.67 563.27C496.37 557.71 509.99 551.96 523.75 546.59C530.02 544.14 536.43 541.4 543.52 544.25C558.69 526.95 569.99 507.49 578.69 487.66L526.49 395.1L514.77 391.87ZM1256.58 381.08V271.95C1236.43 269.184 1216.12 267.847 1195.78 267.95C1184.12 291.878 1171.2 315.171 1157.07 337.73C1142.75 360.327 1127.07 382.034 1110.12 402.73C1127.18 401.92 1151.04 398.44 1172.22 382.88C1185.96 385.981 1200.03 387.391 1214.12 387.08C1228.51 386.87 1242.62 385.29 1256.58 381.08ZM294.58 603.4C301.97 630.6 297.88 657.13 290.4 683.65C321.29 695.31 352.2 696.51 383.77 690.65L419.03 645.65C410.178 624.007 403.323 601.601 398.55 578.71C362.56 582.13 328.06 589.5 294.56 603.4H294.58ZM786.88 158.87C817.06 196.95 855.99 220.53 903.36 232.66C904.61 225.19 906.11 218.56 906.74 211.84C907.491 204.379 906.653 196.843 904.28 189.73C901.379 181.429 899.345 172.85 898.21 164.13C895.81 143.41 898.7 123.33 907.97 104.41C908.423 103.296 908.813 102.157 909.14 101C891.93 94.5 874.7 92.57 857.02 96.45C838.02 100.63 822.47 110.6 809.91 125.45C801.17 135.74 794.09 147.16 786.88 158.87ZM224.88 641.6C235.71 633.95 245.71 626.17 256.4 619.53C267.09 612.89 278.69 607.25 290.18 601.01C289.26 598.63 288.41 596.12 287.32 593.72C281.7 581.31 273.49 570.65 264.74 560.35C255.74 549.82 246.83 539.35 238.08 528.61C231.571 520.774 227.037 511.491 224.86 501.54C224.25 498.72 223.57 495.91 222.86 492.99C196.86 505.45 143.59 547.87 137.98 560.58C172.53 581.79 200.08 610.51 224.92 641.6H224.88ZM1045.22 280.79C1059.22 324.79 1080.52 364.26 1106.22 402.08C1140.73 360.97 1168.53 316.27 1192.16 267.86C1142.91 267.891 1093.76 272.217 1045.26 280.79H1045.22ZM112.48 684.27C139.6 691.37 165.99 691.27 189.88 682.56L222.5 643.62C197.7 612.38 170.04 583.69 134.95 562.35C116.325 582.479 99.4252 604.139 84.43 627.1C98.27 644.09 106.62 663.32 112.48 684.27ZM1178.19 491.63C1151.02 508.11 1125.35 525.8 1102.67 548.31C1130.97 573.31 1154.78 601.74 1176.56 632.75C1185.83 617.712 1197.73 604.462 1211.69 593.63C1225.46 582.96 1240.9 575.35 1256.81 569.03V556.33C1228.93 536.876 1202.64 515.242 1178.19 491.63ZM1014.99 494.23C1047.37 506.46 1074.93 524.43 1100.26 546.12C1123.09 523.95 1148.51 505.95 1175.99 489.42C1150.24 464.196 1126.84 436.683 1106.08 407.22C1104.83 408.62 1104.17 409.37 1103.51 410.12C1091.03 424.26 1077.13 436.93 1063.1 449.48C1048.83 462.25 1034.77 475.24 1020.66 488.18C1018.82 489.83 1017.28 491.75 1014.99 494.23ZM1140.43 168.84C1161.87 148.9 1183.28 107.97 1187.69 83.53C1157.98 68.71 1134.35 46.65 1114.91 20.63C1076.63 10.78 1047.97 24.81 1037.4 42.63C1037.67 42.8131 1037.96 42.9736 1038.26 43.11C1039.98 43.72 1041.7 44.3 1043.42 44.9C1076.18 56.48 1096.86 78.63 1103.31 113.26C1104.03 117.12 1104.24 121.34 1105.99 124.71C1114.65 141.44 1126.99 155.41 1140.42 168.84H1140.43ZM287.43 308.84L293.88 270.12H344.45C346.76 248.18 349.01 226.79 351.28 205.25H345.2C341.29 209.09 337.29 212.74 332.62 215.07C316.86 222.95 299.99 223.6 282.99 221.41C272.34 220.05 262.32 216.63 253.81 210.03C253.229 210.192 252.669 210.421 252.14 210.71C242.644 218.038 232.059 223.835 220.77 227.89C219.668 228.231 218.675 228.855 217.89 229.7C212.74 236.03 205.68 239.28 198.31 242.09C196.95 242.6 195.65 243.27 194.56 243.76C191.9 262.76 203.45 284.53 224.08 299.82L287.43 308.84ZM3.41999 429.08C26.63 462.96 53.11 494.58 84.33 522.48C85.7 520.89 86.73 519.82 87.61 518.63C95.79 507.63 102.91 496.06 107.92 483.26C117.92 457.72 125.48 431.45 131.65 404.77C132.56 400.77 133.18 396.77 134.1 391.95C112.32 399.9 90.84 404.33 68.5 404.42C45.93 404.51 24.56 399.17 3.41999 390.18V429.08ZM436.48 56.08C416.908 67.4607 399.321 81.9539 384.41 98.99C382.66 107.12 381.79 113.77 379.74 119.99C377.69 126.21 374.38 132.37 371.85 137.99C380.11 141.21 388.69 144.28 397.03 147.91C402.921 150.349 407.992 154.418 411.65 159.64C416.5 166.73 416.48 174.64 411.04 181.34C408.67 184.26 405.55 186.6 402.6 189.01C400.615 190.491 398.556 191.869 396.43 193.14C394.99 209.85 393.49 226.3 391.99 243.49L466.36 230.87C453.99 172.95 444.67 115.15 436.48 56.09V56.08ZM1178.06 487.08L1256.55 447.13V384.55C1228.44 391.92 1200.61 392 1172.65 386.29C1154.05 399.7 1132.59 404.58 1109.31 406.29C1129.68 435.291 1152.7 462.343 1178.06 487.1V487.08ZM710.11 676.59C682.49 638 655.43 600.19 628.11 562.11C606.67 590.25 581.38 614.4 553.47 636.25C570.28 651.78 585.47 667.84 598.14 686.73C615.56 678.06 633.9 674.63 652.75 673.35C671.81 672.07 690.64 673.95 710.11 676.59ZM43.58 212.02C64.26 193.02 89.41 184.65 116.67 179.27C115.33 178.17 114.67 177.53 113.9 177.01C101.712 168.514 91.0346 158.035 82.31 146.01C67.69 126.18 58.57 103.81 52.09 80.22C51.62 78.5 51.09 76.81 50.62 75.29C35.81 73.59 14.49 77.83 3.78999 84.5V201.84C16.3563 207.533 29.8235 210.979 43.58 212.02ZM1212.72 223.27C1186.11 209.66 1162.24 193.55 1140.85 173.68C1129.08 185.418 1115.99 195.763 1101.85 204.51C1087.91 213.21 1072.85 219.7 1057.31 226.07L1078.23 272.24C1116.96 267.75 1155.23 264.42 1193.92 264.88L1212.72 223.27ZM382.63 475.55C382.793 474.821 382.914 474.083 382.99 473.34C382.983 472.669 382.919 472 382.8 471.34C380.18 455.27 373.8 441.13 361.42 430.18C347.48 417.81 333.42 405.62 319.25 393.25C297.57 399.57 275.94 399.25 254.31 392.94C252.51 396.2 250.82 399.04 249.31 401.99C237.91 424.32 228.96 447.49 226.4 472.67C225.93 477.34 226.34 482.09 226.34 487.51C277.17 462.79 329.1 458.16 382.63 475.55ZM1011.29 107.55C1023.1 147.55 1039.72 185.05 1055.92 222.69C1083.66 214.36 1127.16 187.01 1138.06 171.14C1137.23 170.21 1136.39 169.2 1135.47 168.27C1122.54 155.2 1110.99 141.09 1102.2 124.85C1101.45 123.56 1100.47 122.421 1099.31 121.49C1085.37 109.91 1069.99 101.37 1051.6 99.4C1037.67 97.88 1024.52 100.43 1011.29 107.52V107.55ZM924.84 404.64C923.84 404.73 922.74 404.84 921.59 404.97C920.44 405.1 919.59 405.24 918.59 405.36C903.02 407.22 887.66 406.36 872.92 400.77C868.753 399.072 864.087 399.072 859.92 400.77C857.431 401.684 854.991 402.725 852.61 403.89C840.84 409.89 831.33 418.68 822.61 428.35C811.13 441.07 799.92 454.04 788.61 466.92C788.239 467.546 787.953 468.219 787.76 468.92C799.43 474.7 810.76 480.53 822.33 485.99C829.82 489.53 837.48 492.74 845.23 495.69C856.77 500.09 868.02 498.99 879.06 492.77C883.797 483.169 889.856 474.28 897.06 466.36C910.18 452.02 925.45 440.3 941.55 429.56C943.15 428.49 944.71 427.36 945.85 426.56L924.84 404.64ZM603.65 326.17L604.13 325.17C590.73 309.47 578.73 292.82 569.28 274.47C559.822 256.258 553.234 236.694 549.75 216.47L470.14 233.47C477 262.65 483.53 291.71 494.61 319.67L603.65 326.17ZM968.06 121.58C937.16 133.81 916.93 154.69 910.06 187.31C909.54 190.227 909.308 193.188 909.37 196.15C909.31 202.78 909.83 209.44 909.37 216.02C908.95 221.72 907.47 227.34 906.46 232.96C928.77 240.48 994.8 241.4 1009.96 234.35C1008.65 227.78 1007.39 221.12 1005.96 214.5C1000.96 191.19 994.28 168.44 983.86 146.93C979.642 137.87 974.336 129.358 968.06 121.58ZM200.31 3.58H45.99C45.7079 25.7297 48.0577 47.8346 52.99 69.43C68.68 60.52 84.99 56.95 102.27 56.65C117.57 56.42 132.4 58.59 146.56 64.65C156.16 68.76 164.08 74.65 168.86 85.22C180.66 58.23 190.73 31.3 200.31 3.58ZM1191.2 85.17C1181.6 117.62 1166.2 146.55 1143.26 171.09C1158.81 187.83 1199 214.58 1214.04 219.61C1230.79 178.954 1245.08 137.325 1256.83 94.95C1233.51 98.24 1212.23 94.17 1191.2 85.17ZM1073.89 583.59C1094.7 621.98 1109.75 662.21 1115.57 705.9C1129.13 705.79 1141.97 704.15 1154.44 699.78C1156.88 677.265 1163.77 655.458 1174.71 635.63C1153 604.3 1128.94 575.63 1100.62 550.7C1092.5 557.83 1080.46 572.67 1073.89 583.59ZM121.29 177.69C122.07 176.15 122.6 175.14 123.11 174.12C129.43 161.3 135.53 148.36 142.11 135.68C149.24 121.95 156.73 108.42 164.26 94.95C165.305 93.2425 165.845 91.2736 165.816 89.2718C165.788 87.2701 165.193 85.3173 164.1 83.64C162.42 80.82 160.53 77.81 157.98 75.9C153.5 72.4866 148.677 69.5475 143.59 67.13C134.45 62.85 124.59 61.13 114.59 60.37C97.59 59.01 80.99 60.62 65.12 67.19C61.22 68.81 57.62 71.19 53.92 73.19C64.99 115.83 82.99 153.1 121.29 177.69ZM1256.68 748.05V573.19C1231.07 578.31 1187.26 613.84 1178.97 636.19L1183.82 643.57C1198.23 665.521 1211.18 688.39 1222.61 712.03C1225.45 717.855 1228.8 723.419 1232.61 728.66C1238.61 737.291 1246.97 744.02 1256.68 748.05ZM717.38 677.79C759.139 685.805 799.835 698.61 838.66 715.95C851.66 713.58 864.33 711.59 877.06 707.56C874.76 704.62 872.83 702.13 870.88 699.66C863.79 690.66 856.33 681.85 849.71 672.49C844.25 664.78 837.24 659.54 829.13 654.92C808.03 642.92 787.27 630.34 766.4 617.92C763.4 616.14 760.59 614.09 756.98 611.69L717.38 677.79ZM551.72 633.72C579.49 611.91 605.15 587.72 626.4 559.23C611.16 536.09 596.29 513.53 580.98 490.3C571.821 511.083 559.647 530.401 544.85 547.63C546.16 555.11 543.29 561.34 538.85 567.02C537.006 569.594 534.92 571.985 532.62 574.16C524.95 580.8 517.1 587.23 509.28 593.7C507.42 595.24 505.44 596.62 503.81 597.85L551.72 633.72ZM320.44 389.79C324.67 386.41 328.78 388.79 333.08 389.86C339.674 391.517 346.35 392.832 353.08 393.8C366.134 395.418 379.356 395.081 392.31 392.8C397.93 391.85 403.45 390.25 408.99 388.95C408.569 386.039 408.295 383.109 408.17 380.17C408.33 364.98 413.61 351.52 422.85 339.71C428.99 331.87 435.85 324.59 442.91 316.41C443.82 305.51 444.8 293.64 445.82 281.35L388.13 276.99L379.27 290.83C386.57 302.14 383.67 315.46 367.42 319.37C352.56 343.15 333.93 362.01 304.99 367.95C308.863 376.054 314.088 383.439 320.44 389.79ZM1031.1 386.45C1003.84 397.48 977.549 410.766 952.5 426.17L1012.24 492.28C1012.81 491.872 1013.35 491.424 1013.86 490.94C1025.86 477.43 1039.6 465.83 1053.16 454.01C1068.99 440.21 1084.7 426.29 1098.82 410.7C1099.88 409.53 1100.82 408.26 1102.5 406.23C1076.49 406.1 1052.76 401.09 1031.1 386.45ZM358.1 42.32C335.31 22.52 309.87 16 281.44 25.95C256.7 34.57 241.64 52.74 233.79 77.95C237.79 78.31 241.08 78.69 244.38 78.89C256.828 79.5397 269.157 81.6542 281.11 85.19C294.67 89.32 307.8 94.43 318.45 104.36C323.74 109.28 327.39 115.11 328.54 122.26C328.97 124.94 328.61 127.74 328.61 131.42C330.51 129.79 331.85 129.03 332.66 127.89C336.6 122.37 341.15 117.11 344.12 111.09C354.69 89.55 357.57 66.41 358.06 42.32H358.1ZM397.48 188.82C400.62 186.45 403.27 184.82 405.48 182.69C414.18 174.6 414.13 165.92 405.41 157.77C400.09 152.77 393.74 149.52 386.99 147.03C369.3 140.49 350.91 138.17 332.15 137.84C327.183 137.698 322.306 139.191 318.27 142.09C301.9 153.26 288.01 167.09 275.27 182.09C268.51 190.09 262.27 198.42 255.59 206.78C259.523 210.443 264.244 213.156 269.39 214.71C286.269 220.261 304.418 220.669 321.53 215.88C330.03 213.6 337.81 209.96 342.89 202.39L351.48 201.33C352.38 193.58 353.23 186.23 354.13 178.48L397.44 182.95L397.48 188.82ZM233.14 81.34C229.59 97.94 230.07 113.71 232.31 129.44C235.95 154.88 243.48 179.22 253.75 203.51L256.34 200.25C260.96 194.35 265.41 188.31 270.23 182.57C285.05 164.87 301.17 148.57 320.87 136.15C322.715 134.812 324.062 132.898 324.7 130.71C327.12 122.55 324.14 115.65 318.81 109.58C312.53 102.41 304.48 97.72 295.89 93.94C282.52 88.06 268.41 84.86 253.99 83.04C247.26 82.19 240.45 81.95 233.14 81.34ZM848.99 333.66C831.39 317.66 814.18 302.45 797.41 286.74C780.64 271.03 764.23 254.8 747.33 238.47C734.09 269.24 722.33 300.07 712.01 331.97L838.01 338.8L848.99 333.66ZM491.99 322.78L445.09 320C433.09 330.55 422.09 344 416.6 356.17C411.68 367.06 409.81 378.26 412.6 390.67C446.6 402.22 480.5 401.95 514.78 388.67L525.78 391.42L491.99 322.78ZM203.66 3.42C201.47 9.72 199.66 15.59 197.41 21.32C189.88 40.83 182.21 60.32 174.62 79.77C173.89 81.63 173.36 83.57 172.56 86.04C192.05 79.88 211.24 78.45 230.47 77.83L231.99 73.2C236.756 58.364 245.738 45.2365 257.84 35.42C271.285 24.566 287.991 18.5499 305.269 18.3395C322.547 18.1291 339.394 23.7366 353.1 34.26C354.44 35.26 355.88 36.26 358.02 37.76C357.6 25.34 356.93 14.16 353.4 3.42H203.66ZM251.9 389.95C252.356 388.232 252.69 386.485 252.9 384.72C253.42 371.72 253.19 358.83 249.96 346.12C245.96 330.6 238.83 317 226.7 306.27C224.445 304.046 221.555 302.579 218.43 302.07C202.31 299.9 186.2 297.58 170.09 295.35C165.86 294.76 161.6 294.35 156.38 293.69C169.07 331.14 186.23 365.42 205.49 398.83C221.46 398.01 236.82 395.87 251.9 389.95ZM753.74 110.95C740.23 115.01 726.74 114.87 712.96 113.61C713.45 121.33 710.14 126.74 704.38 130.51C700.416 132.942 696.274 135.071 691.99 136.88C689.43 137.894 686.812 138.755 684.15 139.46C696.99 167.55 737.8 225.95 746.59 230.6L782.45 158.79C777.54 151.39 772.12 143.79 767.33 135.79C762.54 127.79 758.38 119.53 753.74 110.95ZM500.8 600.5L422.9 645.95C427.64 659.71 444.07 689.23 450.37 695.29C485.147 679.194 518.054 659.332 548.5 636.06C533.557 622.975 517.608 611.085 500.8 600.5ZM712.99 680.26C691.52 677.11 670.49 674.77 649.11 676.78C636.533 677.825 624.118 680.315 612.11 684.2C608.11 685.54 604.22 687.36 599.94 689.1C611.59 707.95 620.21 727.19 622.99 748.68H688.61C690.24 723.52 702.52 702.39 712.99 680.26ZM3.40999 583.2C34.14 568.87 60.73 550.43 82.25 525.2C74.72 517.88 67.53 511.2 60.68 504.2C53.83 497.2 47.17 489.95 40.73 482.55C34.29 475.15 27.87 467.27 21.73 459.43C15.73 451.87 10.12 444.07 4.32999 436.43L3.44999 436.93L3.40999 583.2ZM452.77 697.76C480.41 711.76 508.22 718.28 537.94 713.76C559.23 710.5 578.58 702.42 595.55 688.38C582.783 669.917 567.783 653.103 550.89 638.32C520.326 661.471 487.443 681.391 452.77 697.76ZM3.34999 297.95C5.28146 298.313 7.23088 298.574 9.18999 298.73C26.93 299.11 44.31 297.02 61.08 290.88C79.71 284.06 94.57 272.66 104.33 255.12C104.907 253.932 105.411 252.709 105.84 251.46C101.95 250.93 98.51 250.46 95.07 250C81.66 248.27 68.54 245.3 56.28 239.55C51.7017 237.22 47.4515 234.294 43.64 230.85C39.79 227.58 39.08 222.92 40.14 218.03C40.33 217.16 40.58 216.31 40.65 216.03L3.34999 206.63V297.95ZM666.5 495.21C672.714 499.834 679.965 502.865 687.62 504.04C699.812 505.821 712.203 505.74 724.37 503.8C730.29 502.8 736.16 501.38 741.66 498.27C740.66 496.77 739.94 495.69 739.28 494.55C735.62 488.22 731.71 482.01 728.45 475.49C726.81 472.21 726.36 468.35 725.45 464.96C729.804 460.158 735.886 457.281 742.36 456.96C750.93 456.23 759.2 457.77 767.28 460.6C770.03 461.6 772.86 462.33 775.66 463.19L776.19 462.19C750.68 437.93 722.05 417.78 692.3 398.45C682.14 430.81 678.31 464.01 666.5 495.21ZM608.5 324.01C621.99 282.46 627.5 240.44 619.78 196.82L552.94 215.82C560.04 257.63 579.99 292.86 608.45 324.01H608.5ZM447.21 470.67C445.45 471.5 444.16 472.2 442.79 472.73C433.52 476.34 424.35 480.26 414.91 483.38C407.17 485.94 399.22 485.94 391.64 482.1C390.313 481.578 388.954 481.144 387.57 480.8C392.05 512.58 394.34 544.13 401.03 574.8C405.95 574.8 410.12 575.04 414.25 574.71C416.858 574.587 419.409 573.905 421.73 572.71C427.391 569.547 432.863 566.057 438.12 562.26C446.55 556.07 454.67 549.47 462.86 543.09C458.24 527.93 456.07 513.09 454.65 497.98C453.673 488.532 451.16 479.308 447.21 470.67ZM813.93 114.67L814.68 115.42C844.09 89.52 877.05 85.39 912.99 98.95C926.37 96.23 939.99 94.08 952.1 86.04C943.672 73.8566 937.207 60.4268 932.94 46.24C918.488 42.2649 903.436 40.9302 888.51 42.3C876.006 43.282 863.936 47.3314 853.37 54.09C835.8 65.43 824.99 81.8 817.99 101.03C816.42 105.49 815.28 110.11 813.93 114.66V114.67ZM607.22 329.48L495.59 322.95L529.88 392.57C543.44 395.269 557.286 396.243 571.09 395.47C587.67 376.33 596.89 353.16 607.22 329.48ZM582.63 486.48C597.39 510.09 612.57 533.15 628.55 556.33C642.278 537.953 653.634 517.918 662.35 496.7C646.43 485 634.99 469.78 624.99 453.34C614.99 436.9 607.33 419.41 599.67 401.67C599.547 430.778 593.759 459.583 582.63 486.48ZM597.21 691.66C552.32 724.17 505.02 725.43 455.65 703.37C467.19 719.978 480.613 735.196 495.65 748.72H619.65C618.14 731.57 607.99 705.45 597.21 691.66ZM349.63 252.37C348.78 259.37 347.93 266.37 347.05 273.63H296.5C294.63 284.9 293.02 295.87 290.89 306.74C290.127 310.775 290.648 314.947 292.38 318.67C294.065 323.164 295.301 327.813 296.07 332.55C297.29 338.91 297.83 345.4 299.15 351.74C300.08 356.21 301.81 360.52 303.26 365.13C331.4 359.45 349.35 341.79 363.76 319.2C351.41 313.07 347.37 305.01 351.6 295.56C355.75 286.3 364.85 283.74 376.85 288.65C379.53 284.53 382.31 280.4 384.91 276.17C385.531 275.011 385.896 273.732 385.98 272.42C386.65 266.3 387.27 260.17 387.78 254.04C387.97 251.78 387.78 249.49 387.78 247.04L349.63 252.37ZM387.09 476.95C398.4 481.53 401.03 482.29 406.31 481.74C420.66 480.25 433.16 473.74 445.99 467.38C444.99 465.22 444.34 463.38 443.4 461.63C437.4 450.63 431.58 439.63 425.4 428.85C419.14 417.85 413.3 406.69 410.03 394.37C409.729 393.602 409.354 392.865 408.91 392.17C407.23 392.6 405.82 393.09 404.36 393.31C394.36 394.84 384.36 396.98 374.36 397.63C358.99 398.63 343.85 396.39 329.06 391.99C327.28 391.47 325.3 389.99 323.4 392.68C325.53 394.62 327.67 396.68 329.89 398.61C341.54 408.79 353.4 418.73 364.82 429.17C375.101 438.33 381.969 450.709 384.3 464.28C385.05 468.56 386.14 472.73 387.09 476.95ZM648.16 50.83C657.93 53.38 666.66 55.27 675.16 57.96C683.962 60.6869 691.759 65.9584 697.57 73.11C710.632 68.7648 724.456 67.1913 738.16 68.49C732.03 47.2835 727.859 25.559 725.7 3.59H638.32C641.75 20.04 645.05 35.88 648.16 50.83ZM79.99 626.55C59.8 603.82 34.46 590.67 3.52999 587.06V664.79C19.7 669.91 31.78 680.79 41.9 693.79L79.99 626.55ZM171.12 90.5C196.72 131.72 208.12 178.05 219.05 224.95C230.87 220.45 241.71 215.03 251.18 206.95C250.64 205.53 250.27 204.45 249.82 203.4C243.043 187.478 237.588 171.026 233.51 154.21C228.58 133.73 225.6 113.02 227.89 91.87C228.25 88.59 228.72 85.33 229.14 82.07C216.83 80.16 182.61 84.89 171.12 90.5ZM1256.57 91.73V3.59H1200.18C1201.84 30.32 1198.56 56.23 1192.18 82C1212.83 91.41 1233.9 95.13 1256.57 91.73ZM131.99 560.81C114.7 550.97 99.57 539.67 84.81 527.13C63.69 551.6 38.15 569.68 9.80999 584.24C38.52 589.58 62.67 602.42 82.28 624.52C97.2645 602.093 113.879 580.798 131.99 560.81ZM802.68 40.95L836.85 62.95C840.93 59.68 844.85 56.11 849.23 53.1C868.74 39.6 890.66 36.96 913.58 39.43C919.89 40.11 926.15 41.36 932.8 42.43C931.58 26.17 926.49 12.52 913.25 3.43H809.88C813.07 17.21 809.82 29.59 802.68 40.95ZM194.35 684.95C187.61 693.37 175.74 739.06 177.45 748.59H278.39C274.63 727.68 264.98 709.76 255.13 691.86C234.09 693.19 213.84 691.46 194.35 684.95ZM785.09 466.31C787.45 463.74 789.52 461.6 791.47 459.37C800.33 449.21 808.99 438.95 817.99 428.87C830.05 415.4 842.99 403.02 860.69 397.08C860.91 397 861.02 396.57 861.34 396.03L849.48 387.84C845.25 389.03 840.99 390.34 836.67 391.44C826.42 394.03 816 395.72 805.62 392.92C799.83 391.36 794.41 388.41 788.45 385.92C779.52 396.22 767.16 401.92 753.55 405.34C740.1 408.74 726.48 408.99 712.55 407.34C737.78 425.6 762.66 443.88 785.09 466.31ZM930.48 301.56C940.13 290.92 949.81 279.93 959.85 269.27C969.89 258.61 981.25 249.59 993.54 241.32C964.008 244.249 934.2 242.603 905.17 236.44C894.54 270.1 877.07 299.64 857.63 329.07L930.48 301.56ZM718.13 404.23C753.31 379.61 791.45 361.34 829.29 342.54L828.96 341.37L710.61 335.1L692.71 394.88C700.4 399.813 709.076 403.005 718.13 404.23ZM357.77 3.42C359.14 16.13 360.48 28.61 361.93 42.09C375.29 55.76 382.65 73.31 384.2 93.71C399.529 77.7102 416.95 63.8549 435.99 52.52C433.83 36.13 431.69 19.9 429.51 3.42H357.77ZM448.48 699.42C426.39 705.24 405.05 706.73 385.01 694.69C376.68 703.69 364.34 735.69 364.06 748.69H490.99C475.134 733.807 460.886 717.3 448.48 699.44V699.42ZM850.6 384.28C856.16 388.87 861.79 393.18 868.76 395.81L885.76 366.93L851.76 336.02C812.76 352.72 733.63 393.96 724.49 404.81C735.27 405.96 745.49 404.44 755.49 401.61C768.49 397.94 780.34 392.23 788.4 380.76C802.5 391.43 811.89 392.94 830 389.76C836.85 388.55 843.48 386.21 850.6 384.28ZM467.14 234.02L391.56 246.62C390.74 255.62 389.92 264.62 389.08 273.91L449.19 278.47C448.13 291.47 447.11 303.99 446.06 316.89L490.88 319.47C480.69 291.24 473.46 262.95 467.14 234.02ZM689.37 397.14C674.52 401.63 660.46 404.14 645.97 404.14C631.48 404.14 617.19 401.68 602.77 397.46C602.887 398.455 603.074 399.441 603.33 400.41C611.85 423.41 622.51 445.31 636.63 465.41C642.973 474.602 650.49 482.926 658.99 490.17C660.31 491.27 661.76 492.17 663.65 493.58C675.63 462.16 679.23 429.45 689.37 397.14ZM1013.17 234.46C1027.11 231.94 1040.29 228.95 1052.95 223.87C1036.77 185.87 1020.17 148.49 1008.45 108.87C998.69 110.67 989.17 110.57 979.68 107.28C976.61 111.61 973.68 115.75 970.88 119.68C995.91 154.14 1005.18 193.73 1013.17 234.46ZM465.06 539.95C466.417 539.074 467.725 538.126 468.98 537.11C485.38 521.968 500.473 505.469 514.1 487.79C521.36 478.25 528.41 468.57 533.37 457.57C534.69 454.65 535.82 451.74 534.53 447.57C531.53 446.47 528.03 444.98 524.43 443.94C517.08 441.82 509.92 443.68 502.86 445.59C484.41 450.59 467.96 460.12 451.05 468.59C450.8 468.71 450.72 469.14 450.67 469.22C452.51 475.77 454.78 482.06 455.97 488.55C457.97 499.63 459.21 510.86 461.06 521.97C461.99 527.81 463.6 533.51 465.06 539.95ZM834.41 66.2C827.56 59.75 807.81 47.2 800.11 44.29C789.85 57.39 775.91 65.96 760.71 73.87C763.71 75.8 766.2 77.16 768.43 78.8C778.43 86.14 778.43 96.6 768.35 103.93C766.72 105.08 765.016 106.122 763.25 107.05C761.38 108.05 759.44 108.94 757.16 110.05C764.8 126.36 773.6 141.63 784.57 155.7L809.89 119.22C813.46 100.57 820.83 82.1 834.41 66.2ZM682.41 136.2C685.13 135.44 687.53 134.83 689.88 134.09C695.49 132.32 700.78 129.92 705.05 125.73C709.57 121.3 710.35 117.21 707.93 111.24C707.71 110.69 707.59 110.1 707.28 109.03C722.54 111.91 737.28 112.18 751.97 107.85C747.41 95.68 742.97 83.91 738.6 72.15C723.92 70.79 709.8 71.88 696.39 77.22C685.84 64.46 663.16 54.22 650.39 56.5C658.56 84.0078 669.294 110.688 682.45 136.19L682.41 136.2ZM1109.91 3.46C1117.39 21.11 1129.57 35.03 1143.08 47.9C1156.59 60.77 1171.43 72.23 1189.08 80.56C1195.93 55.4683 1198.57 29.4155 1196.9 3.46H1109.91ZM755.65 72.15C768.009 67.2845 779.403 60.2582 789.3 51.4C795.041 46.3188 799.788 40.2152 803.3 33.4C807.99 23.87 809.45 13.95 806.43 3.46H728.99C730.798 25.6167 735.02 47.5097 741.58 68.75L755.65 72.15ZM1111.76 705.95C1112.9 683.5 1083.67 598.38 1071.49 587.95C1071.21 588.126 1070.96 588.345 1070.75 588.6C1069.97 589.87 1069.19 591.15 1068.49 592.48C1061.02 606.74 1055.73 621.62 1054.66 637.89C1053.15 658.308 1058.68 678.628 1070.32 695.47C1071.17 696.893 1072.41 698.042 1073.89 698.78C1085.99 703.42 1098.55 705.22 1111.76 705.95ZM873.06 499.17C866.827 501.733 859.96 502.326 853.38 500.87C848.336 499.91 843.399 498.456 838.64 496.53C827.24 491.53 816.07 486.01 804.81 480.72C802.02 479.41 799.21 478.15 796.41 476.86C797.971 480.043 799.883 483.042 802.11 485.8C808.97 495.07 815 504.8 817.56 516.25C820.81 530.85 816.38 542.89 804.26 551.64C801.99 553.28 799.56 554.64 796.77 556.49C812.37 571.2 828.48 584.79 847.83 595.75C847.41 560.57 853.25 528.14 873.06 499.17ZM1181.17 490.08C1204.64 512.747 1229.85 533.537 1256.57 552.26V451.43C1230.65 463.13 1205.77 475.43 1181.17 490.08ZM230.55 303.95C253.98 328.22 258.02 357.82 255.55 389.95C275.411 396.086 296.621 396.353 316.63 390.72C315.17 388.93 314.26 387.78 313.31 386.67C307.793 380.207 303.332 372.914 300.09 365.06C295.9 354.8 294.2 344.06 292.96 333.11C292.11 325.6 289.49 318.67 285.73 311.79L230.55 303.95ZM879.55 710.39C837.06 721.21 794.43 726.16 750.08 724.31L768.49 748.64H901.65C898.25 733.34 888.63 722.3 879.53 710.42L879.55 710.39ZM402.29 578.01C402.59 589.62 416.39 634.29 421.95 642.56C446.95 628.02 472.69 614.68 497.14 598.24C487.25 590.08 480.37 580.15 474.19 569.98C468.88 571.51 464.13 572.98 459.33 574.24C446.59 577.58 433.83 580.05 420.48 578.15C414.63 577.32 408.58 578.01 402.29 578.01ZM109.38 251.77C103.38 265.12 94.08 275.35 82.02 284.03C105.59 299.52 126.84 316.3 139.4 342.39C139.8 341.13 139.97 340.73 140.05 340.31C142.35 327.94 144 315.4 147.05 303.23C152.22 282.78 161.18 264.23 177.46 249.97C178.064 249.24 178.591 248.449 179.03 247.61C155.67 252.7 132.78 252.72 109.38 251.77ZM1070.84 701.46C1040.3 711.06 1009.84 711.46 978.4 703.35L989.99 748.67C990.761 748.805 991.539 748.899 992.32 748.95C1013.32 748.95 1034.32 748.95 1055.32 748.95C1056.31 749.051 1057.31 748.949 1058.26 748.65C1066.38 744.95 1073.36 739.99 1075.99 730.89C1078.99 720.61 1075.99 711.25 1070.84 701.46ZM290.21 686.76C289.555 694.111 290.157 701.521 291.99 708.67C295.18 721.83 300.99 733.49 312.39 741.36C317.08 744.6 322.58 748.01 328.01 748.6C338.52 749.74 349.25 748.93 360.07 748.93C364.32 729.93 370.07 711.87 380.36 694.71C349.37 699.12 319.58 698.24 290.21 686.76ZM759.11 609.17C786.55 628.77 816.11 643.62 845.27 660.9C849.88 640.66 847.56 620.65 848.04 600.48C821.75 602.9 799.2 592.62 776.14 583.48L759.11 609.17ZM286.64 683.78C295.64 656.55 298.79 623.42 291 605.22C273.72 610.74 235.91 634.61 228.05 644.96L257.79 689.09L286.64 683.78ZM173.58 748.71C175.851 727.12 181.324 705.988 189.82 686.01C177.379 689.914 164.447 692.035 151.41 692.31C138.553 692.482 125.732 690.904 113.3 687.62C118.04 708.16 119.3 728.29 119.88 748.71H173.58ZM597.58 392.07C629.81 405.78 671.81 401.38 685.58 394.07C658.07 375.91 632.51 355.66 609.75 331.31C600.4 353.9 590.84 375.31 576.57 394.31L577.27 395.23L597.58 392.07ZM883.76 491.6C904.13 485.46 923.97 481.94 944.37 481.77C964.77 481.6 984.76 484.98 1004.65 490.03C987.412 468.482 968.945 447.948 949.34 428.53C922.04 444.68 891.89 471.44 883.75 491.6H883.76ZM561.53 130.87C551.74 149.14 548.01 188.59 552.79 212.12C574.96 206.29 597.21 200.89 618.79 193.02C615.36 179.75 611.29 167.4 604.79 156.26C586.05 154.95 570.63 148.81 561.53 130.87ZM64.28 748.72C64.3221 748.311 64.3221 747.899 64.28 747.49C63.83 745.89 63.39 744.28 62.86 742.71C56 722.77 47.28 703.83 32.86 688.05C25.87 680.39 17.99 673.79 8.14999 669.95C6.71999 669.39 5.14999 669.09 3.42999 668.59V748.77L64.28 748.72ZM975.06 703.37C973.06 704.02 971.84 704.37 970.62 704.83C954.009 710.798 936.49 713.843 918.84 713.83C909.74 713.9 900.62 712.75 891.51 712.2C889.58 712.08 887.64 712.2 885.28 712.2C889.59 718.57 893.56 724.1 897.19 729.86C900.82 735.62 903.79 741.71 904.44 748.65H986.87C982.91 733.44 979.07 718.74 975.06 703.37ZM109.57 686.66C88.47 694.66 67.1 697.53 43.98 697.11C55.68 713.6 62.29 731.11 68.07 748.69H116.38C116.35 727.8 115.14 707.32 109.57 686.66ZM785.13 470.66C773.51 482.46 761.34 492.62 746.99 499.95C756.72 514.44 784.86 546.4 794.4 553.77C797.132 552.415 799.783 550.902 802.34 549.24C809.81 543.85 814.65 536.92 815.34 527.33C815.85 520.33 814.2 513.88 811.51 507.6C805.53 493.56 795.77 482.25 785.13 470.69V470.66ZM201.89 399.08C182.5 365.08 165.76 331.18 153.31 294.62C152.865 295.257 152.467 295.925 152.12 296.62C147.117 311.62 144.114 327.215 143.19 343C142.413 358.261 140.676 373.457 137.99 388.5C158.33 395.62 179.26 398.32 201.89 399.08ZM531.55 396C546.61 426.19 562.72 454.48 580.55 482.91C591.87 454.29 597.33 425.83 595.71 395.45C574.32 399.6 553.52 400.2 531.55 396ZM42.88 3.61H3.52999V80.43C18.1752 73.8746 34.1654 70.8829 50.19 71.7C45.31 49.02 42.51 26.67 42.88 3.61ZM707.4 334.95L614.34 329.86C614.22 330.28 614.09 330.7 613.97 331.12C636.64 354.96 662.19 375.25 689.97 393.03C695.88 373.4 701.53 354.52 707.4 334.95ZM906.4 185.77C910.71 170.31 917.22 156.15 928.17 144.28C939.025 132.435 952.734 123.569 967.99 118.53L976.61 105.95C967.27 101.95 960.42 95.76 954.8 89.08C947.41 92.08 940.8 95.16 933.89 97.34C926.98 99.52 919.77 100.79 912.58 102.48C898.37 129.32 897.28 157.1 906.41 185.75L906.4 185.77ZM1219.89 713.95C1198.19 713.95 1177.43 711.32 1157.32 704.31C1155.32 716.88 1155.57 739.45 1157.81 748.58H1250.11C1235.85 739.95 1226.69 728.09 1219.89 713.95ZM438.8 50.62C440.96 49.76 442.17 49.29 443.38 48.79C451.33 45.49 459.17 41.9 467.24 38.91C490.312 30.3967 512.475 19.5998 533.4 6.68C534.734 5.71231 536.013 4.67068 537.23 3.56H432.74C434.76 19.29 436.73 34.54 438.8 50.62ZM680.48 140.01C668.804 141.764 656.906 141.375 645.37 138.86C635.62 149.93 623.28 154.93 609.37 156.07C613.77 168.07 618.08 179.77 622.59 192.02C646.41 183.94 670.09 174.75 692.28 161.28C688.29 154.09 684.53 147.3 680.48 140.01ZM764.56 748.81L715.26 683.11C713.39 686.74 711.94 689.51 710.53 692.3C703.53 706.1 697.24 720.16 693.53 735.22C692.44 739.6 691.02 744.14 692.53 748.81H764.56ZM1256.8 110.51L1255.69 110.31C1244.61 148.061 1231.59 185.217 1216.69 221.63C1229.63 228.18 1243.02 233.814 1256.75 238.49L1256.8 110.51ZM388.58 243.76C390.41 224.2 392.18 205.27 393.99 185.9L356.91 182.19C354.56 204.59 352.24 226.61 349.91 249.03L388.58 243.76ZM1218.4 710.95C1206.36 685.893 1192.47 661.776 1176.82 638.8C1165.6 658.42 1160.19 678.96 1157.2 700.96C1176.78 707.86 1196.77 710.95 1218.4 710.95ZM1019.28 281.49L1074.99 272.75L1054.48 227.39L1013.92 238.32C1015.7 252.65 1017.45 266.74 1019.28 281.49ZM937.44 299.77L1016.08 281.45C1014.35 267.45 1012.61 253.18 1010.86 238.94C990.9 241.24 954.12 276.07 937.44 299.77ZM830.35 716.39C794.56 700.67 757.95 688.39 719.69 681.54L718.9 682.54C728.373 695.28 737.833 708 747.28 720.7C775.31 722.82 802.88 720.87 830.35 716.39ZM108.99 683.65C103.54 663.58 95.39 645.81 82.6 629.76C69.0872 650.35 56.9186 671.791 46.17 693.95C68.08 694.35 88.67 691.28 108.99 683.65ZM367.64 137.34C390.13 106.04 379.95 63.12 361.15 47.41C360.34 64.59 358.15 81.51 352.94 97.94C349.42 109.13 344.34 119.53 336.58 128.45C334.91 130.37 333.02 132.11 331.1 134.08L367.64 137.34ZM1017.64 499.27C1037.3 524.88 1055.72 551.22 1071.64 579.54L1097.54 547.99C1073.59 527.49 1047.65 510.23 1017.67 499.27H1017.64ZM1197.86 264.17L1256.6 268.09V242.56L1215.31 225.06C1209.53 238.07 1203.69 251.16 1197.89 264.17H1197.86ZM499.99 596.09C511.62 588.3 522.56 580.2 531.99 570.21C535.99 565.96 539.57 561.36 541.28 555.59C542.18 552.59 542.34 549.73 540.15 546.77C539.03 546.68 537.64 546.24 536.45 546.55C531.582 547.625 526.786 549.004 522.09 550.68C507.55 556.42 493.09 562.46 478.68 568.41C478.44 568.51 478.33 568.93 478.04 569.41C483.563 579.639 491.018 588.699 499.99 596.09ZM445.69 696.95L419.99 649.63L386.77 691.95C406.06 703.64 425.76 702 445.69 696.95ZM1113.39 710.2L1075.75 703.77C1082.96 720.77 1083.13 736.42 1065.53 748.67H1115.36C1114.68 735.33 1113.99 722.43 1113.39 710.15V710.2ZM887.11 363.95L925.99 307.25C901.15 314.58 878.23 324.25 854.85 334.59L887.11 363.95ZM215.37 298.64L215.86 297.48C208.696 290.821 202.58 283.118 197.72 274.63C192.913 265.88 190.522 256.009 190.79 246.03C178.34 249.12 159.24 272.68 155.1 290.03L215.37 298.64ZM1118.49 748.64H1153.49V703.81C1147.24 705.16 1141.21 706.81 1135.08 707.7C1128.95 708.59 1122.6 708.85 1116.44 709.37C1117.12 722.48 1117.79 735.37 1118.49 748.66V748.64ZM259.27 692.05C263.71 701.29 268.48 710.2 272.33 719.49C276.18 728.78 279.22 738.73 282.7 748.63H317.88C309.88 744.01 303.65 738.97 298.88 732.15C290.62 720.29 287.37 706.95 286.83 692.75C286.76 690.86 286.67 688.97 286.59 686.9L259.27 692.05ZM949.99 423.19L1014.09 389.42C995.95 390.72 978.29 390.71 960.94 387.6C951.66 395.48 941.11 400.08 930.68 403.25L949.99 423.19ZM195.93 682.19C214.66 688.34 233.42 689.95 252.71 688.77C248.98 680.12 230.41 652.77 224.83 647.53C216.2 654.31 201.05 672.37 195.89 682.23L195.93 682.19ZM744.99 497.08C759.21 490.47 770.5 480.67 781.77 469.51C776.69 467.51 772.47 465.62 768.11 464.16C760.37 461.58 752.5 459.42 744.2 459.97C738.65 460.33 733.44 461.7 728.81 465.97C731.25 477.84 738.3 487.23 744.99 497.08ZM724.45 562.8C721.58 568.4 721.83 571.92 725.45 577.8C733.18 590.19 744.68 598.61 756.45 607.39L773.34 581.69C759.42 575.69 746.11 569.84 732.68 564.27C730.16 563.2 727.09 563.24 724.47 562.8H724.45ZM842.79 597.06C825.21 585.86 809.26 572.7 793.73 557.98L778.24 580.41C799.43 591.38 828.78 599.12 842.79 597.06ZM922.57 401.62L888.11 369.09L871.58 397.03C888.26 403.28 904.63 404.35 922.57 401.62ZM991.83 36.88C1000.57 24.54 1008.89 13.03 1020.51 4.39L1020.01 3.52H983.56C986.3 14.56 988.99 25.21 991.83 36.88ZM426.04 574.95C434.51 577.25 462.79 572 472.2 566.35C469.46 559.85 466.71 553.35 463.94 546.75L426.04 574.95ZM755.82 107.69C760.92 104.37 765.31 102.21 768.82 99.07C774.28 94.18 774.14 88.56 768.82 83.5C761.82 76.8 752.82 74.59 742.57 72.64L755.82 107.69ZM366.44 315.34C368.185 315.368 369.919 315.05 371.54 314.404C373.162 313.758 374.64 312.798 375.889 311.578C377.137 310.358 378.132 308.903 378.815 307.297C379.498 305.691 379.857 303.965 379.87 302.22C379.748 298.796 378.345 295.542 375.937 293.105C373.529 290.667 370.292 289.223 366.87 289.06C365.126 289.043 363.397 289.372 361.781 290.03C360.166 290.687 358.698 291.66 357.462 292.89C356.227 294.12 355.248 295.584 354.583 297.196C353.918 298.808 353.581 300.536 353.59 302.28C353.57 303.983 353.887 305.673 354.524 307.253C355.16 308.832 356.102 310.271 357.297 311.485C358.491 312.699 359.914 313.664 361.483 314.326C363.052 314.988 364.737 315.332 366.44 315.34Z" fill="black"/>
<path d="M905.11 564.86C911.78 564.86 915.57 566.86 916.83 570.42C918.18 574.17 916.6 578.71 912.83 581.97C908.21 585.97 902.83 587.06 896.97 585.86C895.688 585.651 894.475 585.138 893.432 584.365C892.388 583.591 891.545 582.58 890.972 581.415C890.398 580.249 890.112 578.964 890.136 577.666C890.16 576.367 890.494 575.093 891.11 573.95C892.381 571.293 894.36 569.039 896.831 567.435C899.301 565.831 902.166 564.94 905.11 564.86ZM913.33 570.3C908.53 566.7 905.28 567.75 903.08 573.36C903.95 576.22 906.18 576.54 908.61 575.97C911.36 575.32 913.44 573.86 913.33 570.3Z" fill="black"/>
<path d="M363.13 569.89C359.13 569.45 354.88 568.29 351.46 565.05C348.31 562.05 345.92 558.74 347.46 554.05C348.7 550.44 353.21 547.81 358.04 548.11C362.572 548.259 366.899 550.034 370.23 553.11C373.76 556.44 375.02 560.85 373.51 564.31C372.13 567.62 368.15 569.85 363.13 569.89ZM351.13 554.47C352.71 558.39 355.25 560.2 358.34 559.6C361.03 559.07 362.11 556.68 360.7 554.38C358.53 550.83 353.7 550.87 351.14 554.47H351.13Z" fill="black"/>
<path d="M129.82 586.71C127.35 601.71 117.18 610.32 104.5 611.34L129.82 586.71Z" fill="black"/>
<path d="M1134.16 602.8L1159.31 627.22C1148.2 628.27 1135.99 616.73 1134.16 602.8Z" fill="black"/>
<path d="M413.06 322C403.79 322 396.83 314.87 396.86 305.48C396.89 296.09 404.19 288.76 413.28 289.03C422.89 289.32 429.45 296.42 429.7 305.7C429.99 314.77 422.19 322.03 413.06 322ZM426.26 305.5C426.228 302.02 424.815 298.696 422.332 296.258C419.849 293.82 416.5 292.468 413.02 292.5C409.54 292.532 406.216 293.945 403.778 296.428C401.34 298.911 399.988 302.26 400.02 305.74C400.036 307.463 400.391 309.166 401.065 310.752C401.739 312.337 402.718 313.775 403.948 314.982C405.177 316.189 406.632 317.142 408.23 317.787C409.828 318.432 411.537 318.756 413.26 318.74C414.983 318.724 416.686 318.369 418.272 317.695C419.857 317.021 421.295 316.042 422.502 314.812C423.709 313.583 424.662 312.128 425.307 310.53C425.952 308.932 426.276 307.223 426.26 305.5Z" fill="black"/>
<path d="M338.11 298.76C338.192 300.923 337.831 303.081 337.049 305.1C336.267 307.118 335.081 308.956 333.563 310.499C332.045 312.043 330.227 313.26 328.221 314.075C326.216 314.89 324.064 315.287 321.9 315.24C319.735 315.29 317.58 314.913 315.561 314.13C313.541 313.347 311.696 312.173 310.131 310.675C308.566 309.178 307.311 307.387 306.439 305.404C305.568 303.421 305.095 301.286 305.05 299.12C304.93 290.33 312.67 282.51 321.55 282.44C323.714 282.404 325.864 282.8 327.874 283.604C329.883 284.409 331.713 285.606 333.254 287.125C334.796 288.645 336.02 290.456 336.853 292.454C337.687 294.452 338.114 296.595 338.11 298.76ZM334.95 299.07C334.926 295.55 333.513 292.182 331.019 289.699C328.524 287.215 325.15 285.818 321.63 285.81C318.145 285.778 314.79 287.132 312.303 289.574C309.817 292.015 308.402 295.345 308.37 298.83C308.338 302.315 309.692 305.67 312.134 308.157C314.575 310.643 317.905 312.058 321.39 312.09C324.916 312.154 328.325 310.822 330.873 308.383C333.421 305.944 334.901 302.596 334.99 299.07H334.95Z" fill="black"/>
</svg>
